<svg width="602" height="657" viewBox="0 0 602 657" fill="none" xmlns="http://www.w3.org/2000/svg">
<path d="M5.56 7.896V6.528H5.104V5.16H4.192V6.528H3.736V7.896H3.28V8.352H6.016V7.896H5.56ZM1.456 12V10.632H1.912V9.264H2.368V7.896H2.824V6.528H3.28V5.16H3.736V4.248H4.192V3.336H5.104V4.248H5.56V5.16H6.016V6.528H6.472V7.896H6.928V9.264H7.384V10.632H7.84V12H6.928V10.632H6.472V9.264H2.824V10.632H2.368V12H1.456ZM9.66878 11.088V10.176H9.21278V3.336H10.1248V10.176H10.5808V10.632H11.0368V11.088H13.7728V10.632H14.2288V10.176H14.6848V3.336H15.5968V10.176H15.1408V11.088H14.6848V11.544H13.7728V12H11.0368V11.544H10.1248V11.088H9.66878ZM19.6959 12V4.248H16.9599V3.336H23.3439V4.248H20.6079V12H19.6959ZM24.7167 12V3.336H25.6287V6.984H30.1887V3.336H31.1007V12H30.1887V7.896H25.6287V12H24.7167ZM33.3758 11.088V10.176H32.9198V9.264H32.4638V6.072H32.9198V5.16H33.3758V4.248H33.8318V3.792H34.7438V3.336H37.4798V3.792H38.3918V4.248H38.8478V5.16H39.3038V6.072H39.7598V9.264H39.3038V10.176H38.8478V11.088H38.3918V11.544H37.4798V12H34.7438V11.544H33.8318V11.088H33.3758ZM38.3918 6.072V5.16H37.9358V4.704H37.4798V4.248H34.7438V4.704H34.2878V5.16H33.8318V6.072H33.3758V9.264H33.8318V10.176H34.2878V10.632H34.7438V11.088H37.4798V10.632H37.9358V10.176H38.3918V9.264H38.8478V6.072H38.3918ZM41.1229 12V3.336H45.2269V3.792H46.1389V4.248H46.5949V4.704H47.0509V6.528H46.5949V6.984H46.1389V7.44H45.2269V6.984H45.6829V6.528H46.1389V5.16H45.6829V4.704H45.2269V4.248H42.0349V7.44H45.2269V7.896H46.1389V8.352H46.5949V8.808H47.0509V12H46.1389V9.264H45.6829V8.808H45.2269V8.352H42.0349V12H41.1229Z" fill="black"></path>
<path d="M585 26H17C8.16344 26 1 33.1634 1 42V130C1 138.837 8.16344 146 17 146H585C593.837 146 601 138.837 601 130V42C601 33.1634 593.837 26 585 26Z" fill="white" stroke="white" stroke-width="0.5"></path>
<path d="M185 76H41C36.5817 76 33 79.5817 33 84V112C33 116.418 36.5817 120 41 120H185C189.418 120 193 116.418 193 112V84C193 79.5817 189.418 76 185 76Z" stroke="black"></path>
<path d="M373 76H229C224.582 76 221 79.5817 221 84V112C221 116.418 224.582 120 229 120H373C377.418 120 381 116.418 381 112V84C381 79.5817 377.418 76 373 76Z" stroke="black"></path>
<path d="M561 76H417C412.582 76 409 79.5817 409 84V112C409 116.418 412.582 120 417 120H561C565.418 120 569 116.418 569 112V84C569 79.5817 565.418 76 561 76Z" stroke="black"></path>
<path d="M301 159V199" stroke="black"></path>
<path d="M2.824 197.896V201.088H6.016V200.632H6.472V200.176H6.928V198.808H6.472V198.352H6.016V197.896H2.824ZM1.912 202V193.336H6.016V193.792H6.928V194.704H7.384V196.072H6.928V196.984H6.016V196.072H6.472V194.704H6.016V194.248H2.824V196.984H6.016V197.44H6.928V197.896H7.384V198.352H7.84V200.632H7.384V201.088H6.928V201.544H6.016V202H1.912ZM10.1258 201.088V200.176H9.66981V193.336H10.5818V200.176H11.0378V200.632H11.4938V201.088H14.2298V200.632H14.6858V200.176H15.1418V193.336H16.0538V200.176H15.5978V201.088H15.1418V201.544H14.2298V202H11.4938V201.544H10.5818V201.088H10.1258ZM17.4218 202V201.088H18.7898V194.248H17.4218V193.336H21.0698V194.248H19.7018V201.088H21.0698V202H17.4218ZM22.4433 202V193.336H23.3553V201.088H27.9153V202H22.4433ZM34.759 199.264V196.072H34.303V195.16H33.847V194.704H33.391V194.248H30.199V201.088H33.391V200.632H33.847V200.176H34.303V199.264H34.759ZM29.287 202V193.336H33.391V193.792H34.303V194.248H34.759V195.16H35.215V196.072H35.671V199.264H35.215V200.176H34.759V201.088H34.303V201.544H33.391V202H29.287Z" fill="black"></path>
<path d="M585 216H17C8.16344 216 1 223.163 1 232V450C1 458.837 8.16344 466 17 466H585C593.837 466 601 458.837 601 450V232C601 223.163 593.837 216 585 216Z" fill="white"></path>
<path d="M275 266H41C36.5817 266 33 269.582 33 274V314C33 318.418 36.5817 322 41 322H275C279.418 322 283 318.418 283 314V274C283 269.582 279.418 266 275 266Z" stroke="black"></path>
<path d="M561 266H327C322.582 266 319 269.582 319 274V314C319 318.418 322.582 322 327 322H561C565.418 322 569 318.418 569 314V274C569 269.582 565.418 266 561 266Z" stroke="black"></path>
<path d="M158 331V357" stroke="black"></path>
<path d="M275 366H41C36.5817 366 33 369.582 33 374V414C33 418.418 36.5817 422 41 422H275C279.418 422 283 418.418 283 414V374C283 369.582 279.418 366 275 366Z" stroke="black"></path>
<path d="M301 481V521" stroke="black"></path>
<path d="M7.384 519.264V516.072H6.928V515.16H6.472V514.704H6.016V514.248H2.824V521.088H6.016V520.632H6.472V520.176H6.928V519.264H7.384ZM1.912 522V513.336H6.016V513.792H6.928V514.248H7.384V515.16H7.84V516.072H8.296V519.264H7.84V520.176H7.384V521.088H6.928V521.544H6.016V522H1.912ZM10.1151 522V513.336H15.5871V514.248H11.0271V516.984H15.5871V517.896H11.0271V521.088H15.5871V522H10.1151ZM17.4159 522V513.336H21.5199V513.792H22.4319V514.248H22.8879V515.16H23.3439V516.528H22.8879V517.44H22.4319V517.896H21.5199V518.352H18.3279V522H17.4159ZM21.9759 516.984V516.528H22.4319V515.16H21.9759V514.704H21.5199V514.248H18.3279V517.44H21.5199V516.984H21.9759ZM24.7167 522V513.336H25.6287V521.088H30.1887V522H24.7167ZM32.0164 521.088V520.176H31.5604V519.264H31.1044V516.072H31.5604V515.16H32.0164V514.248H32.4724V513.792H33.3844V513.336H36.1204V513.792H37.0324V514.248H37.4884V515.16H37.9444V516.072H38.4004V519.264H37.9444V520.176H37.4884V521.088H37.0324V521.544H36.1204V522H33.3844V521.544H32.4724V521.088H32.0164ZM37.0324 516.072V515.16H36.5764V514.704H36.1204V514.248H33.3844V514.704H32.9284V515.16H32.4724V516.072H32.0164V519.264H32.4724V520.176H32.9284V520.632H33.3844V521.088H36.1204V520.632H36.5764V520.176H37.0324V519.264H37.4884V516.072H37.0324ZM41.5876 522V518.352H41.1316V517.44H40.6756V516.528H40.2196V515.616H39.7636V514.704H39.3076V513.336H40.2196V514.704H40.6756V515.616H41.1316V516.528H41.5876V517.44H42.4996V516.528H42.9556V515.616H43.4116V514.704H43.8676V513.336H44.7796V514.704H44.3236V515.616H43.8676V516.528H43.4116V517.44H42.9556V518.352H42.4996V522H41.5876Z" fill="black"></path>
<path d="M585 536H17C8.16344 536 1 543.163 1 552V640C1 648.837 8.16344 656 17 656H585C593.837 656 601 648.837 601 640V552C601 543.163 593.837 536 585 536Z" fill="white"></path>
<path d="M275 568H41C36.5817 568 33 571.582 33 576V616C33 620.418 36.5817 624 41 624H275C279.418 624 283 620.418 283 616V576C283 571.582 279.418 568 275 568Z" fill="white" stroke="black"></path>
<path d="M561 568H327C322.582 568 319 571.582 319 576V616C319 620.418 322.582 624 327 624H561C565.418 624 569 620.418 569 616V576C569 571.582 565.418 568 561 568Z" fill="white" stroke="black"></path>
<path d="M266.187 55.936V54.872H265.655V53.808H265.123V50.084H265.655V49.02H266.187V47.956H266.719V47.424H267.783V46.892H271.507V47.424H272.571V47.956H273.103V49.02H273.635V50.084H272.571V49.02H272.039V48.488H271.507V47.956H267.783V48.488H267.251V49.02H266.719V50.084H266.187V53.808H266.719V54.872H267.251V55.404H267.783V55.936H272.039V56.468H271.507V57H267.783V56.468H266.719V55.936H266.187ZM269.379 53.276V52.212H273.635V57H272.571V55.936H272.039V55.404H272.571V53.276H269.379ZM275.225 57V46.892H276.289V50.616H276.821V51.148H276.289V57H275.225ZM280.013 57V51.148H279.481V50.616H276.821V50.084H277.353V49.552H280.013V50.084H280.545V50.616H281.077V57H280.013ZM283.21 55.936V54.872H282.678V51.68H283.21V50.616H283.742V50.084H284.274V49.552H287.466V50.084H287.998V50.616H288.53V51.68H289.062V54.872H288.53V55.936H287.998V56.468H287.466V57H284.274V56.468H283.742V55.936H283.21ZM286.934 55.936V55.404H287.466V54.872H287.998V51.68H287.466V51.148H286.934V50.616H284.806V51.148H284.274V51.68H283.742V54.872H284.274V55.404H284.806V55.936H286.934ZM290.129 55.936V54.872H291.193V55.404H291.725V55.936H294.917V54.34H293.853V53.808H291.725V53.276H290.661V52.212H290.129V51.148H290.661V50.084H291.193V49.552H294.917V50.084H295.449V50.616H295.981V51.68H294.917V50.616H291.725V51.148H291.193V52.212H291.725V52.744H293.853V53.276H295.449V53.808H295.981V55.936H295.449V56.468H294.917V57H291.193V56.468H290.661V55.936H290.129ZM298.111 55.936V50.616H297.047V49.552H298.111V47.956H299.175V49.552H301.303V50.616H299.175V55.936H301.303V57H299.175V56.468H298.643V55.936H298.111ZM308.747 55.936V54.872H308.215V53.808H307.683V50.084H308.215V49.02H308.747V47.956H309.279V47.424H310.343V46.892H313.535V47.424H315.131V47.956H315.663V49.02H316.195V50.616H315.131V49.02H314.599V48.488H314.067V47.956H310.343V48.488H309.811V49.02H309.279V50.084H308.747V53.808H309.279V54.872H309.811V55.404H310.343V55.936H314.067V55.404H314.599V54.872H315.131V53.276H316.195V54.872H315.663V55.936H315.131V56.468H313.535V57H310.343V56.468H309.279V55.936H308.747ZM325.234 57V49.552H324.702V47.956H325.234V46.892H326.298V57H325.234ZM317.786 57V46.892H318.85V47.956H319.382V49.552H318.85V57H317.786ZM320.978 55.404V54.34H320.446V52.744H319.914V51.148H319.382V49.552H320.446V51.148H320.978V52.744H321.51V54.34H322.574V52.744H323.106V51.148H323.638V49.552H324.702V51.148H324.17V52.744H323.638V54.34H323.106V55.404H322.574V56.468H321.51V55.404H320.978ZM328.954 56.468V55.404H328.422V53.808H329.486V55.404H330.018V55.936H333.742V55.404H334.274V53.276H333.21V52.744H331.614V52.212H330.018V51.68H328.954V51.148H328.422V48.488H328.954V47.424H330.018V46.892H333.21V47.424H334.274V47.956H334.806V49.02H335.338V50.084H334.274V49.02H333.742V48.488H333.21V47.956H330.018V48.488H329.486V50.616H330.018V51.148H332.146V51.68H333.742V52.212H334.806V53.276H335.338V55.404H334.806V56.468H333.742V57H330.018V56.468H328.954Z" fill="black"></path>
<path d="M72.856 102V91.892H79.24V92.956H73.92V96.148H79.24V97.212H73.92V100.936H79.24V102H72.856ZM85.6296 100.936V99.872H86.1616V96.68H85.6296V95.616H86.1616V91.892H87.2256V102H86.1616V100.936H85.6296ZM81.3736 100.936V99.872H80.8416V96.68H81.3736V95.616H81.9056V95.084H82.4376V94.552H85.0976V95.084H85.6296V95.616H82.9696V96.148H82.4376V96.68H81.9056V99.872H82.4376V100.404H82.9696V100.936H85.6296V101.468H85.0976V102H82.4376V101.468H81.9056V100.936H81.3736ZM88.8259 102V100.936H90.4219V95.616H88.8259V94.552H91.4859V100.936H93.0819V102H88.8259ZM90.4219 93.488V91.892H91.4859V93.488H90.4219ZM95.2083 100.936V95.616H94.1443V94.552H95.2083V92.956H96.2723V94.552H98.4003V95.616H96.2723V100.936H98.4003V102H96.2723V101.468H95.7403V100.936H95.2083ZM105.313 100.936V99.872H104.781V96.68H105.313V95.616H105.845V95.084H106.377V94.552H109.569V95.084H110.101V95.616H110.633V96.148H111.165V97.212H110.101V96.68H109.569V96.148H109.037V95.616H106.909V96.148H106.377V96.68H105.845V99.872H106.377V100.404H106.909V100.936H109.037V100.404H109.569V99.872H110.101V99.34H111.165V100.404H110.633V100.936H110.101V101.468H109.569V102H106.377V101.468H105.845V100.936H105.313ZM112.764 100.936V99.872H112.232V96.68H112.764V95.616H113.296V95.084H113.828V94.552H117.02V95.084H117.552V95.616H118.084V96.68H118.616V99.872H118.084V100.936H117.552V101.468H117.02V102H113.828V101.468H113.296V100.936H112.764ZM116.488 100.936V100.404H117.02V99.872H117.552V96.68H117.02V96.148H116.488V95.616H114.36V96.148H113.828V96.68H113.296V99.872H113.828V100.404H114.36V100.936H116.488ZM120.215 102V94.552H121.279V95.616H121.811V96.148H121.279V102H120.215ZM125.003 102V96.148H124.471V95.616H121.811V95.084H122.343V94.552H125.003V95.084H125.535V95.616H126.067V102H125.003ZM128.732 100.936V95.616H127.668V94.552H128.732V92.956H129.796V94.552H131.924V95.616H129.796V100.936H131.924V102H129.796V101.468H129.264V100.936H128.732ZM134.05 96.68V97.744H138.306V96.68H137.774V96.148H137.242V95.616H135.114V96.148H134.582V96.68H134.05ZM133.518 100.936V99.872H132.986V96.68H133.518V95.616H134.05V95.084H134.582V94.552H137.774V95.084H138.306V95.616H138.838V96.68H139.37V98.808H134.05V99.872H134.582V100.404H135.114V100.936H137.774V100.404H138.306V99.872H139.37V100.936H138.838V101.468H137.774V102H134.582V101.468H134.05V100.936H133.518ZM140.969 102V94.552H142.033V95.616H142.565V96.148H142.033V102H140.969ZM145.757 102V96.148H145.225V95.616H142.565V95.084H143.097V94.552H145.757V95.084H146.289V95.616H146.821V102H145.757ZM149.486 100.936V95.616H148.422V94.552H149.486V92.956H150.55V94.552H152.678V95.616H150.55V100.936H152.678V102H150.55V101.468H150.018V100.936H149.486Z" fill="black"></path>
<path d="M271.73 97.212V95.616H271.198V94.02H270.134V95.616H269.602V97.212H269.07V97.744H272.262V97.212H271.73ZM266.942 102V100.404H267.474V98.808H268.006V97.212H268.538V95.616H269.07V94.02H269.602V92.956H270.134V91.892H271.198V92.956H271.73V94.02H272.262V95.616H272.794V97.212H273.326V98.808H273.858V100.404H274.39V102H273.326V100.404H272.794V98.808H268.538V100.404H268.006V102H266.942ZM280.248 100.936V99.872H280.78V96.68H280.248V95.616H280.78V91.892H281.844V102H280.78V100.936H280.248ZM275.992 100.936V99.872H275.46V96.68H275.992V95.616H276.524V95.084H277.056V94.552H279.716V95.084H280.248V95.616H277.588V96.148H277.056V96.68H276.524V99.872H277.056V100.404H277.588V100.936H280.248V101.468H279.716V102H277.056V101.468H276.524V100.936H275.992ZM288.232 100.936V99.872H288.764V96.68H288.232V95.616H288.764V91.892H289.828V102H288.764V100.936H288.232ZM283.976 100.936V99.872H283.444V96.68H283.976V95.616H284.508V95.084H285.04V94.552H287.7V95.084H288.232V95.616H285.572V96.148H285.04V96.68H284.508V99.872H285.04V100.404H285.572V100.936H288.232V101.468H287.7V102H285.04V101.468H284.508V100.936H283.976ZM301.003 102V96.148H300.471V95.616H298.875V95.084H299.407V94.552H301.003V95.084H301.535V95.616H302.067V102H301.003ZM304.727 102V96.148H304.195V95.616H302.067V95.084H302.599V94.552H304.727V95.084H305.259V95.616H305.791V102H304.727ZM297.279 102V94.552H298.343V95.616H298.875V96.148H298.343V102H297.279ZM308.448 96.68V97.744H312.704V96.68H312.172V96.148H311.64V95.616H309.512V96.148H308.98V96.68H308.448ZM307.916 100.936V99.872H307.384V96.68H307.916V95.616H308.448V95.084H308.98V94.552H312.172V95.084H312.704V95.616H313.236V96.68H313.768V98.808H308.448V99.872H308.98V100.404H309.512V100.936H312.172V100.404H312.704V99.872H313.768V100.936H313.236V101.468H312.172V102H308.98V101.468H308.448V100.936H307.916ZM319.623 100.936V99.872H320.155V96.68H319.623V95.616H320.155V91.892H321.219V102H320.155V100.936H319.623ZM315.367 100.936V99.872H314.835V96.68H315.367V95.616H315.899V95.084H316.431V94.552H319.091V95.084H319.623V95.616H316.963V96.148H316.431V96.68H315.899V99.872H316.431V100.404H316.963V100.936H319.623V101.468H319.091V102H316.431V101.468H315.899V100.936H315.367ZM322.819 102V100.936H324.415V95.616H322.819V94.552H325.479V100.936H327.075V102H322.819ZM324.415 93.488V91.892H325.479V93.488H324.415ZM328.669 100.936V98.808H329.201V98.276H330.265V97.744H332.925V97.212H333.457V96.148H332.925V95.616H330.265V96.148H329.733V96.68H328.669V95.616H329.201V95.084H330.265V94.552H332.925V95.084H333.989V96.148H334.521V100.936H335.053V102H333.989V101.468H333.457V100.936H332.925V100.404H333.457V98.276H332.925V98.808H330.265V99.34H329.733V100.936H332.925V101.468H332.393V102H329.733V101.468H329.201V100.936H328.669Z" fill="black"></path>
<path d="M465.318 102V91.892H470.106V92.424H471.17V92.956H471.702V94.02H472.234V95.616H471.702V96.68H471.17V97.212H470.106V97.744H466.382V102H465.318ZM470.638 96.148V95.616H471.17V94.02H470.638V93.488H470.106V92.956H466.382V96.68H470.106V96.148H470.638ZM473.835 100.936V94.552H474.899V100.404H475.431V100.936H477.559V101.468H477.027V102H474.899V101.468H474.367V100.936H473.835ZM478.091 102V100.936H477.559V100.404H478.091V94.552H479.155V102H478.091ZM481.287 102V91.892H482.351V95.616H482.883V96.68H482.351V99.872H482.883V100.936H482.351V102H481.287ZM482.883 101.468V100.936H485.543V100.404H486.075V99.872H486.607V96.68H486.075V96.148H485.543V95.616H482.883V95.084H483.415V94.552H486.075V95.084H486.607V95.616H487.139V96.68H487.671V99.872H487.139V100.936H486.607V101.468H486.075V102H483.415V101.468H482.883ZM488.739 102V100.936H490.335V92.956H488.739V91.892H490.335V92.424H490.867V92.956H491.399V100.936H492.995V102H488.739ZM494.057 102V100.936H495.653V95.616H494.057V94.552H496.717V100.936H498.313V102H494.057ZM495.653 93.488V91.892H496.717V93.488H495.653ZM499.376 100.936V99.872H500.44V100.404H500.972V100.936H504.164V99.34H503.1V98.808H500.972V98.276H499.908V97.212H499.376V96.148H499.908V95.084H500.44V94.552H504.164V95.084H504.696V95.616H505.228V96.68H504.164V95.616H500.972V96.148H500.44V97.212H500.972V97.744H503.1V98.276H504.696V98.808H505.228V100.936H504.696V101.468H504.164V102H500.44V101.468H499.908V100.936H499.376ZM506.826 102V91.892H507.89V95.616H508.422V96.148H507.89V102H506.826ZM511.614 102V96.148H511.082V95.616H508.422V95.084H508.954V94.552H511.614V95.084H512.146V95.616H512.678V102H511.614Z" fill="black"></path>
<path d="M312.368 181.088V180.176H311.912V179.264H311.456V176.072H311.912V175.16H312.368V174.248H312.824V173.792H313.736V173.336H316.928V173.792H317.84V174.248H318.296V175.16H318.752V176.072H317.84V175.16H317.384V174.704H316.928V174.248H313.736V174.704H313.28V175.16H312.824V176.072H312.368V179.264H312.824V180.176H313.28V180.632H313.736V181.088H317.384V181.544H316.928V182H313.736V181.544H312.824V181.088H312.368ZM315.104 178.808V177.896H318.752V182H317.84V181.088H317.384V180.632H317.84V178.808H315.104ZM320.115 182V173.336H321.027V176.528H321.483V176.984H321.027V182H320.115ZM324.219 182V176.984H323.763V176.528H321.483V176.072H321.939V175.616H324.219V176.072H324.675V176.528H325.131V182H324.219ZM326.959 181.088V180.176H326.503V177.44H326.959V176.528H327.415V176.072H327.871V175.616H330.607V176.072H331.063V176.528H331.519V177.44H331.975V180.176H331.519V181.088H331.063V181.544H330.607V182H327.871V181.544H327.415V181.088H326.959ZM330.151 181.088V180.632H330.607V180.176H331.063V177.44H330.607V176.984H330.151V176.528H328.327V176.984H327.871V177.44H327.415V180.176H327.871V180.632H328.327V181.088H330.151ZM332.89 181.088V180.176H333.802V180.632H334.258V181.088H336.994V179.72H336.082V179.264H334.258V178.808H333.346V177.896H332.89V176.984H333.346V176.072H333.802V175.616H336.994V176.072H337.45V176.528H337.906V177.44H336.994V176.528H334.258V176.984H333.802V177.896H334.258V178.352H336.082V178.808H337.45V179.264H337.906V181.088H337.45V181.544H336.994V182H333.802V181.544H333.346V181.088H332.89ZM339.731 181.088V176.528H338.819V175.616H339.731V174.248H340.643V175.616H342.467V176.528H340.643V181.088H342.467V182H340.643V181.544H340.187V181.088H339.731ZM348.848 181.088V180.176H348.392V179.264H347.936V176.072H348.392V175.16H348.848V174.248H349.304V173.792H350.216V173.336H352.952V173.792H354.32V174.248H354.776V175.16H355.232V176.528H354.32V175.16H353.864V174.704H353.408V174.248H350.216V174.704H349.76V175.16H349.304V176.072H348.848V179.264H349.304V180.176H349.76V180.632H350.216V181.088H353.408V180.632H353.864V180.176H354.32V178.808H355.232V180.176H354.776V181.088H354.32V181.544H352.952V182H350.216V181.544H349.304V181.088H348.848ZM356.596 181.088V180.176H356.14V177.44H356.596V176.528H357.052V176.072H357.508V175.616H360.244V176.072H360.7V176.528H361.156V177.44H361.612V180.176H361.156V181.088H360.7V181.544H360.244V182H357.508V181.544H357.052V181.088H356.596ZM359.788 181.088V180.632H360.244V180.176H360.7V177.44H360.244V176.984H359.788V176.528H357.964V176.984H357.508V177.44H357.052V180.176H357.508V180.632H357.964V181.088H359.788ZM362.982 182V175.616H363.894V176.528H364.35V176.984H363.894V182H362.982ZM367.086 182V176.984H366.63V176.528H364.35V176.072H364.806V175.616H367.086V176.072H367.542V176.528H367.998V182H367.086ZM370.282 181.088V176.528H369.37V175.616H370.282V174.248H371.194V175.616H373.018V176.528H371.194V181.088H373.018V182H371.194V181.544H370.738V181.088H370.282ZM374.841 177.44V178.352H378.489V177.44H378.033V176.984H377.577V176.528H375.753V176.984H375.297V177.44H374.841ZM374.385 181.088V180.176H373.929V177.44H374.385V176.528H374.841V176.072H375.297V175.616H378.033V176.072H378.489V176.528H378.945V177.44H379.401V179.264H374.841V180.176H375.297V180.632H375.753V181.088H378.033V180.632H378.489V180.176H379.401V181.088H378.945V181.544H378.033V182H375.297V181.544H374.841V181.088H374.385ZM380.771 182V175.616H381.683V176.528H382.139V176.984H381.683V182H380.771ZM384.875 182V176.984H384.419V176.528H382.139V176.072H382.595V175.616H384.875V176.072H385.331V176.528H385.787V182H384.875ZM388.071 181.088V176.528H387.159V175.616H388.071V174.248H388.983V175.616H390.807V176.528H388.983V181.088H390.807V182H388.983V181.544H388.527V181.088H388.071ZM400.38 177.896V176.528H399.924V175.16H399.012V176.528H398.556V177.896H398.1V178.352H400.836V177.896H400.38ZM396.276 182V180.632H396.732V179.264H397.188V177.896H397.644V176.528H398.1V175.16H398.556V174.248H399.012V173.336H399.924V174.248H400.38V175.16H400.836V176.528H401.292V177.896H401.748V179.264H402.204V180.632H402.66V182H401.748V180.632H401.292V179.264H397.644V180.632H397.188V182H396.276ZM404.033 182V173.336H408.137V173.792H409.049V174.248H409.505V175.16H409.961V176.528H409.505V177.44H409.049V177.896H408.137V178.352H404.945V182H404.033ZM408.593 176.984V176.528H409.049V175.16H408.593V174.704H408.137V174.248H404.945V177.44H408.137V176.984H408.593ZM411.334 182V173.336H412.246V182H411.334Z" fill="#3D3D3A"></path>
<path d="M289.792 242.212V240.616H289.26V239.02H288.196V240.616H287.664V242.212H287.132V242.744H290.324V242.212H289.792ZM285.004 247V245.404H285.536V243.808H286.068V242.212H286.6V240.616H287.132V239.02H287.664V237.956H288.196V236.892H289.26V237.956H289.792V239.02H290.324V240.616H290.856V242.212H291.388V243.808H291.92V245.404H292.452V247H291.388V245.404H290.856V243.808H286.6V245.404H286.068V247H285.004ZM293.521 245.936V244.872H294.585V245.404H295.117V245.936H298.309V244.34H297.245V243.808H295.117V243.276H294.053V242.212H293.521V241.148H294.053V240.084H294.585V239.552H298.309V240.084H298.841V240.616H299.373V241.68H298.309V240.616H295.117V241.148H294.585V242.212H295.117V242.744H297.245V243.276H298.841V243.808H299.373V245.936H298.841V246.468H298.309V247H294.585V246.468H294.053V245.936H293.521ZM301.503 245.936V240.616H300.439V239.552H301.503V237.956H302.567V239.552H304.695V240.616H302.567V245.936H304.695V247H302.567V246.468H302.035V245.936H301.503ZM308.95 240.616V240.084H309.482V239.552H311.078V240.616H308.95ZM306.29 247V245.936H307.354V240.616H306.29V239.552H308.418V240.616H308.95V241.148H308.418V245.936H310.014V247H306.29ZM312.141 245.936V244.872H311.609V241.68H312.141V240.616H312.673V240.084H313.205V239.552H316.397V240.084H316.929V240.616H317.461V241.68H317.993V244.872H317.461V245.936H316.929V246.468H316.397V247H313.205V246.468H312.673V245.936H312.141ZM315.865 245.936V245.404H316.397V244.872H316.929V241.68H316.397V241.148H315.865V240.616H313.737V241.148H313.205V241.68H312.673V244.872H313.205V245.404H313.737V245.936H315.865Z" fill="black"></path>
<path d="M83.0064 288V277.892H89.3904V278.956H84.0704V282.68H88.8584V283.744H84.0704V288H83.0064ZM91.5228 282.68V283.744H95.7788V282.68H95.2468V282.148H94.7148V281.616H92.5868V282.148H92.0548V282.68H91.5228ZM90.9908 286.936V285.872H90.4588V282.68H90.9908V281.616H91.5228V281.084H92.0548V280.552H95.2468V281.084H95.7788V281.616H96.3108V282.68H96.8428V284.808H91.5228V285.872H92.0548V286.404H92.5868V286.936H95.2468V286.404H95.7788V285.872H96.8428V286.936H96.3108V287.468H95.2468V288H92.0548V287.468H91.5228V286.936H90.9908ZM98.9739 286.936V281.616H97.9099V280.552H98.9739V278.956H100.038V280.552H102.166V281.616H100.038V286.936H102.166V288H100.038V287.468H99.5059V286.936H98.9739ZM103.76 286.936V285.872H103.228V282.68H103.76V281.616H104.292V281.084H104.824V280.552H108.016V281.084H108.548V281.616H109.08V282.148H109.612V283.212H108.548V282.68H108.016V282.148H107.484V281.616H105.356V282.148H104.824V282.68H104.292V285.872H104.824V286.404H105.356V286.936H107.484V286.404H108.016V285.872H108.548V285.34H109.612V286.404H109.08V286.936H108.548V287.468H108.016V288H104.824V287.468H104.292V286.936H103.76ZM111.211 288V277.892H112.275V281.616H112.807V282.148H112.275V288H111.211ZM115.999 288V282.148H115.467V281.616H112.807V281.084H113.339V280.552H115.999V281.084H116.531V281.616H117.063V288H115.999ZM126.11 279.488V281.084H126.642V282.148H127.706V281.084H128.238V279.488H127.706V278.956H126.642V279.488H126.11ZM129.834 285.872V283.744H130.898V285.34H130.366V285.872H129.834ZM123.982 286.936V284.276H124.514V283.212H125.046V282.68H126.11V282.148H125.578V281.616H125.046V278.956H125.578V278.424H126.11V277.892H128.238V278.424H128.77V278.956H129.302V281.616H128.77V282.148H128.238V282.68H127.706V283.212H128.238V284.276H128.77V284.808H129.302V285.872H129.834V286.404H130.366V286.936H130.898V288H129.834V287.468H129.302V286.936H128.77V285.872H128.238V285.34H127.706V284.276H127.174V283.744H126.642V283.212H126.11V283.744H125.578V284.276H125.046V286.404H125.578V286.936H128.77V287.468H128.238V288H125.046V287.468H124.514V286.936H123.982ZM140.477 281.616V281.084H141.009V280.552H142.605V281.616H140.477ZM137.817 288V286.936H138.881V281.616H137.817V280.552H139.945V281.616H140.477V282.148H139.945V286.936H141.541V288H137.817ZM144.2 282.68V283.744H148.456V282.68H147.924V282.148H147.392V281.616H145.264V282.148H144.732V282.68H144.2ZM143.668 286.936V285.872H143.136V282.68H143.668V281.616H144.2V281.084H144.732V280.552H147.924V281.084H148.456V281.616H148.988V282.68H149.52V284.808H144.2V285.872H144.732V286.404H145.264V286.936H147.924V286.404H148.456V285.872H149.52V286.936H148.988V287.468H147.924V288H144.732V287.468H144.2V286.936H143.668ZM151.652 288V281.616H150.588V280.552H151.652V278.956H152.184V278.424H152.716V277.892H154.844V278.956H152.716V280.552H154.844V281.616H152.716V288H151.652ZM156.438 286.936V285.872H155.906V282.68H156.438V281.616H156.97V281.084H157.502V280.552H160.694V281.084H161.226V281.616H161.758V282.68H162.29V285.872H161.758V286.936H161.226V287.468H160.694V288H157.502V287.468H156.97V286.936H156.438ZM160.162 286.936V286.404H160.694V285.872H161.226V282.68H160.694V282.148H160.162V281.616H158.034V282.148H157.502V282.68H156.97V285.872H157.502V286.404H158.034V286.936H160.162ZM166.549 281.616V281.084H167.081V280.552H168.677V281.616H166.549ZM163.889 288V286.936H164.953V281.616H163.889V280.552H166.017V281.616H166.549V282.148H166.017V286.936H167.613V288H163.889ZM173.998 288V282.148H173.466V281.616H171.87V281.084H172.402V280.552H173.998V281.084H174.53V281.616H175.062V288H173.998ZM177.722 288V282.148H177.19V281.616H175.062V281.084H175.594V280.552H177.722V281.084H178.254V281.616H178.786V288H177.722ZM170.274 288V280.552H171.338V281.616H171.87V282.148H171.338V288H170.274ZM180.911 286.936V284.808H181.443V284.276H182.507V283.744H185.167V283.212H185.699V282.148H185.167V281.616H182.507V282.148H181.975V282.68H180.911V281.616H181.443V281.084H182.507V280.552H185.167V281.084H186.231V282.148H186.763V286.936H187.295V288H186.231V287.468H185.699V286.936H185.167V286.404H185.699V284.276H185.167V284.808H182.507V285.34H181.975V286.936H185.167V287.468H184.635V288H181.975V287.468H181.443V286.936H180.911ZM189.427 286.936V281.616H188.363V280.552H189.427V278.956H190.491V280.552H192.619V281.616H190.491V286.936H192.619V288H190.491V287.468H189.959V286.936H189.427ZM201.128 287.468V286.936H203.788V286.404H204.32V285.872H204.852V282.68H204.32V282.148H203.788V281.616H201.128V281.084H201.66V280.552H204.32V281.084H204.852V281.616H205.384V282.148H205.916V286.404H205.384V286.936H204.852V287.468H204.32V288H201.66V287.468H201.128ZM200.596 286.936V290.128H199.532V280.552H200.596V281.616H201.128V282.68H200.596V285.872H201.128V286.936H200.596ZM207.516 286.936V285.872H206.984V282.68H207.516V281.616H208.048V281.084H208.58V280.552H211.772V281.084H212.304V281.616H212.836V282.68H213.368V285.872H212.836V286.936H212.304V287.468H211.772V288H208.58V287.468H208.048V286.936H207.516ZM211.24 286.936V286.404H211.772V285.872H212.304V282.68H211.772V282.148H211.24V281.616H209.112V282.148H208.58V282.68H208.048V285.872H208.58V286.404H209.112V286.936H211.24ZM214.435 286.936V285.872H215.499V286.404H216.031V286.936H219.223V285.34H218.159V284.808H216.031V284.276H214.967V283.212H214.435V282.148H214.967V281.084H215.499V280.552H219.223V281.084H219.755V281.616H220.287V282.68H219.223V281.616H216.031V282.148H215.499V283.212H216.031V283.744H218.159V284.276H219.755V284.808H220.287V286.936H219.755V287.468H219.223V288H215.499V287.468H214.967V286.936H214.435ZM222.417 286.936V281.616H221.353V280.552H222.417V278.956H223.481V280.552H225.609V281.616H223.481V286.936H225.609V288H223.481V287.468H222.949V286.936H222.417ZM226.672 286.936V285.872H227.736V286.404H228.268V286.936H231.46V285.34H230.396V284.808H228.268V284.276H227.204V283.212H226.672V282.148H227.204V281.084H227.736V280.552H231.46V281.084H231.992V281.616H232.524V282.68H231.46V281.616H228.268V282.148H227.736V283.212H228.268V283.744H230.396V284.276H231.992V284.808H232.524V286.936H231.992V287.468H231.46V288H227.736V287.468H227.204V286.936H226.672Z" fill="black"></path>
<path d="M72.4862 308V299.336H76.5902V299.792H77.5022V300.248H77.9582V300.704H78.4142V302.528H77.9582V302.984H77.5022V303.44H76.5902V302.984H77.0462V302.528H77.5022V301.16H77.0462V300.704H76.5902V300.248H73.3982V303.44H76.5902V303.896H77.5022V304.352H77.9582V304.808H78.4142V308H77.5022V305.264H77.0462V304.808H76.5902V304.352H73.3982V308H72.4862ZM80.7 303.44V304.352H84.348V303.44H83.892V302.984H83.436V302.528H81.612V302.984H81.156V303.44H80.7ZM80.244 307.088V306.176H79.788V303.44H80.244V302.528H80.7V302.072H81.156V301.616H83.892V302.072H84.348V302.528H84.804V303.44H85.26V305.264H80.7V306.176H81.156V306.632H81.612V307.088H83.892V306.632H84.348V306.176H85.26V307.088H84.804V307.544H83.892V308H81.156V307.544H80.7V307.088H80.244ZM87.5428 307.088V305.264H87.0868V303.44H86.6308V301.616H87.5428V303.44H87.9988V305.264H88.4548V307.088H88.9108V305.264H89.3668V303.896H89.8228V302.528H90.7348V303.896H91.1908V305.264H91.6468V307.088H92.1028V305.264H92.5588V303.44H93.0148V301.616H93.9268V303.44H93.4708V305.264H93.0148V307.088H92.5588V308H91.1908V307.088H90.7348V305.264H89.8228V307.088H89.3668V308H87.9988V307.088H87.5428ZM98.0279 302.528V302.072H98.4839V301.616H99.8519V302.528H98.0279ZM95.7479 308V307.088H96.6599V302.528H95.7479V301.616H97.5719V302.528H98.0279V302.984H97.5719V307.088H98.9399V308H95.7479ZM100.765 308V307.088H102.133V302.528H100.765V301.616H103.045V307.088H104.413V308H100.765ZM102.133 300.704V299.336H103.045V300.704H102.133ZM106.235 307.088V302.528H105.323V301.616H106.235V300.248H107.147V301.616H108.971V302.528H107.147V307.088H108.971V308H107.147V307.544H106.691V307.088H106.235ZM110.794 303.44V304.352H114.442V303.44H113.986V302.984H113.53V302.528H111.706V302.984H111.25V303.44H110.794ZM110.338 307.088V306.176H109.882V303.44H110.338V302.528H110.794V302.072H111.25V301.616H113.986V302.072H114.442V302.528H114.898V303.44H115.354V305.264H110.794V306.176H111.25V306.632H111.706V307.088H113.986V306.632H114.442V306.176H115.354V307.088H114.898V307.544H113.986V308H111.25V307.544H110.794V307.088H110.338ZM120.827 308V307.088H122.195V300.248H120.827V299.336H122.195V299.792H122.651V300.248H123.107V307.088H124.475V308H120.827ZM125.842 307.088V306.176H125.386V303.44H125.842V302.528H126.298V302.072H126.754V301.616H129.49V302.072H129.946V302.528H130.402V303.44H130.858V306.176H130.402V307.088H129.946V307.544H129.49V308H126.754V307.544H126.298V307.088H125.842ZM129.034 307.088V306.632H129.49V306.176H129.946V303.44H129.49V302.984H129.034V302.528H127.21V302.984H126.754V303.44H126.298V306.176H126.754V306.632H127.21V307.088H129.034ZM132.228 307.088V306.176H131.772V303.44H132.228V302.528H132.684V302.072H133.14V301.616H135.876V302.072H136.332V302.528H136.788V302.984H137.244V303.896H136.332V303.44H135.876V302.984H135.42V302.528H133.596V302.984H133.14V303.44H132.684V306.176H133.14V306.632H133.596V307.088H135.42V306.632H135.876V306.176H136.332V305.72H137.244V306.632H136.788V307.088H136.332V307.544H135.876V308H133.14V307.544H132.684V307.088H132.228ZM138.615 307.088V305.264H139.071V304.808H139.983V304.352H142.263V303.896H142.719V302.984H142.263V302.528H139.983V302.984H139.527V303.44H138.615V302.528H139.071V302.072H139.983V301.616H142.263V302.072H143.175V302.984H143.631V307.088H144.087V308H143.175V307.544H142.719V307.088H142.263V306.632H142.719V304.808H142.263V305.264H139.983V305.72H139.527V307.088H142.263V307.544H141.807V308H139.527V307.544H139.071V307.088H138.615ZM145.003 308V307.088H146.371V300.248H145.003V299.336H146.371V299.792H146.827V300.248H147.283V307.088H148.651V308H145.003ZM150.017 308V299.336H150.929V302.528H151.385V302.984H150.929V308H150.017ZM154.121 308V302.984H153.665V302.528H151.385V302.072H151.841V301.616H154.121V302.072H154.577V302.528H155.033V308H154.121ZM156.861 307.088V306.176H156.405V303.44H156.861V302.528H157.317V302.072H157.773V301.616H160.509V302.072H160.965V302.528H161.421V303.44H161.877V306.176H161.421V307.088H160.965V307.544H160.509V308H157.773V307.544H157.317V307.088H156.861ZM160.053 307.088V306.632H160.509V306.176H160.965V303.44H160.509V302.984H160.053V302.528H158.229V302.984H157.773V303.44H157.317V306.176H157.773V306.632H158.229V307.088H160.053ZM162.792 307.088V306.176H163.704V306.632H164.16V307.088H166.896V305.72H165.984V305.264H164.16V304.808H163.248V303.896H162.792V302.984H163.248V302.072H163.704V301.616H166.896V302.072H167.352V302.528H167.808V303.44H166.896V302.528H164.16V302.984H163.704V303.896H164.16V304.352H165.984V304.808H167.352V305.264H167.808V307.088H167.352V307.544H166.896V308H163.704V307.544H163.248V307.088H162.792ZM169.634 307.088V302.528H168.722V301.616H169.634V300.248H170.546V301.616H172.37V302.528H170.546V307.088H172.37V308H170.546V307.544H170.09V307.088H169.634ZM181.487 308V302.984H181.031V302.528H179.663V302.072H180.119V301.616H181.487V302.072H181.943V302.528H182.399V308H181.487ZM184.679 308V302.984H184.223V302.528H182.399V302.072H182.855V301.616H184.679V302.072H185.135V302.528H185.591V308H184.679ZM178.295 308V301.616H179.207V302.528H179.663V302.984H179.207V308H178.295ZM187.868 303.44V304.352H191.516V303.44H191.06V302.984H190.604V302.528H188.78V302.984H188.324V303.44H187.868ZM187.412 307.088V306.176H186.956V303.44H187.412V302.528H187.868V302.072H188.324V301.616H191.06V302.072H191.516V302.528H191.972V303.44H192.428V305.264H187.868V306.176H188.324V306.632H188.78V307.088H191.06V306.632H191.516V306.176H192.428V307.088H191.972V307.544H191.06V308H188.324V307.544H187.868V307.088H187.412ZM197.447 307.088V306.176H197.903V303.44H197.447V302.528H197.903V299.336H198.815V308H197.903V307.088H197.447ZM193.799 307.088V306.176H193.343V303.44H193.799V302.528H194.255V302.072H194.711V301.616H196.991V302.072H197.447V302.528H195.167V302.984H194.711V303.44H194.255V306.176H194.711V306.632H195.167V307.088H197.447V307.544H196.991V308H194.711V307.544H194.255V307.088H193.799ZM200.186 308V307.088H201.554V302.528H200.186V301.616H202.466V307.088H203.834V308H200.186ZM201.554 300.704V299.336H202.466V300.704H201.554ZM205.201 307.088V305.264H205.657V304.808H206.569V304.352H208.849V303.896H209.305V302.984H208.849V302.528H206.569V302.984H206.113V303.44H205.201V302.528H205.657V302.072H206.569V301.616H208.849V302.072H209.761V302.984H210.217V307.088H210.673V308H209.761V307.544H209.305V307.088H208.849V306.632H209.305V304.808H208.849V305.264H206.569V305.72H206.113V307.088H208.849V307.544H208.393V308H206.113V307.544H205.657V307.088H205.201ZM217.059 307.088V306.176H216.603V299.336H217.515V306.176H217.971V306.632H218.427V307.088H221.163V306.632H221.619V306.176H222.075V299.336H222.987V306.176H222.531V307.088H222.075V307.544H221.163V308H218.427V307.544H217.515V307.088H217.059ZM224.807 308V299.336H228.911V299.792H229.823V300.248H230.279V300.704H230.735V302.528H230.279V302.984H229.823V303.44H228.911V302.984H229.367V302.528H229.823V301.16H229.367V300.704H228.911V300.248H225.719V303.44H228.911V303.896H229.823V304.352H230.279V304.808H230.735V308H229.823V305.264H229.367V304.808H228.911V304.352H225.719V308H224.807ZM232.564 308V299.336H233.476V307.088H238.036V308H232.564ZM238.952 307.088V306.176H239.864V306.632H240.32V307.088H243.056V305.72H242.144V305.264H240.32V304.808H239.408V303.896H238.952V302.984H239.408V302.072H239.864V301.616H243.056V302.072H243.512V302.528H243.968V303.44H243.056V302.528H240.32V302.984H239.864V303.896H240.32V304.352H242.144V304.808H243.512V305.264H243.968V307.088H243.512V307.544H243.056V308H239.864V307.544H239.408V307.088H238.952Z" fill="black"></path>
<path d="M390.22 288V277.892H391.284V286.936H396.604V288H390.22ZM398.205 286.936V285.872H397.673V282.68H398.205V281.616H398.737V281.084H399.269V280.552H402.461V281.084H402.993V281.616H403.525V282.68H404.057V285.872H403.525V286.936H402.993V287.468H402.461V288H399.269V287.468H398.737V286.936H398.205ZM401.929 286.936V286.404H402.461V285.872H402.993V282.68H402.461V282.148H401.929V281.616H399.801V282.148H399.269V282.68H398.737V285.872H399.269V286.404H399.801V286.936H401.929ZM405.656 286.936V285.872H405.124V282.68H405.656V281.616H406.188V281.084H406.72V280.552H409.912V281.084H410.444V281.616H410.976V282.148H411.508V283.212H410.444V282.68H409.912V282.148H409.38V281.616H407.252V282.148H406.72V282.68H406.188V285.872H406.72V286.404H407.252V286.936H409.38V286.404H409.912V285.872H410.444V285.34H411.508V286.404H410.976V286.936H410.444V287.468H409.912V288H406.72V287.468H406.188V286.936H405.656ZM413.107 286.936V284.808H413.639V284.276H414.703V283.744H417.363V283.212H417.895V282.148H417.363V281.616H414.703V282.148H414.171V282.68H413.107V281.616H413.639V281.084H414.703V280.552H417.363V281.084H418.427V282.148H418.959V286.936H419.491V288H418.427V287.468H417.895V286.936H417.363V286.404H417.895V284.276H417.363V284.808H414.703V285.34H414.171V286.936H417.363V287.468H416.831V288H414.171V287.468H413.639V286.936H413.107ZM420.559 288V286.936H422.155V278.956H420.559V277.892H422.155V278.424H422.687V278.956H423.219V286.936H424.815V288H420.559ZM435.984 286.936V285.872H436.516V282.68H435.984V281.616H436.516V277.892H437.58V288H436.516V286.936H435.984ZM431.728 286.936V285.872H431.196V282.68H431.728V281.616H432.26V281.084H432.792V280.552H435.452V281.084H435.984V281.616H433.324V282.148H432.792V282.68H432.26V285.872H432.792V286.404H433.324V286.936H435.984V287.468H435.452V288H432.792V287.468H432.26V286.936H431.728ZM440.244 282.68V283.744H444.5V282.68H443.968V282.148H443.436V281.616H441.308V282.148H440.776V282.68H440.244ZM439.712 286.936V285.872H439.18V282.68H439.712V281.616H440.244V281.084H440.776V280.552H443.968V281.084H444.5V281.616H445.032V282.68H445.564V284.808H440.244V285.872H440.776V286.404H441.308V286.936H443.968V286.404H444.5V285.872H445.564V286.936H445.032V287.468H443.968V288H440.776V287.468H440.244V286.936H439.712ZM448.228 286.936V285.872H447.696V284.276H447.164V282.68H446.632V280.552H447.696V282.68H448.228V284.276H448.76V285.872H449.292V286.936H449.824V285.872H450.356V284.276H450.888V282.68H451.42V280.552H452.484V282.68H451.952V284.276H451.42V285.872H450.888V286.936H450.356V288H448.76V286.936H448.228ZM458.868 286.936V285.872H459.932V286.404H460.464V286.936H463.656V285.34H462.592V284.808H460.464V284.276H459.4V283.212H458.868V282.148H459.4V281.084H459.932V280.552H463.656V281.084H464.188V281.616H464.72V282.68H463.656V281.616H460.464V282.148H459.932V283.212H460.464V283.744H462.592V284.276H464.188V284.808H464.72V286.936H464.188V287.468H463.656V288H459.932V287.468H459.4V286.936H458.868ZM466.85 282.68V283.744H471.106V282.68H470.574V282.148H470.042V281.616H467.914V282.148H467.382V282.68H466.85ZM466.318 286.936V285.872H465.786V282.68H466.318V281.616H466.85V281.084H467.382V280.552H470.574V281.084H471.106V281.616H471.638V282.68H472.17V284.808H466.85V285.872H467.382V286.404H467.914V286.936H470.574V286.404H471.106V285.872H472.17V286.936H471.638V287.468H470.574V288H467.382V287.468H466.85V286.936H466.318ZM476.429 281.616V281.084H476.961V280.552H478.557V281.616H476.429ZM473.769 288V286.936H474.833V281.616H473.769V280.552H475.897V281.616H476.429V282.148H475.897V286.936H477.493V288H473.769ZM481.218 286.936V285.872H480.686V284.276H480.154V282.68H479.622V280.552H480.686V282.68H481.218V284.276H481.75V285.872H482.282V286.936H482.814V285.872H483.346V284.276H483.878V282.68H484.41V280.552H485.474V282.68H484.942V284.276H484.41V285.872H483.878V286.936H483.346V288H481.75V286.936H481.218ZM487.604 282.68V283.744H491.86V282.68H491.328V282.148H490.796V281.616H488.668V282.148H488.136V282.68H487.604ZM487.072 286.936V285.872H486.54V282.68H487.072V281.616H487.604V281.084H488.136V280.552H491.328V281.084H491.86V281.616H492.392V282.68H492.924V284.808H487.604V285.872H488.136V286.404H488.668V286.936H491.328V286.404H491.86V285.872H492.924V286.936H492.392V287.468H491.328V288H488.136V287.468H487.604V286.936H487.072ZM497.183 281.616V281.084H497.715V280.552H499.311V281.616H497.183ZM494.523 288V286.936H495.587V281.616H494.523V280.552H496.651V281.616H497.183V282.148H496.651V286.936H498.247V288H494.523Z" fill="black"></path>
<path d="M365.09 308V299.336H369.194V299.792H370.106V300.248H370.562V301.16H371.018V302.528H370.562V303.44H370.106V303.896H369.194V304.352H366.002V308H365.09ZM369.65 302.984V302.528H370.106V301.16H369.65V300.704H369.194V300.248H366.002V303.44H369.194V302.984H369.65ZM374.671 302.528V302.072H375.127V301.616H376.495V302.528H374.671ZM372.391 308V307.088H373.303V302.528H372.391V301.616H374.215V302.528H374.671V302.984H374.215V307.088H375.583V308H372.391ZM377.862 303.44V304.352H381.51V303.44H381.054V302.984H380.598V302.528H378.774V302.984H378.318V303.44H377.862ZM377.406 307.088V306.176H376.95V303.44H377.406V302.528H377.862V302.072H378.318V301.616H381.054V302.072H381.51V302.528H381.966V303.44H382.422V305.264H377.862V306.176H378.318V306.632H378.774V307.088H381.054V306.632H381.51V306.176H382.422V307.088H381.966V307.544H381.054V308H378.318V307.544H377.862V307.088H377.406ZM384.705 307.088V306.176H384.249V304.808H383.793V303.44H383.337V301.616H384.249V303.44H384.705V304.808H385.161V306.176H385.617V307.088H386.073V306.176H386.529V304.808H386.985V303.44H387.441V301.616H388.353V303.44H387.897V304.808H387.441V306.176H386.985V307.088H386.529V308H385.161V307.088H384.705ZM389.267 308V307.088H390.635V302.528H389.267V301.616H391.547V307.088H392.915V308H389.267ZM390.635 300.704V299.336H391.547V300.704H390.635ZM394.737 303.44V304.352H398.385V303.44H397.929V302.984H397.473V302.528H395.649V302.984H395.193V303.44H394.737ZM394.281 307.088V306.176H393.825V303.44H394.281V302.528H394.737V302.072H395.193V301.616H397.929V302.072H398.385V302.528H398.841V303.44H399.297V305.264H394.737V306.176H395.193V306.632H395.649V307.088H397.929V306.632H398.385V306.176H399.297V307.088H398.841V307.544H397.929V308H395.193V307.544H394.737V307.088H394.281ZM401.58 307.088V305.264H401.124V303.44H400.668V301.616H401.58V303.44H402.036V305.264H402.492V307.088H402.948V305.264H403.404V303.896H403.86V302.528H404.772V303.896H405.228V305.264H405.684V307.088H406.14V305.264H406.596V303.44H407.052V301.616H407.964V303.44H407.508V305.264H407.052V307.088H406.596V308H405.228V307.088H404.772V305.264H403.86V307.088H403.404V308H402.036V307.088H401.58ZM414.344 307.088V306.176H413.888V303.44H414.344V302.528H414.8V302.072H415.256V301.616H417.992V302.072H418.448V302.528H418.904V303.44H419.36V306.176H418.904V307.088H418.448V307.544H417.992V308H415.256V307.544H414.8V307.088H414.344ZM417.536 307.088V306.632H417.992V306.176H418.448V303.44H417.992V302.984H417.536V302.528H415.712V302.984H415.256V303.44H414.8V306.176H415.256V306.632H415.712V307.088H417.536ZM420.73 308V301.616H421.642V302.528H422.098V302.984H421.642V308H420.73ZM424.834 308V302.984H424.378V302.528H422.098V302.072H422.554V301.616H424.834V302.072H425.29V302.528H425.746V308H424.834ZM435.781 307.088V306.176H436.237V303.44H435.781V302.528H436.237V299.336H437.149V308H436.237V307.088H435.781ZM432.133 307.088V306.176H431.677V303.44H432.133V302.528H432.589V302.072H433.045V301.616H435.325V302.072H435.781V302.528H433.501V302.984H433.045V303.44H432.589V306.176H433.045V306.632H433.501V307.088H435.781V307.544H435.325V308H433.045V307.544H432.589V307.088H432.133ZM439.432 303.44V304.352H443.08V303.44H442.624V302.984H442.168V302.528H440.344V302.984H439.888V303.44H439.432ZM438.976 307.088V306.176H438.52V303.44H438.976V302.528H439.432V302.072H439.888V301.616H442.624V302.072H443.08V302.528H443.536V303.44H443.992V305.264H439.432V306.176H439.888V306.632H440.344V307.088H442.624V306.632H443.08V306.176H443.992V307.088H443.536V307.544H442.624V308H439.888V307.544H439.432V307.088H438.976ZM444.907 307.088V306.176H445.819V306.632H446.275V307.088H449.011V305.72H448.099V305.264H446.275V304.808H445.363V303.896H444.907V302.984H445.363V302.072H445.819V301.616H449.011V302.072H449.467V302.528H449.923V303.44H449.011V302.528H446.275V302.984H445.819V303.896H446.275V304.352H448.099V304.808H449.467V305.264H449.923V307.088H449.467V307.544H449.011V308H445.819V307.544H445.363V307.088H444.907ZM451.293 308V299.336H452.205V304.808H452.661V304.352H453.117V303.896H453.573V303.44H454.029V302.984H454.485V302.528H454.941V302.072H455.397V301.616H456.309V302.528H455.853V302.984H455.397V303.44H454.941V303.896H454.485V304.352H454.029V304.808H454.485V305.264H454.941V305.72H455.397V306.176H455.853V306.632H456.309V308H455.397V307.088H454.941V306.632H454.485V306.176H454.029V305.72H453.573V305.264H453.117V305.72H452.661V306.176H452.205V308H451.293ZM458.136 307.088V302.528H457.224V301.616H458.136V300.248H459.048V301.616H460.872V302.528H459.048V307.088H460.872V308H459.048V307.544H458.592V307.088H458.136ZM462.238 307.088V306.176H461.782V303.44H462.238V302.528H462.694V302.072H463.15V301.616H465.886V302.072H466.342V302.528H466.798V303.44H467.254V306.176H466.798V307.088H466.342V307.544H465.886V308H463.15V307.544H462.694V307.088H462.238ZM465.43 307.088V306.632H465.886V306.176H466.342V303.44H465.886V302.984H465.43V302.528H463.606V302.984H463.15V303.44H462.694V306.176H463.15V306.632H463.606V307.088H465.43ZM469.993 307.544V307.088H472.273V306.632H472.729V306.176H473.185V303.44H472.729V302.984H472.273V302.528H469.993V302.072H470.449V301.616H472.729V302.072H473.185V302.528H473.641V302.984H474.097V306.632H473.641V307.088H473.185V307.544H472.729V308H470.449V307.544H469.993ZM469.537 307.088V309.824H468.625V301.616H469.537V302.528H469.993V303.44H469.537V306.176H469.993V307.088H469.537ZM481.395 300.704V302.072H481.851V302.984H482.763V302.072H483.219V300.704H482.763V300.248H481.851V300.704H481.395ZM484.587 306.176V304.352H485.499V305.72H485.043V306.176H484.587ZM479.571 307.088V304.808H480.027V303.896H480.483V303.44H481.395V302.984H480.939V302.528H480.483V300.248H480.939V299.792H481.395V299.336H483.219V299.792H483.675V300.248H484.131V302.528H483.675V302.984H483.219V303.44H482.763V303.896H483.219V304.808H483.675V305.264H484.131V306.176H484.587V306.632H485.043V307.088H485.499V308H484.587V307.544H484.131V307.088H483.675V306.176H483.219V305.72H482.763V304.808H482.307V304.352H481.851V303.896H481.395V304.352H480.939V304.808H480.483V306.632H480.939V307.088H483.675V307.544H483.219V308H480.483V307.544H480.027V307.088H479.571ZM492.798 307.544V307.088H495.078V306.632H495.534V306.176H495.99V303.44H495.534V302.984H495.078V302.528H492.798V302.072H493.254V301.616H495.534V302.072H495.99V302.528H496.446V302.984H496.902V306.632H496.446V307.088H495.99V307.544H495.534V308H493.254V307.544H492.798ZM492.342 307.088V309.824H491.43V301.616H492.342V302.528H492.798V303.44H492.342V306.176H492.798V307.088H492.342ZM498.273 308V299.336H499.185V302.528H499.641V302.984H499.185V308H498.273ZM502.377 308V302.984H501.921V302.528H499.641V302.072H500.097V301.616H502.377V302.072H502.833V302.528H503.289V308H502.377ZM505.117 307.088V306.176H504.661V303.44H505.117V302.528H505.573V302.072H506.029V301.616H508.765V302.072H509.221V302.528H509.677V303.44H510.133V306.176H509.677V307.088H509.221V307.544H508.765V308H506.029V307.544H505.573V307.088H505.117ZM508.309 307.088V306.632H508.765V306.176H509.221V303.44H508.765V302.984H508.309V302.528H506.485V302.984H506.029V303.44H505.573V306.176H506.029V306.632H506.485V307.088H508.309ZM511.504 308V301.616H512.416V302.528H512.872V302.984H512.416V308H511.504ZM515.608 308V302.984H515.152V302.528H512.872V302.072H513.328V301.616H515.608V302.072H516.064V302.528H516.52V308H515.608ZM518.804 303.44V304.352H522.452V303.44H521.996V302.984H521.54V302.528H519.716V302.984H519.26V303.44H518.804ZM518.348 307.088V306.176H517.892V303.44H518.348V302.528H518.804V302.072H519.26V301.616H521.996V302.072H522.452V302.528H522.908V303.44H523.364V305.264H518.804V306.176H519.26V306.632H519.716V307.088H521.996V306.632H522.452V306.176H523.364V307.088H522.908V307.544H521.996V308H519.26V307.544H518.804V307.088H518.348Z" fill="black"></path>
<path d="M90.4632 388.936V387.872H89.9312V386.808H89.3992V383.084H89.9312V382.02H90.4632V380.956H90.9952V380.424H92.0592V379.892H95.7832V380.424H96.8472V380.956H97.3792V382.02H97.9112V383.084H96.8472V382.02H96.3152V381.488H95.7832V380.956H92.0592V381.488H91.5272V382.02H90.9952V383.084H90.4632V386.808H90.9952V387.872H91.5272V388.404H92.0592V388.936H96.3152V389.468H95.7832V390H92.0592V389.468H90.9952V388.936H90.4632ZM93.6552 386.276V385.212H97.9112V390H96.8472V388.936H96.3152V388.404H96.8472V386.276H93.6552ZM100.034 384.68V385.744H104.29V384.68H103.758V384.148H103.226V383.616H101.098V384.148H100.566V384.68H100.034ZM99.5015 388.936V387.872H98.9695V384.68H99.5015V383.616H100.034V383.084H100.566V382.552H103.758V383.084H104.29V383.616H104.822V384.68H105.354V386.808H100.034V387.872H100.566V388.404H101.098V388.936H103.758V388.404H104.29V387.872H105.354V388.936H104.822V389.468H103.758V390H100.566V389.468H100.034V388.936H99.5015ZM106.953 390V382.552H108.017V383.616H108.549V384.148H108.017V390H106.953ZM111.741 390V384.148H111.209V383.616H108.549V383.084H109.081V382.552H111.741V383.084H112.273V383.616H112.805V390H111.741ZM115.469 384.68V385.744H119.725V384.68H119.193V384.148H118.661V383.616H116.533V384.148H116.001V384.68H115.469ZM114.937 388.936V387.872H114.405V384.68H114.937V383.616H115.469V383.084H116.001V382.552H119.193V383.084H119.725V383.616H120.257V384.68H120.789V386.808H115.469V387.872H116.001V388.404H116.533V388.936H119.193V388.404H119.725V387.872H120.789V388.936H120.257V389.468H119.193V390H116.001V389.468H115.469V388.936H114.937ZM125.048 383.616V383.084H125.58V382.552H127.176V383.616H125.048ZM122.388 390V388.936H123.452V383.616H122.388V382.552H124.516V383.616H125.048V384.148H124.516V388.936H126.112V390H122.388ZM128.24 388.936V386.808H128.772V386.276H129.836V385.744H132.496V385.212H133.028V384.148H132.496V383.616H129.836V384.148H129.304V384.68H128.24V383.616H128.772V383.084H129.836V382.552H132.496V383.084H133.56V384.148H134.092V388.936H134.624V390H133.56V389.468H133.028V388.936H132.496V388.404H133.028V386.276H132.496V386.808H129.836V387.34H129.304V388.936H132.496V389.468H131.964V390H129.304V389.468H128.772V388.936H128.24ZM136.756 388.936V383.616H135.692V382.552H136.756V380.956H137.82V382.552H139.948V383.616H137.82V388.936H139.948V390H137.82V389.468H137.288V388.936H136.756ZM142.075 384.68V385.744H146.331V384.68H145.799V384.148H145.267V383.616H143.139V384.148H142.607V384.68H142.075ZM141.543 388.936V387.872H141.011V384.68H141.543V383.616H142.075V383.084H142.607V382.552H145.799V383.084H146.331V383.616H146.863V384.68H147.395V386.808H142.075V387.872H142.607V388.404H143.139V388.936H145.799V388.404H146.331V387.872H147.395V388.936H146.863V389.468H145.799V390H142.607V389.468H142.075V388.936H141.543ZM153.78 388.936V387.872H154.844V388.404H155.376V388.936H158.568V387.34H157.504V386.808H155.376V386.276H154.312V385.212H153.78V384.148H154.312V383.084H154.844V382.552H158.568V383.084H159.1V383.616H159.632V384.68H158.568V383.616H155.376V384.148H154.844V385.212H155.376V385.744H157.504V386.276H159.1V386.808H159.632V388.936H159.1V389.468H158.568V390H154.844V389.468H154.312V388.936H153.78ZM161.762 388.936V383.616H160.698V382.552H161.762V380.956H162.826V382.552H164.954V383.616H162.826V388.936H164.954V390H162.826V389.468H162.294V388.936H161.762ZM166.548 388.936V386.808H167.08V386.276H168.144V385.744H170.804V385.212H171.336V384.148H170.804V383.616H168.144V384.148H167.612V384.68H166.548V383.616H167.08V383.084H168.144V382.552H170.804V383.084H171.868V384.148H172.4V388.936H172.932V390H171.868V389.468H171.336V388.936H170.804V388.404H171.336V386.276H170.804V386.808H168.144V387.34H167.612V388.936H170.804V389.468H170.272V390H167.612V389.468H167.08V388.936H166.548ZM175.065 388.936V383.616H174.001V382.552H175.065V380.956H176.129V382.552H178.257V383.616H176.129V388.936H178.257V390H176.129V389.468H175.597V388.936H175.065ZM179.319 390V388.936H180.915V383.616H179.319V382.552H181.979V388.936H183.575V390H179.319ZM180.915 381.488V379.892H181.979V381.488H180.915ZM185.169 388.936V387.872H184.637V384.68H185.169V383.616H185.701V383.084H186.233V382.552H189.425V383.084H189.957V383.616H190.489V384.148H191.021V385.212H189.957V384.68H189.425V384.148H188.893V383.616H186.765V384.148H186.233V384.68H185.701V387.872H186.233V388.404H186.765V388.936H188.893V388.404H189.425V387.872H189.957V387.34H191.021V388.404H190.489V388.936H189.957V389.468H189.425V390H186.233V389.468H185.701V388.936H185.169ZM198.471 390V383.616H197.407V382.552H198.471V380.956H199.003V380.424H199.535V379.892H201.663V380.956H199.535V382.552H201.663V383.616H199.535V390H198.471ZM201.663 390V388.936H203.259V383.616H201.663V382.552H204.323V388.936H205.919V390H201.663ZM203.259 381.488V379.892H204.323V381.488H203.259ZM206.977 390V388.936H208.573V380.956H206.977V379.892H208.573V380.424H209.105V380.956H209.637V388.936H211.233V390H206.977ZM213.36 384.68V385.744H217.616V384.68H217.084V384.148H216.552V383.616H214.424V384.148H213.892V384.68H213.36ZM212.828 388.936V387.872H212.296V384.68H212.828V383.616H213.36V383.084H213.892V382.552H217.084V383.084H217.616V383.616H218.148V384.68H218.68V386.808H213.36V387.872H213.892V388.404H214.424V388.936H217.084V388.404H217.616V387.872H218.68V388.936H218.148V389.468H217.084V390H213.892V389.468H213.36V388.936H212.828ZM219.747 388.936V387.872H220.811V388.404H221.343V388.936H224.535V387.34H223.471V386.808H221.343V386.276H220.279V385.212H219.747V384.148H220.279V383.084H220.811V382.552H224.535V383.084H225.067V383.616H225.599V384.68H224.535V383.616H221.343V384.148H220.811V385.212H221.343V385.744H223.471V386.276H225.067V386.808H225.599V388.936H225.067V389.468H224.535V390H220.811V389.468H220.279V388.936H219.747Z" fill="black"></path>
<path d="M91.1893 410V401.336H96.6613V402.248H92.1013V405.44H96.2053V406.352H92.1013V410H91.1893ZM98.0331 409.088V403.616H98.9451V408.632H99.4011V409.088H101.225V409.544H100.769V410H98.9451V409.544H98.4891V409.088H98.0331ZM101.681 410V409.088H101.225V408.632H101.681V403.616H102.593V410H101.681ZM103.964 410V409.088H105.332V402.248H103.964V401.336H105.332V401.792H105.788V402.248H106.244V409.088H107.612V410H103.964ZM108.522 410V409.088H109.89V402.248H108.522V401.336H109.89V401.792H110.346V402.248H110.802V409.088H112.17V410H108.522ZM117.64 409.088V408.176H118.552V408.632H119.008V409.088H121.744V407.72H120.832V407.264H119.008V406.808H118.096V405.896H117.64V404.984H118.096V404.072H118.552V403.616H121.744V404.072H122.2V404.528H122.656V405.44H121.744V404.528H119.008V404.984H118.552V405.896H119.008V406.352H120.832V406.808H122.2V407.264H122.656V409.088H122.2V409.544H121.744V410H118.552V409.544H118.096V409.088H117.64ZM124.481 409.088V404.528H123.569V403.616H124.481V402.248H125.393V403.616H127.217V404.528H125.393V409.088H127.217V410H125.393V409.544H124.937V409.088H124.481ZM128.584 409.088V407.264H129.04V406.808H129.952V406.352H132.232V405.896H132.688V404.984H132.232V404.528H129.952V404.984H129.496V405.44H128.584V404.528H129.04V404.072H129.952V403.616H132.232V404.072H133.144V404.984H133.6V409.088H134.056V410H133.144V409.544H132.688V409.088H132.232V408.632H132.688V406.808H132.232V407.264H129.952V407.72H129.496V409.088H132.232V409.544H131.776V410H129.496V409.544H129.04V409.088H128.584ZM135.884 409.088V404.528H134.972V403.616H135.884V402.248H136.796V403.616H138.62V404.528H136.796V409.088H138.62V410H136.796V409.544H136.34V409.088H135.884ZM139.53 410V409.088H140.898V404.528H139.53V403.616H141.81V409.088H143.178V410H139.53ZM140.898 402.704V401.336H141.81V402.704H140.898ZM144.545 409.088V408.176H144.089V405.44H144.545V404.528H145.001V404.072H145.457V403.616H148.193V404.072H148.649V404.528H149.105V404.984H149.561V405.896H148.649V405.44H148.193V404.984H147.737V404.528H145.913V404.984H145.457V405.44H145.001V408.176H145.457V408.632H145.913V409.088H147.737V408.632H148.193V408.176H148.649V407.72H149.561V408.632H149.105V409.088H148.649V409.544H148.193V410H145.457V409.544H145.001V409.088H144.545ZM155.49 410V401.336H156.402V404.984H160.962V401.336H161.874V410H160.962V405.896H156.402V410H155.49ZM165.973 410V402.248H163.237V401.336H169.621V402.248H166.885V410H165.973ZM177.378 410V403.616H176.922V402.248H177.378V401.336H178.29V410H177.378ZM170.994 410V401.336H171.906V402.248H172.362V403.616H171.906V410H170.994ZM173.73 408.632V407.72H173.274V406.352H172.818V404.984H172.362V403.616H173.274V404.984H173.73V406.352H174.186V407.72H175.098V406.352H175.554V404.984H176.01V403.616H176.922V404.984H176.466V406.352H176.01V407.72H175.554V408.632H175.098V409.544H174.186V408.632H173.73ZM180.111 410V401.336H181.023V409.088H185.583V410H180.111ZM191.514 409.088V408.176H191.058V405.44H191.514V404.528H191.97V404.072H192.426V403.616H195.162V404.072H195.618V404.528H196.074V405.44H196.53V408.176H196.074V409.088H195.618V409.544H195.162V410H192.426V409.544H191.97V409.088H191.514ZM194.706 409.088V408.632H195.162V408.176H195.618V405.44H195.162V404.984H194.706V404.528H192.882V404.984H192.426V405.44H191.97V408.176H192.426V408.632H192.882V409.088H194.706ZM197.9 409.088V403.616H198.812V408.632H199.268V409.088H201.092V409.544H200.636V410H198.812V409.544H198.356V409.088H197.9ZM201.548 410V409.088H201.092V408.632H201.548V403.616H202.46V410H201.548ZM204.743 409.088V404.528H203.831V403.616H204.743V402.248H205.655V403.616H207.479V404.528H205.655V409.088H207.479V410H205.655V409.544H205.199V409.088H204.743ZM210.214 409.544V409.088H212.494V408.632H212.95V408.176H213.406V405.44H212.95V404.984H212.494V404.528H210.214V404.072H210.67V403.616H212.95V404.072H213.406V404.528H213.862V404.984H214.318V408.632H213.862V409.088H213.406V409.544H212.95V410H210.67V409.544H210.214ZM209.758 409.088V411.824H208.846V403.616H209.758V404.528H210.214V405.44H209.758V408.176H210.214V409.088H209.758ZM215.689 409.088V403.616H216.601V408.632H217.057V409.088H218.881V409.544H218.425V410H216.601V409.544H216.145V409.088H215.689ZM219.337 410V409.088H218.881V408.632H219.337V403.616H220.249V410H219.337ZM222.532 409.088V404.528H221.62V403.616H222.532V402.248H223.444V403.616H225.268V404.528H223.444V409.088H225.268V410H223.444V409.544H222.988V409.088H222.532Z" fill="black"></path>
<path d="M120.488 588.808V585.084H119.956V584.02H119.424V583.488H118.892V582.956H115.168V590.936H118.892V590.404H119.424V589.872H119.956V588.808H120.488ZM114.104 592V581.892H118.892V582.424H119.956V582.956H120.488V584.02H121.02V585.084H121.552V588.808H121.02V589.872H120.488V590.936H119.956V591.468H118.892V592H114.104ZM124.206 586.68V587.744H128.462V586.68H127.93V586.148H127.398V585.616H125.27V586.148H124.738V586.68H124.206ZM123.674 590.936V589.872H123.142V586.68H123.674V585.616H124.206V585.084H124.738V584.552H127.93V585.084H128.462V585.616H128.994V586.68H129.526V588.808H124.206V589.872H124.738V590.404H125.27V590.936H127.93V590.404H128.462V589.872H129.526V590.936H128.994V591.468H127.93V592H124.738V591.468H124.206V590.936H123.674ZM132.722 591.468V590.936H135.382V590.404H135.914V589.872H136.446V586.68H135.914V586.148H135.382V585.616H132.722V585.084H133.254V584.552H135.914V585.084H136.446V585.616H136.978V586.148H137.51V590.404H136.978V590.936H136.446V591.468H135.914V592H133.254V591.468H132.722ZM132.19 590.936V594.128H131.126V584.552H132.19V585.616H132.722V586.68H132.19V589.872H132.722V590.936H132.19ZM138.578 592V590.936H140.174V582.956H138.578V581.892H140.174V582.424H140.706V582.956H141.238V590.936H142.834V592H138.578ZM144.428 590.936V589.872H143.896V586.68H144.428V585.616H144.96V585.084H145.492V584.552H148.684V585.084H149.216V585.616H149.748V586.68H150.28V589.872H149.748V590.936H149.216V591.468H148.684V592H145.492V591.468H144.96V590.936H144.428ZM148.152 590.936V590.404H148.684V589.872H149.216V586.68H148.684V586.148H148.152V585.616H146.024V586.148H145.492V586.68H144.96V589.872H145.492V590.404H146.024V590.936H148.152ZM152.943 590.936V589.34H152.411V587.744H151.879V586.148H151.347V584.552H152.411V586.148H152.943V587.744H153.475V589.34H154.007V590.936H155.071V589.34H155.603V587.744H156.135V586.148H156.667V584.552H157.731V586.148H157.199V587.744H156.667V589.34H156.135V590.936H155.603V592H155.071V593.064H154.539V593.596H154.007V594.128H151.879V593.064H154.007V592H153.475V590.936H152.943ZM164.117 590.936V589.872H165.181V590.404H165.713V590.936H168.905V589.34H167.841V588.808H165.713V588.276H164.649V587.212H164.117V586.148H164.649V585.084H165.181V584.552H168.905V585.084H169.437V585.616H169.969V586.68H168.905V585.616H165.713V586.148H165.181V587.212H165.713V587.744H167.841V588.276H169.437V588.808H169.969V590.936H169.437V591.468H168.905V592H165.181V591.468H164.649V590.936H164.117ZM171.567 590.936V589.872H171.035V586.68H171.567V585.616H172.099V585.084H172.631V584.552H175.823V585.084H176.355V585.616H176.887V586.148H177.419V587.212H176.355V586.68H175.823V586.148H175.291V585.616H173.163V586.148H172.631V586.68H172.099V589.872H172.631V590.404H173.163V590.936H175.291V590.404H175.823V589.872H176.355V589.34H177.419V590.404H176.887V590.936H176.355V591.468H175.823V592H172.631V591.468H172.099V590.936H171.567ZM181.678 585.616V585.084H182.21V584.552H183.806V585.616H181.678ZM179.018 592V590.936H180.082V585.616H179.018V584.552H181.146V585.616H181.678V586.148H181.146V590.936H182.742V592H179.018ZM184.871 592V590.936H186.467V585.616H184.871V584.552H187.531V590.936H189.127V592H184.871ZM186.467 583.488V581.892H187.531V583.488H186.467ZM192.317 591.468V590.936H194.977V590.404H195.509V589.872H196.041V586.68H195.509V586.148H194.977V585.616H192.317V585.084H192.849V584.552H195.509V585.084H196.041V585.616H196.573V586.148H197.105V590.404H196.573V590.936H196.041V591.468H195.509V592H192.849V591.468H192.317ZM191.785 590.936V594.128H190.721V584.552H191.785V585.616H192.317V586.68H191.785V589.872H192.317V590.936H191.785ZM199.238 590.936V585.616H198.174V584.552H199.238V582.956H200.302V584.552H202.43V585.616H200.302V590.936H202.43V592H200.302V591.468H199.77V590.936H199.238Z" fill="black"></path>
<path d="M83.6906 609.264V606.072H83.2346V605.16H82.7786V604.704H82.3226V604.248H79.1306V611.088H82.3226V610.632H82.7786V610.176H83.2346V609.264H83.6906ZM78.2186 612V603.336H82.3226V603.792H83.2346V604.248H83.6906V605.16H84.1466V606.072H84.6026V609.264H84.1466V610.176H83.6906V611.088H83.2346V611.544H82.3226V612H78.2186ZM85.9658 612V611.088H87.3338V606.528H85.9658V605.616H88.2458V611.088H89.6138V612H85.9658ZM87.3338 604.704V603.336H88.2458V604.704H87.3338ZM90.5244 611.088V610.176H91.4364V610.632H91.8924V611.088H94.6284V609.72H93.7164V609.264H91.8924V608.808H90.9804V607.896H90.5244V606.984H90.9804V606.072H91.4364V605.616H94.6284V606.072H95.0844V606.528H95.5404V607.44H94.6284V606.528H91.8924V606.984H91.4364V607.896H91.8924V608.352H93.7164V608.808H95.0844V609.264H95.5404V611.088H95.0844V611.544H94.6284V612H91.4364V611.544H90.9804V611.088H90.5244ZM98.278 611.544V611.088H100.558V610.632H101.014V610.176H101.47V607.44H101.014V606.984H100.558V606.528H98.278V606.072H98.734V605.616H101.014V606.072H101.47V606.528H101.926V606.984H102.382V610.632H101.926V611.088H101.47V611.544H101.014V612H98.734V611.544H98.278ZM97.822 611.088V613.824H96.91V605.616H97.822V606.528H98.278V607.44H97.822V610.176H98.278V611.088H97.822ZM103.754 611.088V610.176H103.298V607.44H103.754V606.528H104.21V606.072H104.666V605.616H107.402V606.072H107.858V606.528H108.314V607.44H108.77V610.176H108.314V611.088H107.858V611.544H107.402V612H104.666V611.544H104.21V611.088H103.754ZM106.946 611.088V610.632H107.402V610.176H107.858V607.44H107.402V606.984H106.946V606.528H105.122V606.984H104.666V607.44H104.21V610.176H104.666V610.632H105.122V611.088H106.946ZM109.685 611.088V610.176H110.597V610.632H111.053V611.088H113.789V609.72H112.877V609.264H111.053V608.808H110.141V607.896H109.685V606.984H110.141V606.072H110.597V605.616H113.789V606.072H114.245V606.528H114.701V607.44H113.789V606.528H111.053V606.984H110.597V607.896H111.053V608.352H112.877V608.808H114.245V609.264H114.701V611.088H114.245V611.544H113.789V612H110.597V611.544H110.141V611.088H109.685ZM116.07 611.088V609.264H116.526V608.808H117.438V608.352H119.718V607.896H120.174V606.984H119.718V606.528H117.438V606.984H116.982V607.44H116.07V606.528H116.526V606.072H117.438V605.616H119.718V606.072H120.63V606.984H121.086V611.088H121.542V612H120.63V611.544H120.174V611.088H119.718V610.632H120.174V608.808H119.718V609.264H117.438V609.72H116.982V611.088H119.718V611.544H119.262V612H116.982V611.544H116.526V611.088H116.07ZM122.914 612V603.336H123.826V606.528H124.282V607.44H123.826V610.176H124.282V611.088H123.826V612H122.914ZM124.282 611.544V611.088H126.562V610.632H127.018V610.176H127.474V607.44H127.018V606.984H126.562V606.528H124.282V606.072H124.738V605.616H127.018V606.072H127.474V606.528H127.93V607.44H128.386V610.176H127.93V611.088H127.474V611.544H127.018V612H124.738V611.544H124.282ZM129.302 612V611.088H130.67V604.248H129.302V603.336H130.67V603.792H131.126V604.248H131.582V611.088H132.95V612H129.302ZM134.772 607.44V608.352H138.42V607.44H137.964V606.984H137.508V606.528H135.684V606.984H135.228V607.44H134.772ZM134.316 611.088V610.176H133.86V607.44H134.316V606.528H134.772V606.072H135.228V605.616H137.964V606.072H138.42V606.528H138.876V607.44H139.332V609.264H134.772V610.176H135.228V610.632H135.684V611.088H137.964V610.632H138.42V610.176H139.332V611.088H138.876V611.544H137.964V612H135.228V611.544H134.772V611.088H134.316ZM145.718 610.632V610.176H145.262V606.984H145.718V606.528H146.174V606.072H146.63V605.616H148.91V606.072H149.366V606.528H147.086V606.984H146.63V607.44H146.174V609.72H146.63V610.176H147.086V610.632H149.366V611.088H148.91V611.544H146.63V611.088H146.174V610.632H145.718ZM145.262 612.912V612H146.174V612.456H146.63V612.912H149.366V612.456H149.822V610.632H149.366V609.72H149.822V607.44H149.366V606.528H149.822V605.616H150.734V612.912H150.278V613.368H149.366V613.824H146.63V613.368H145.718V612.912H145.262ZM152.562 612V603.336H153.474V606.528H153.93V606.984H153.474V612H152.562ZM156.666 612V606.984H156.21V606.528H153.93V606.072H154.386V605.616H156.666V606.072H157.122V606.528H157.578V612H156.666ZM158.95 608.808V607.896H162.598V608.808H158.95ZM165.333 611.544V611.088H167.613V610.632H168.069V610.176H168.525V607.44H168.069V606.984H167.613V606.528H165.333V606.072H165.789V605.616H168.069V606.072H168.525V606.528H168.981V606.984H169.437V610.632H168.981V611.088H168.525V611.544H168.069V612H165.789V611.544H165.333ZM164.877 611.088V613.824H163.965V605.616H164.877V606.528H165.333V607.44H164.877V610.176H165.333V611.088H164.877ZM170.808 611.088V609.264H171.264V608.808H172.176V608.352H174.456V607.896H174.912V606.984H174.456V606.528H172.176V606.984H171.72V607.44H170.808V606.528H171.264V606.072H172.176V605.616H174.456V606.072H175.368V606.984H175.824V611.088H176.28V612H175.368V611.544H174.912V611.088H174.456V610.632H174.912V608.808H174.456V609.264H172.176V609.72H171.72V611.088H174.456V611.544H174V612H171.72V611.544H171.264V611.088H170.808ZM178.108 610.632V610.176H177.652V606.984H178.108V606.528H178.564V606.072H179.02V605.616H181.3V606.072H181.756V606.528H179.476V606.984H179.02V607.44H178.564V609.72H179.02V610.176H179.476V610.632H181.756V611.088H181.3V611.544H179.02V611.088H178.564V610.632H178.108ZM177.652 612.912V612H178.564V612.456H179.02V612.912H181.756V612.456H182.212V610.632H181.756V609.72H182.212V607.44H181.756V606.528H182.212V605.616H183.124V612.912H182.668V613.368H181.756V613.824H179.02V613.368H178.108V612.912H177.652ZM185.409 607.44V608.352H189.057V607.44H188.601V606.984H188.145V606.528H186.321V606.984H185.865V607.44H185.409ZM184.953 611.088V610.176H184.497V607.44H184.953V606.528H185.409V606.072H185.865V605.616H188.601V606.072H189.057V606.528H189.513V607.44H189.969V609.264H185.409V610.176H185.865V610.632H186.321V611.088H188.601V610.632H189.057V610.176H189.969V611.088H189.513V611.544H188.601V612H185.865V611.544H185.409V611.088H184.953ZM190.884 611.088V610.176H191.796V610.632H192.252V611.088H194.988V609.72H194.076V609.264H192.252V608.808H191.34V607.896H190.884V606.984H191.34V606.072H191.796V605.616H194.988V606.072H195.444V606.528H195.9V607.44H194.988V606.528H192.252V606.984H191.796V607.896H192.252V608.352H194.076V608.808H195.444V609.264H195.9V611.088H195.444V611.544H194.988V612H191.796V611.544H191.34V611.088H190.884ZM201.828 612V603.336H202.74V606.528H203.196V607.44H202.74V610.176H203.196V611.088H202.74V612H201.828ZM203.196 611.544V611.088H205.476V610.632H205.932V610.176H206.388V607.44H205.932V606.984H205.476V606.528H203.196V606.072H203.652V605.616H205.932V606.072H206.388V606.528H206.844V607.44H207.3V610.176H206.844V611.088H206.388V611.544H205.932V612H203.652V611.544H203.196ZM210.952 606.528V606.072H211.408V605.616H212.776V606.528H210.952ZM208.672 612V611.088H209.584V606.528H208.672V605.616H210.496V606.528H210.952V606.984H210.496V611.088H211.864V612H208.672ZM213.687 611.088V609.264H214.143V608.808H215.055V608.352H217.335V607.896H217.791V606.984H217.335V606.528H215.055V606.984H214.599V607.44H213.687V606.528H214.143V606.072H215.055V605.616H217.335V606.072H218.247V606.984H218.703V611.088H219.159V612H218.247V611.544H217.791V611.088H217.335V610.632H217.791V608.808H217.335V609.264H215.055V609.72H214.599V611.088H217.335V611.544H216.879V612H214.599V611.544H214.143V611.088H213.687ZM220.531 612V605.616H221.443V606.528H221.899V606.984H221.443V612H220.531ZM224.635 612V606.984H224.179V606.528H221.899V606.072H222.355V605.616H224.635V606.072H225.091V606.528H225.547V612H224.635ZM227.375 611.088V610.176H226.919V607.44H227.375V606.528H227.831V606.072H228.287V605.616H231.023V606.072H231.479V606.528H231.935V606.984H232.391V607.896H231.479V607.44H231.023V606.984H230.567V606.528H228.743V606.984H228.287V607.44H227.831V610.176H228.287V610.632H228.743V611.088H230.567V610.632H231.023V610.176H231.479V609.72H232.391V610.632H231.935V611.088H231.479V611.544H231.023V612H228.287V611.544H227.831V611.088H227.375ZM233.762 612V603.336H234.674V606.528H235.13V606.984H234.674V612H233.762ZM237.866 612V606.984H237.41V606.528H235.13V606.072H235.586V605.616H237.866V606.072H238.322V606.528H238.778V612H237.866Z" fill="black"></path>
<path d="M400.636 590.936V589.872H400.104V588.808H399.572V585.084H400.104V584.02H400.636V582.956H401.168V582.424H402.232V581.892H405.956V582.424H407.02V582.956H407.552V584.02H408.084V585.084H407.02V584.02H406.488V583.488H405.956V582.956H402.232V583.488H401.7V584.02H401.168V585.084H400.636V588.808H401.168V589.872H401.7V590.404H402.232V590.936H406.488V591.468H405.956V592H402.232V591.468H401.168V590.936H400.636ZM403.828 588.276V587.212H408.084V592H407.02V590.936H406.488V590.404H407.02V588.276H403.828ZM409.142 592V590.936H410.738V585.616H409.142V584.552H411.802V590.936H413.398V592H409.142ZM410.738 583.488V581.892H411.802V583.488H410.738ZM415.525 590.936V585.616H414.461V584.552H415.525V582.956H416.589V584.552H418.717V585.616H416.589V590.936H418.717V592H416.589V591.468H416.057V590.936H415.525ZM420.311 592V581.892H421.375V586.148H426.695V581.892H427.759V592H426.695V587.212H421.375V592H420.311ZM429.881 590.936V584.552H430.945V590.404H431.477V590.936H433.605V591.468H433.073V592H430.945V591.468H430.413V590.936H429.881ZM434.137 592V590.936H433.605V590.404H434.137V584.552H435.201V592H434.137ZM437.333 592V581.892H438.397V585.616H438.929V586.68H438.397V589.872H438.929V590.936H438.397V592H437.333ZM438.929 591.468V590.936H441.589V590.404H442.121V589.872H442.653V586.68H442.121V586.148H441.589V585.616H438.929V585.084H439.461V584.552H442.121V585.084H442.653V585.616H443.185V586.68H443.717V589.872H443.185V590.936H442.653V591.468H442.121V592H439.461V591.468H438.929ZM450.635 592V581.892H455.423V582.424H456.487V582.956H457.019V584.02H457.551V585.616H457.019V586.68H456.487V587.212H455.423V587.744H451.699V592H450.635ZM455.955 586.148V585.616H456.487V584.02H455.955V583.488H455.423V582.956H451.699V586.68H455.423V586.148H455.955ZM459.153 590.936V588.808H459.685V588.276H460.749V587.744H463.409V587.212H463.941V586.148H463.409V585.616H460.749V586.148H460.217V586.68H459.153V585.616H459.685V585.084H460.749V584.552H463.409V585.084H464.473V586.148H465.005V590.936H465.537V592H464.473V591.468H463.941V590.936H463.409V590.404H463.941V588.276H463.409V588.808H460.749V589.34H460.217V590.936H463.409V591.468H462.877V592H460.217V591.468H459.685V590.936H459.153ZM467.669 590.404V589.872H467.137V586.148H467.669V585.616H468.201V585.084H468.733V584.552H471.393V585.084H471.925V585.616H469.265V586.148H468.733V586.68H468.201V589.34H468.733V589.872H469.265V590.404H471.925V590.936H471.393V591.468H468.733V590.936H468.201V590.404H467.669ZM467.137 593.064V592H468.201V592.532H468.733V593.064H471.925V592.532H472.457V590.404H471.925V589.34H472.457V586.68H471.925V585.616H472.457V584.552H473.521V593.064H472.989V593.596H471.925V594.128H468.733V593.596H467.669V593.064H467.137ZM476.187 586.68V587.744H480.443V586.68H479.911V586.148H479.379V585.616H477.251V586.148H476.719V586.68H476.187ZM475.655 590.936V589.872H475.123V586.68H475.655V585.616H476.187V585.084H476.719V584.552H479.911V585.084H480.443V585.616H480.975V586.68H481.507V588.808H476.187V589.872H476.719V590.404H477.251V590.936H479.911V590.404H480.443V589.872H481.507V590.936H480.975V591.468H479.911V592H476.719V591.468H476.187V590.936H475.655ZM482.574 590.936V589.872H483.638V590.404H484.17V590.936H487.362V589.34H486.298V588.808H484.17V588.276H483.106V587.212H482.574V586.148H483.106V585.084H483.638V584.552H487.362V585.084H487.894V585.616H488.426V586.68H487.362V585.616H484.17V586.148H483.638V587.212H484.17V587.744H486.298V588.276H487.894V588.808H488.426V590.936H487.894V591.468H487.362V592H483.638V591.468H483.106V590.936H482.574Z" fill="black"></path>
<path d="M394.743 611.544V610.632H394.287V609.264H395.199V610.632H395.655V611.088H398.847V610.632H399.303V608.808H398.391V608.352H397.023V607.896H395.655V607.44H394.743V606.984H394.287V604.704H394.743V603.792H395.655V603.336H398.391V603.792H399.303V604.248H399.759V605.16H400.215V606.072H399.303V605.16H398.847V604.704H398.391V604.248H395.655V604.704H395.199V606.528H395.655V606.984H397.479V607.44H398.847V607.896H399.759V608.808H400.215V610.632H399.759V611.544H398.847V612H395.655V611.544H394.743ZM402.501 607.44V608.352H406.149V607.44H405.693V606.984H405.237V606.528H403.413V606.984H402.957V607.44H402.501ZM402.045 611.088V610.176H401.589V607.44H402.045V606.528H402.501V606.072H402.957V605.616H405.693V606.072H406.149V606.528H406.605V607.44H407.061V609.264H402.501V610.176H402.957V610.632H403.413V611.088H405.693V610.632H406.149V610.176H407.061V611.088H406.605V611.544H405.693V612H402.957V611.544H402.501V611.088H402.045ZM410.712 606.528V606.072H411.168V605.616H412.536V606.528H410.712ZM408.432 612V611.088H409.344V606.528H408.432V605.616H410.256V606.528H410.712V606.984H410.256V611.088H411.624V612H408.432ZM414.816 611.088V610.176H414.36V608.808H413.904V607.44H413.448V605.616H414.36V607.44H414.816V608.808H415.272V610.176H415.728V611.088H416.184V610.176H416.64V608.808H417.096V607.44H417.552V605.616H418.464V607.44H418.008V608.808H417.552V610.176H417.096V611.088H416.64V612H415.272V611.088H414.816ZM420.29 607.44V608.352H423.938V607.44H423.482V606.984H423.026V606.528H421.202V606.984H420.746V607.44H420.29ZM419.834 611.088V610.176H419.378V607.44H419.834V606.528H420.29V606.072H420.746V605.616H423.482V606.072H423.938V606.528H424.394V607.44H424.85V609.264H420.29V610.176H420.746V610.632H421.202V611.088H423.482V610.632H423.938V610.176H424.85V611.088H424.394V611.544H423.482V612H420.746V611.544H420.29V611.088H419.834ZM425.765 611.088V610.176H426.677V610.632H427.133V611.088H429.869V609.72H428.957V609.264H427.133V608.808H426.221V607.896H425.765V606.984H426.221V606.072H426.677V605.616H429.869V606.072H430.325V606.528H430.781V607.44H429.869V606.528H427.133V606.984H426.677V607.896H427.133V608.352H428.957V608.808H430.325V609.264H430.781V611.088H430.325V611.544H429.869V612H426.677V611.544H426.221V611.088H425.765ZM436.253 611.088V610.176H437.165V610.632H437.621V611.088H440.357V609.72H439.445V609.264H437.621V608.808H436.709V607.896H436.253V606.984H436.709V606.072H437.165V605.616H440.357V606.072H440.813V606.528H441.269V607.44H440.357V606.528H437.621V606.984H437.165V607.896H437.621V608.352H439.445V608.808H440.813V609.264H441.269V611.088H440.813V611.544H440.357V612H437.165V611.544H436.709V611.088H436.253ZM443.095 611.088V606.528H442.183V605.616H443.095V604.248H444.007V605.616H445.831V606.528H444.007V611.088H445.831V612H444.007V611.544H443.551V611.088H443.095ZM447.197 611.088V609.264H447.653V608.808H448.565V608.352H450.845V607.896H451.301V606.984H450.845V606.528H448.565V606.984H448.109V607.44H447.197V606.528H447.653V606.072H448.565V605.616H450.845V606.072H451.757V606.984H452.213V611.088H452.669V612H451.757V611.544H451.301V611.088H450.845V610.632H451.301V608.808H450.845V609.264H448.565V609.72H448.109V611.088H450.845V611.544H450.389V612H448.109V611.544H447.653V611.088H447.197ZM454.497 611.088V606.528H453.585V605.616H454.497V604.248H455.409V605.616H457.233V606.528H455.409V611.088H457.233V612H455.409V611.544H454.953V611.088H454.497ZM458.144 612V611.088H459.512V606.528H458.144V605.616H460.424V611.088H461.792V612H458.144ZM459.512 604.704V603.336H460.424V604.704H459.512ZM463.158 611.088V610.176H462.702V607.44H463.158V606.528H463.614V606.072H464.07V605.616H466.806V606.072H467.262V606.528H467.718V606.984H468.174V607.896H467.262V607.44H466.806V606.984H466.35V606.528H464.526V606.984H464.07V607.44H463.614V610.176H464.07V610.632H464.526V611.088H466.35V610.632H466.806V610.176H467.262V609.72H468.174V610.632H467.718V611.088H467.262V611.544H466.806V612H464.07V611.544H463.614V611.088H463.158ZM473.647 611.088V610.176H474.559V610.632H475.015V611.088H477.751V609.72H476.839V609.264H475.015V608.808H474.103V607.896H473.647V606.984H474.103V606.072H474.559V605.616H477.751V606.072H478.207V606.528H478.663V607.44H477.751V606.528H475.015V606.984H474.559V607.896H475.015V608.352H476.839V608.808H478.207V609.264H478.663V611.088H478.207V611.544H477.751V612H474.559V611.544H474.103V611.088H473.647ZM479.577 612V611.088H480.945V606.528H479.577V605.616H481.857V611.088H483.225V612H479.577ZM480.945 604.704V603.336H481.857V604.704H480.945ZM485.048 611.088V606.528H484.136V605.616H485.048V604.248H485.96V605.616H487.784V606.528H485.96V611.088H487.784V612H485.96V611.544H485.504V611.088H485.048ZM489.606 607.44V608.352H493.254V607.44H492.798V606.984H492.342V606.528H490.518V606.984H490.062V607.44H489.606ZM489.15 611.088V610.176H488.694V607.44H489.15V606.528H489.606V606.072H490.062V605.616H492.798V606.072H493.254V606.528H493.71V607.44H494.166V609.264H489.606V610.176H490.062V610.632H490.518V611.088H492.798V610.632H493.254V610.176H494.166V611.088H493.71V611.544H492.798V612H490.062V611.544H489.606V611.088H489.15Z" fill="black"></path>
</svg>
