<svg width="602" height="657" viewBox="0 0 602 657" fill="none" xmlns="http://www.w3.org/2000/svg">
<g clip-path="url(#clip0_63_205)">
<path d="M6.89453 11L6.16211 8.57422H3.2207L2.48242 11H1.43359L4.1582 2.54492H5.25977L7.98438 11H6.89453ZM4.67969 3.78711L3.49023 7.68945H5.89258L4.70898 3.78711H4.67969ZM12.127 10.1973C13.3574 10.1973 14.0723 9.38867 14.0723 8V2.54492H15.1035V8.06445C15.1035 10.0098 13.9902 11.1758 12.127 11.1758C10.2637 11.1758 9.15039 10.0098 9.15039 8.06445V2.54492H10.1816V8C10.1816 9.38867 10.8965 10.1973 12.127 10.1973ZM20.0605 11H19.0293V3.49414H16.4746V2.54492H22.6152V3.49414H20.0605V11ZM29.7754 11H28.75V7.15625H25.1758V11H24.1504V2.54492H25.1758V6.20703H28.75V2.54492H29.7754V11ZM37.4805 7.45508C37.4805 9.79297 36.3027 11.1758 34.3809 11.1758C32.459 11.1758 31.2812 9.79297 31.2812 7.45508V6.08984C31.2812 3.75195 32.459 2.36914 34.3809 2.36914C36.3027 2.36914 37.4805 3.75195 37.4805 6.08984V7.45508ZM34.3809 10.1973C35.6641 10.1973 36.4375 9.21289 36.4375 7.44922V6.0957C36.4375 4.33203 35.6641 3.34766 34.3809 3.34766C33.0977 3.34766 32.3242 4.33203 32.3242 6.0957V7.44922C32.3242 9.21289 33.0977 10.1973 34.3809 10.1973ZM42.1211 7.63086H40.1758V11H39.1562V2.54492H41.9922C43.668 2.54492 44.7168 3.51758 44.7168 5.08789C44.7168 6.19531 44.1016 7.10352 43.1406 7.41992L44.8633 11H43.6973L42.1211 7.63086ZM40.1758 3.46484V6.75781H41.8516C43.0176 6.75781 43.6738 6.16602 43.6738 5.11133C43.6738 4.0625 43.0293 3.46484 41.8984 3.46484H40.1758Z" fill="#3D3D3A"></path>
<path d="M585 26H17C8.16344 26 1 33.1634 1 42V130C1 138.837 8.16344 146 17 146H585C593.837 146 601 138.837 601 130V42C601 33.1634 593.837 26 585 26Z" fill="#EEEDFE" stroke="#534AB7" stroke-width="0.5"></path>
<path d="M268.228 52.9785V52.0146H265.951V50.9824H269.444V53.0811C269.444 54.9336 268.05 56.2051 266.061 56.2051C263.743 56.2051 262.403 54.6465 262.403 51.9463V50.1895C262.403 47.4893 263.743 45.9307 266.061 45.9307C268.111 45.9307 269.396 47.1816 269.444 49.2256H268.228C268.173 47.9404 267.298 47.0723 266.04 47.0723C264.447 47.0723 263.62 48.1455 263.62 50.1895V51.9463C263.62 53.9902 264.454 55.0635 266.047 55.0635C267.394 55.0635 268.228 54.2705 268.228 52.9785ZM271.495 56V45.6709H272.616V49.8955H272.712C273.102 48.9727 273.956 48.4531 275.091 48.4531C276.704 48.4531 277.579 49.4238 277.579 51.1943V56H276.417V51.4883C276.417 50.1553 275.87 49.5195 274.708 49.5195C273.484 49.5195 272.657 50.374 272.657 51.6387V56H271.495ZM283.191 56.1367C281.229 56.1367 279.979 54.8584 279.979 52.8555V51.7344C279.979 49.7314 281.229 48.4531 283.191 48.4531C285.153 48.4531 286.404 49.7314 286.404 51.7344V52.8555C286.404 54.8584 285.153 56.1367 283.191 56.1367ZM283.191 49.4785C281.92 49.4785 281.127 50.3809 281.127 51.8369V52.7461C281.127 54.209 281.92 55.1045 283.191 55.1045C284.463 55.1045 285.256 54.209 285.256 52.7461V51.8369C285.256 50.3809 284.463 49.4785 283.191 49.4785ZM289.146 50.5859C289.146 49.3008 290.239 48.4395 291.873 48.4395C293.418 48.4395 294.464 49.2119 294.601 50.4492H293.479C293.343 49.7998 292.721 49.4033 291.853 49.4033C290.909 49.4033 290.301 49.8408 290.301 50.5176C290.301 51.085 290.684 51.4062 291.613 51.6113L292.659 51.8506C294.102 52.1787 294.758 52.8076 294.758 53.8809C294.758 55.248 293.616 56.1367 291.859 56.1367C290.178 56.1367 289.063 55.3506 288.934 54.0791H290.116C290.287 54.7627 290.943 55.1592 291.9 55.1592C292.912 55.1592 293.555 54.7012 293.555 53.9902C293.555 53.4023 293.192 53.0879 292.249 52.876L291.148 52.623C289.809 52.3154 289.146 51.6387 289.146 50.5859ZM299.235 46.5938H300.384V48.6035H303.392V49.5947H300.397V53.7783C300.397 54.585 300.965 55.0225 302.011 55.0225C302.428 55.0225 303.173 55.002 303.371 54.9814V55.9658C303.187 56 302.284 56.0342 301.929 56.0342C300.09 56.0342 299.235 55.3369 299.235 53.792V49.5947H297.26V48.6035H299.235V46.5938ZM318.034 55.0635C319.347 55.0635 320.181 54.2773 320.215 53.0059H321.432C321.432 54.9131 320.051 56.2051 318.034 56.2051C315.717 56.2051 314.37 54.6396 314.37 51.9463V50.1895C314.37 47.4961 315.717 45.9307 318.034 45.9307C320.112 45.9307 321.397 47.1953 321.438 49.3008H320.215C320.174 47.9678 319.292 47.0723 318.027 47.0723C316.435 47.0723 315.601 48.1455 315.601 50.1895V51.9463C315.601 53.9902 316.435 55.0635 318.034 55.0635ZM323.981 52.2129V56H322.908V46.1357H324.255L326.422 52.2607H326.511L328.664 46.1357H330.018V56H328.944V52.2129L329.006 48.2207H328.917L326.935 53.6826H325.991L324.009 48.2207H323.92L323.981 52.2129ZM331.74 53.375H332.916C333.039 54.4551 333.907 55.1113 335.22 55.1113C336.532 55.1113 337.394 54.4277 337.394 53.3682C337.394 52.5137 336.819 52.001 335.486 51.6729L334.639 51.4609C332.807 50.9961 331.979 50.1279 331.979 48.6992C331.979 47.0176 333.244 45.9307 335.213 45.9307C337.072 45.9307 338.351 47.0039 338.433 48.6445H337.257C337.134 47.626 336.382 47.0244 335.22 47.0244C333.955 47.0244 333.196 47.626 333.196 48.6309C333.196 49.4854 333.743 49.9775 335.028 50.2988L335.89 50.5176C337.804 50.9893 338.61 51.8232 338.61 53.3066C338.61 55.0771 337.277 56.2051 335.213 56.2051C333.176 56.2051 331.843 55.125 331.74 53.375Z" fill="#3C3489"></path>
<path d="M185 76H41C36.5817 76 33 79.5817 33 84V112C33 116.418 36.5817 120 41 120H185C189.418 120 193 116.418 193 112V84C193 79.5817 189.418 76 185 76Z" fill="#EEEDFE" stroke="#534AB7" stroke-width="0.5"></path>
<path d="M67.9707 99.8926V101H62.1465V91.1357H67.9707V92.2432H63.3564V95.4424H67.7178V96.502H63.3564V99.8926H67.9707ZM73.0908 101.123C71.375 101.123 70.2539 99.8857 70.2539 97.9785V96.5977C70.2539 94.6973 71.375 93.46 73.0908 93.46C74.1641 93.46 74.957 93.918 75.2783 94.7314H75.4014V90.6709H76.584V101H75.4424V99.8652H75.3125C74.9297 100.686 74.1504 101.123 73.0908 101.123ZM73.4326 100.063C74.6494 100.063 75.4355 99.1885 75.4355 97.8145V96.748C75.4355 95.3809 74.6494 94.5059 73.4326 94.5059C72.209 94.5059 71.4229 95.3809 71.4229 96.748V97.8145C71.4229 99.1816 72.209 100.063 73.4326 100.063ZM82.3398 91.7646C81.793 91.7646 81.376 91.3545 81.376 90.8076C81.376 90.2676 81.793 89.8574 82.3398 89.8574C82.8867 89.8574 83.3037 90.2676 83.3037 90.8076C83.3037 91.3545 82.8867 91.7646 82.3398 91.7646ZM85.4502 101H79.3047V100.036H81.8477V94.5469H79.3252V93.583H82.9961V100.036H85.4502V101ZM89.5996 91.5938H90.748V93.6035H93.7559V94.5947H90.7617V98.7783C90.7617 99.585 91.3291 100.022 92.375 100.022C92.792 100.022 93.5371 100.002 93.7354 99.9814V100.966C93.5508 101 92.6484 101.034 92.293 101.034C90.4541 101.034 89.5996 100.337 89.5996 98.792V94.5947H87.624V93.6035H89.5996V91.5938ZM111.263 95.8936H110.114C109.971 95.0254 109.246 94.4785 108.289 94.4785C106.997 94.4785 106.279 95.3604 106.279 96.9531V97.623C106.279 99.2158 106.997 100.091 108.289 100.091C109.246 100.091 109.971 99.5508 110.114 98.7031H111.263C111.078 100.214 109.95 101.137 108.31 101.137C106.293 101.137 105.117 99.8994 105.117 97.7734V96.8027C105.117 94.6768 106.293 93.4395 108.31 93.4395C109.95 93.4395 111.071 94.3691 111.263 95.8936ZM116.827 101.137C114.865 101.137 113.614 99.8584 113.614 97.8555V96.7344C113.614 94.7314 114.865 93.4531 116.827 93.4531C118.789 93.4531 120.04 94.7314 120.04 96.7344V97.8555C120.04 99.8584 118.789 101.137 116.827 101.137ZM116.827 94.4785C115.556 94.4785 114.763 95.3809 114.763 96.8369V97.7461C114.763 99.209 115.556 100.104 116.827 100.104C118.099 100.104 118.892 99.209 118.892 97.7461V96.8369C118.892 95.3809 118.099 94.4785 116.827 94.4785ZM122.446 101V93.583H123.561V94.8887H123.656C124.053 93.9658 124.9 93.4463 126.028 93.4463C127.642 93.4463 128.517 94.4102 128.517 96.1875V101H127.354V96.4814C127.354 95.1416 126.808 94.5127 125.652 94.5127C124.429 94.5127 123.608 95.3672 123.608 96.6318V101H122.446ZM132.871 91.5938H134.02V93.6035H137.027V94.5947H134.033V98.7783C134.033 99.585 134.601 100.022 135.646 100.022C136.063 100.022 136.809 100.002 137.007 99.9814V100.966C136.822 101 135.92 101.034 135.564 101.034C133.726 101.034 132.871 100.337 132.871 98.792V94.5947H130.896V93.6035H132.871V91.5938ZM144.793 99.0859H145.921C145.695 100.31 144.52 101.137 142.961 101.137C140.924 101.137 139.741 99.9131 139.741 97.8008V96.6865C139.741 94.7314 140.992 93.4463 142.879 93.4463C144.807 93.4463 145.941 94.7246 145.941 96.8711V97.5957H140.89V97.8965C140.89 99.2568 141.696 100.132 142.961 100.132C143.897 100.132 144.588 99.7354 144.793 99.0859ZM142.872 94.4443C141.635 94.4443 140.89 95.292 140.89 96.7139H144.793C144.793 95.2988 144.068 94.4443 142.872 94.4443ZM148.409 101V93.583H149.523V94.8887H149.619C150.016 93.9658 150.863 93.4463 151.991 93.4463C153.604 93.4463 154.479 94.4102 154.479 96.1875V101H153.317V96.4814C153.317 95.1416 152.771 94.5127 151.615 94.5127C150.392 94.5127 149.571 95.3672 149.571 96.6318V101H148.409ZM158.834 91.5938H159.982V93.6035H162.99V94.5947H159.996V98.7783C159.996 99.585 160.563 100.022 161.609 100.022C162.026 100.022 162.771 100.002 162.97 99.9814V100.966C162.785 101 161.883 101.034 161.527 101.034C159.688 101.034 158.834 100.337 158.834 98.792V94.5947H156.858V93.6035H158.834V91.5938Z" fill="#3C3489"></path>
<path d="M373 76H229C224.582 76 221 79.5817 221 84V112C221 116.418 224.582 120 229 120H373C377.418 120 381 116.418 381 112V84C381 79.5817 377.418 76 373 76Z" fill="#EEEDFE" stroke="#534AB7" stroke-width="0.5"></path>
<path d="M268.933 101L268.078 98.1699H264.646L263.785 101H262.562L265.74 91.1357H267.025L270.204 101H268.933ZM266.349 92.585L264.961 97.1377H267.764L266.383 92.585H266.349ZM274.572 101.123C272.856 101.123 271.735 99.8857 271.735 97.9785V96.5977C271.735 94.6973 272.856 93.46 274.572 93.46C275.646 93.46 276.438 93.918 276.76 94.7314H276.883V90.6709H278.065V101H276.924V99.8652H276.794C276.411 100.686 275.632 101.123 274.572 101.123ZM274.914 100.063C276.131 100.063 276.917 99.1885 276.917 97.8145V96.748C276.917 95.3809 276.131 94.5059 274.914 94.5059C273.69 94.5059 272.904 95.3809 272.904 96.748V97.8145C272.904 99.1816 273.69 100.063 274.914 100.063ZM283.227 101.123C281.511 101.123 280.39 99.8857 280.39 97.9785V96.5977C280.39 94.6973 281.511 93.46 283.227 93.46C284.3 93.46 285.093 93.918 285.414 94.7314H285.537V90.6709H286.72V101H285.578V99.8652H285.448C285.065 100.686 284.286 101.123 283.227 101.123ZM283.568 100.063C284.785 100.063 285.571 99.1885 285.571 97.8145V96.748C285.571 95.3809 284.785 94.5059 283.568 94.5059C282.345 94.5059 281.559 95.3809 281.559 96.748V97.8145C281.559 99.1816 282.345 100.063 283.568 100.063ZM304.575 95.5381V101H303.529V95.8799C303.529 94.9775 303.201 94.5059 302.579 94.5059C301.93 94.5059 301.533 95.0732 301.533 95.9961V101H300.494V95.873C300.494 94.9775 300.166 94.5059 299.537 94.5059C298.881 94.5059 298.471 95.0732 298.471 95.9961V101H297.425V93.583H298.464V94.6289H298.587C298.771 93.8838 299.305 93.4463 300.002 93.4463C300.699 93.4463 301.191 93.877 301.349 94.6084H301.472C301.663 93.8975 302.258 93.4463 303.003 93.4463C304.035 93.4463 304.575 94.1641 304.575 95.5381ZM311.657 99.0859H312.785C312.56 100.31 311.384 101.137 309.825 101.137C307.788 101.137 306.605 99.9131 306.605 97.8008V96.6865C306.605 94.7314 307.856 93.4463 309.743 93.4463C311.671 93.4463 312.806 94.7246 312.806 96.8711V97.5957H307.754V97.8965C307.754 99.2568 308.561 100.132 309.825 100.132C310.762 100.132 311.452 99.7354 311.657 99.0859ZM309.736 94.4443C308.499 94.4443 307.754 95.292 307.754 96.7139H311.657C311.657 95.2988 310.933 94.4443 309.736 94.4443ZM317.844 101.123C316.128 101.123 315.007 99.8857 315.007 97.9785V96.5977C315.007 94.6973 316.128 93.46 317.844 93.46C318.917 93.46 319.71 93.918 320.031 94.7314H320.154V90.6709H321.337V101H320.195V99.8652H320.065C319.683 100.686 318.903 101.123 317.844 101.123ZM318.186 100.063C319.402 100.063 320.188 99.1885 320.188 97.8145V96.748C320.188 95.3809 319.402 94.5059 318.186 94.5059C316.962 94.5059 316.176 95.3809 316.176 96.748V97.8145C316.176 99.1816 316.962 100.063 318.186 100.063ZM327.093 91.7646C326.546 91.7646 326.129 91.3545 326.129 90.8076C326.129 90.2676 326.546 89.8574 327.093 89.8574C327.64 89.8574 328.057 90.2676 328.057 90.8076C328.057 91.3545 327.64 91.7646 327.093 91.7646ZM330.203 101H324.058V100.036H326.601V94.5469H324.078V93.583H327.749V100.036H330.203V101ZM334.865 101.13C333.45 101.13 332.507 100.241 332.507 98.8945C332.507 97.582 333.45 96.8027 335.139 96.7139L337.176 96.6113V95.9414C337.176 95.0117 336.608 94.499 335.576 94.499C334.722 94.499 334.12 94.8613 333.929 95.4971H332.787C332.924 94.3076 334.072 93.4941 335.59 93.4941C337.333 93.4941 338.331 94.3828 338.331 95.9277V101.007H337.224V99.8926H337.107C336.752 100.686 335.945 101.13 334.865 101.13ZM335.2 100.111C336.321 100.111 337.176 99.3662 337.176 98.375V97.5L335.269 97.5889C334.229 97.6367 333.683 98.0811 333.683 98.8535C333.683 99.6328 334.264 100.111 335.2 100.111Z" fill="#3C3489"></path>
<path d="M561 76H417C412.582 76 409 79.5817 409 84V112C409 116.418 412.582 120 417 120H561C565.418 120 569 116.418 569 112V84C569 79.5817 565.418 76 561 76Z" fill="#EEEDFE" stroke="#534AB7" stroke-width="0.5"></path>
<path d="M460.563 91.1357H463.845C465.759 91.1357 467.01 92.3867 467.01 94.3008C467.01 96.208 465.745 97.459 463.817 97.459H461.773V101H460.563V91.1357ZM461.773 92.209V96.3857H463.544C464.979 96.3857 465.786 95.6406 465.786 94.3008C465.786 92.9541 464.979 92.209 463.544 92.209H461.773ZM475.227 93.583V101H474.112V99.6943H474.017C473.62 100.617 472.772 101.137 471.645 101.137C470.031 101.137 469.156 100.173 469.156 98.3955V93.583H470.318V98.1016C470.318 99.4414 470.865 100.07 472.021 100.07C473.244 100.07 474.064 99.2158 474.064 97.9512V93.583H475.227ZM481.311 101.123C480.251 101.123 479.472 100.686 479.089 99.8652H478.959V101H477.817V90.6709H479V94.7314H479.123C479.451 93.918 480.237 93.46 481.311 93.46C483.026 93.46 484.147 94.6973 484.147 96.5977V97.9785C484.147 99.8857 483.026 101.123 481.311 101.123ZM480.969 100.063C482.199 100.063 482.979 99.1816 482.979 97.8145V96.748C482.979 95.3809 482.199 94.5059 480.969 94.5059C479.752 94.5059 478.973 95.3809 478.973 96.748V97.8145C478.973 99.1885 479.752 100.063 480.969 100.063ZM492.74 101H486.595V100.036H489.131V91.6348H486.615V90.6709H490.293V100.036H492.74V101ZM498.284 91.7646C497.737 91.7646 497.32 91.3545 497.32 90.8076C497.32 90.2676 497.737 89.8574 498.284 89.8574C498.831 89.8574 499.248 90.2676 499.248 90.8076C499.248 91.3545 498.831 91.7646 498.284 91.7646ZM501.395 101H495.249V100.036H497.792V94.5469H495.27V93.583H498.94V100.036H501.395V101ZM504.108 95.5859C504.108 94.3008 505.202 93.4395 506.836 93.4395C508.381 93.4395 509.427 94.2119 509.563 95.4492H508.442C508.306 94.7998 507.684 94.4033 506.815 94.4033C505.872 94.4033 505.264 94.8408 505.264 95.5176C505.264 96.085 505.646 96.4062 506.576 96.6113L507.622 96.8506C509.064 97.1787 509.721 97.8076 509.721 98.8809C509.721 100.248 508.579 101.137 506.822 101.137C505.141 101.137 504.026 100.351 503.896 99.0791H505.079C505.25 99.7627 505.906 100.159 506.863 100.159C507.875 100.159 508.518 99.7012 508.518 98.9902C508.518 98.4023 508.155 98.0879 507.212 97.876L506.111 97.623C504.771 97.3154 504.108 96.6387 504.108 95.5859ZM512.421 101V90.6709H513.542V94.8955H513.638C514.027 93.9727 514.882 93.4531 516.017 93.4531C517.63 93.4531 518.505 94.4238 518.505 96.1943V101H517.343V96.4883C517.343 95.1553 516.796 94.5195 515.634 94.5195C514.41 94.5195 513.583 95.374 513.583 96.6387V101H512.421Z" fill="#3C3489"></path>
<path d="M301 159V199" stroke="#73726C" stroke-width="1.5"></path>
<path d="M316.719 178.41V177.584H314.768V176.699H317.762V178.498C317.762 180.086 316.566 181.176 314.861 181.176C312.875 181.176 311.727 179.84 311.727 177.525V176.02C311.727 173.705 312.875 172.369 314.861 172.369C316.619 172.369 317.721 173.441 317.762 175.193H316.719C316.672 174.092 315.922 173.348 314.844 173.348C313.479 173.348 312.77 174.268 312.77 176.02V177.525C312.77 179.277 313.484 180.197 314.85 180.197C316.004 180.197 316.719 179.518 316.719 178.41ZM319.52 181V172.146H320.48V175.768H320.562C320.896 174.977 321.629 174.531 322.602 174.531C323.984 174.531 324.734 175.363 324.734 176.881V181H323.738V177.133C323.738 175.99 323.27 175.445 322.273 175.445C321.225 175.445 320.516 176.178 320.516 177.262V181H319.52ZM329.545 181.117C327.863 181.117 326.791 180.021 326.791 178.305V177.344C326.791 175.627 327.863 174.531 329.545 174.531C331.227 174.531 332.299 175.627 332.299 177.344V178.305C332.299 180.021 331.227 181.117 329.545 181.117ZM329.545 175.41C328.455 175.41 327.775 176.184 327.775 177.432V178.211C327.775 179.465 328.455 180.232 329.545 180.232C330.635 180.232 331.314 179.465 331.314 178.211V177.432C331.314 176.184 330.635 175.41 329.545 175.41ZM334.648 176.359C334.648 175.258 335.586 174.52 336.986 174.52C338.311 174.52 339.207 175.182 339.324 176.242H338.363C338.246 175.686 337.713 175.346 336.969 175.346C336.16 175.346 335.639 175.721 335.639 176.301C335.639 176.787 335.967 177.062 336.764 177.238L337.66 177.443C338.896 177.725 339.459 178.264 339.459 179.184C339.459 180.355 338.48 181.117 336.975 181.117C335.533 181.117 334.578 180.443 334.467 179.354H335.48C335.627 179.939 336.189 180.279 337.01 180.279C337.877 180.279 338.428 179.887 338.428 179.277C338.428 178.773 338.117 178.504 337.309 178.322L336.365 178.105C335.217 177.842 334.648 177.262 334.648 176.359ZM343.297 172.938H344.281V174.66H346.859V175.51H344.293V179.096C344.293 179.787 344.779 180.162 345.676 180.162C346.033 180.162 346.672 180.145 346.842 180.127V180.971C346.684 181 345.91 181.029 345.605 181.029C344.029 181.029 343.297 180.432 343.297 179.107V175.51H341.604V174.66H343.297V172.938ZM359.41 180.197C360.535 180.197 361.25 179.523 361.279 178.434H362.322C362.322 180.068 361.139 181.176 359.41 181.176C357.424 181.176 356.27 179.834 356.27 177.525V176.02C356.27 173.711 357.424 172.369 359.41 172.369C361.191 172.369 362.293 173.453 362.328 175.258H361.279C361.244 174.115 360.488 173.348 359.404 173.348C358.039 173.348 357.324 174.268 357.324 176.02V177.525C357.324 179.277 358.039 180.197 359.41 180.197ZM366.635 181.117C364.953 181.117 363.881 180.021 363.881 178.305V177.344C363.881 175.627 364.953 174.531 366.635 174.531C368.316 174.531 369.389 175.627 369.389 177.344V178.305C369.389 180.021 368.316 181.117 366.635 181.117ZM366.635 175.41C365.545 175.41 364.865 176.184 364.865 177.432V178.211C364.865 179.465 365.545 180.232 366.635 180.232C367.725 180.232 368.404 179.465 368.404 178.211V177.432C368.404 176.184 367.725 175.41 366.635 175.41ZM371.451 181V174.643H372.406V175.762H372.488C372.828 174.971 373.555 174.525 374.521 174.525C375.904 174.525 376.654 175.352 376.654 176.875V181H375.658V177.127C375.658 175.979 375.189 175.439 374.199 175.439C373.15 175.439 372.447 176.172 372.447 177.256V181H371.451ZM380.387 172.938H381.371V174.66H383.949V175.51H381.383V179.096C381.383 179.787 381.869 180.162 382.766 180.162C383.123 180.162 383.762 180.145 383.932 180.127V180.971C383.773 181 383 181.029 382.695 181.029C381.119 181.029 380.387 180.432 380.387 179.107V175.51H378.693V174.66H380.387V172.938ZM390.605 179.359H391.572C391.379 180.408 390.371 181.117 389.035 181.117C387.289 181.117 386.275 180.068 386.275 178.258V177.303C386.275 175.627 387.348 174.525 388.965 174.525C390.617 174.525 391.59 175.621 391.59 177.461V178.082H387.26V178.34C387.26 179.506 387.951 180.256 389.035 180.256C389.838 180.256 390.43 179.916 390.605 179.359ZM388.959 175.381C387.898 175.381 387.26 176.107 387.26 177.326H390.605C390.605 176.113 389.984 175.381 388.959 175.381ZM393.705 181V174.643H394.66V175.762H394.742C395.082 174.971 395.809 174.525 396.775 174.525C398.158 174.525 398.908 175.352 398.908 176.875V181H397.912V177.127C397.912 175.979 397.443 175.439 396.453 175.439C395.404 175.439 394.701 176.172 394.701 177.256V181H393.705ZM402.641 172.938H403.625V174.66H406.203V175.51H403.637V179.096C403.637 179.787 404.123 180.162 405.02 180.162C405.377 180.162 406.016 180.145 406.186 180.127V180.971C406.027 181 405.254 181.029 404.949 181.029C403.373 181.029 402.641 180.432 402.641 179.107V175.51H400.947V174.66H402.641V172.938ZM420.746 181L420.014 178.574H417.072L416.334 181H415.285L418.01 172.545H419.111L421.836 181H420.746ZM418.531 173.787L417.342 177.689H419.744L418.561 173.787H418.531ZM423.43 172.545H426.242C427.883 172.545 428.955 173.617 428.955 175.258C428.955 176.893 427.871 177.965 426.219 177.965H424.467V181H423.43V172.545ZM424.467 173.465V177.045H425.984C427.215 177.045 427.906 176.406 427.906 175.258C427.906 174.104 427.215 173.465 425.984 173.465H424.467ZM435.623 181H431.17V180.08H432.881V173.465H431.17V172.545H435.623V173.465H433.912V180.08H435.623V181Z" fill="#3D3D3A"></path>
<path d="M4.86719 201H2.10156V192.545H4.83789C6.39648 192.545 7.33398 193.324 7.33398 194.637C7.33398 195.568 6.73047 196.336 5.88086 196.482V196.57C7.01758 196.682 7.76172 197.508 7.76172 198.639C7.76172 200.121 6.68359 201 4.86719 201ZM3.12695 193.436V196.195H4.44531C5.64648 196.195 6.29102 195.709 6.29102 194.818C6.29102 193.934 5.68164 193.436 4.60352 193.436H3.12695ZM3.12695 200.104H4.64453C5.98633 200.104 6.68945 199.576 6.68945 198.568C6.68945 197.572 5.98047 197.057 4.60938 197.057H3.12695V200.104ZM12.127 200.197C13.3574 200.197 14.0723 199.389 14.0723 198V192.545H15.1035V198.064C15.1035 200.01 13.9902 201.176 12.127 201.176C10.2637 201.176 9.15039 200.01 9.15039 198.064V192.545H10.1816V198C10.1816 199.389 10.8965 200.197 12.127 200.197ZM21.7715 201H17.3184V200.08H19.0293V193.465H17.3184V192.545H21.7715V193.465H20.0605V200.08H21.7715V201ZM29.8281 200.039V201H24.7949V192.545H25.8203V200.039H29.8281ZM31.6094 192.545H33.9766C36.373 192.545 37.5801 193.957 37.5801 196.758C37.5801 199.582 36.373 201 33.9766 201H31.6094V192.545ZM32.6465 193.494V200.051H33.8828C35.6758 200.051 36.5254 199.002 36.5254 196.764C36.5254 194.549 35.6699 193.494 33.8828 193.494H32.6465Z" fill="#3D3D3A"></path>
<path d="M585 216H17C8.16344 216 1 223.163 1 232V450C1 458.837 8.16344 466 17 466H585C593.837 466 601 458.837 601 450V232C601 223.163 593.837 216 585 216Z" fill="#E1F5EE" stroke="#0F6E56" stroke-width="0.5"></path>
<path d="M286.241 246L285.387 243.17H281.955L281.094 246H279.87L283.049 236.136H284.334L287.513 246H286.241ZM283.657 237.585L282.27 242.138H285.072L283.691 237.585H283.657ZM289.646 240.586C289.646 239.301 290.739 238.439 292.373 238.439C293.918 238.439 294.964 239.212 295.101 240.449H293.979C293.843 239.8 293.221 239.403 292.353 239.403C291.409 239.403 290.801 239.841 290.801 240.518C290.801 241.085 291.184 241.406 292.113 241.611L293.159 241.851C294.602 242.179 295.258 242.808 295.258 243.881C295.258 245.248 294.116 246.137 292.359 246.137C290.678 246.137 289.563 245.351 289.434 244.079H290.616C290.787 244.763 291.443 245.159 292.4 245.159C293.412 245.159 294.055 244.701 294.055 243.99C294.055 243.402 293.692 243.088 292.749 242.876L291.648 242.623C290.309 242.315 289.646 241.639 289.646 240.586ZM299.735 236.594H300.884V238.604H303.892V239.595H300.897V243.778C300.897 244.585 301.465 245.022 302.511 245.022C302.928 245.022 303.673 245.002 303.871 244.981V245.966C303.687 246 302.784 246.034 302.429 246.034C300.59 246.034 299.735 245.337 299.735 243.792V239.595H297.76V238.604H299.735V236.594ZM309.36 242.678V245.07H311.657V246H306.729V245.07H308.226V239.513H306.578V238.583H309.347V240.477H309.497C309.771 239.103 310.693 238.392 312.122 238.392C312.546 238.392 312.949 238.453 313.195 238.556V239.861C312.854 239.738 312.375 239.656 311.972 239.656C310.331 239.656 309.36 240.791 309.36 242.678ZM318.309 246.137C316.347 246.137 315.096 244.858 315.096 242.855V241.734C315.096 239.731 316.347 238.453 318.309 238.453C320.271 238.453 321.521 239.731 321.521 241.734V242.855C321.521 244.858 320.271 246.137 318.309 246.137ZM318.309 239.479C317.037 239.479 316.244 240.381 316.244 241.837V242.746C316.244 244.209 317.037 245.104 318.309 245.104C319.58 245.104 320.373 244.209 320.373 242.746V241.837C320.373 240.381 319.58 239.479 318.309 239.479Z" fill="#085041"></path>
<path d="M275 266H41C36.5817 266 33 269.582 33 274V314C33 318.418 36.5817 322 41 322H275C279.418 322 283 318.418 283 314V274C283 269.582 279.418 266 275 266Z" fill="#E1F5EE" stroke="#0F6E56" stroke-width="0.5"></path>
<path d="M65.749 287H64.5391V277.136H70.3564V278.243H65.749V281.627H69.96V282.7H65.749V287ZM77.7871 285.086H78.915C78.6895 286.31 77.5137 287.137 75.9551 287.137C73.918 287.137 72.7354 285.913 72.7354 283.801V282.687C72.7354 280.731 73.9863 279.446 75.873 279.446C77.8008 279.446 78.9355 280.725 78.9355 282.871V283.596H73.8838V283.896C73.8838 285.257 74.6904 286.132 75.9551 286.132C76.8916 286.132 77.582 285.735 77.7871 285.086ZM75.8662 280.444C74.6289 280.444 73.8838 281.292 73.8838 282.714H77.7871C77.7871 281.299 77.0625 280.444 75.8662 280.444ZM83.1738 277.594H84.3223V279.604H87.3301V280.595H84.3359V284.778C84.3359 285.585 84.9033 286.022 85.9492 286.022C86.3662 286.022 87.1113 286.002 87.3096 285.981V286.966C87.125 287 86.2227 287.034 85.8672 287.034C84.0283 287.034 83.1738 286.337 83.1738 284.792V280.595H81.1982V279.604H83.1738V277.594ZM96.1826 281.894H95.0342C94.8906 281.025 94.166 280.479 93.209 280.479C91.917 280.479 91.1992 281.36 91.1992 282.953V283.623C91.1992 285.216 91.917 286.091 93.209 286.091C94.166 286.091 94.8906 285.551 95.0342 284.703H96.1826C95.998 286.214 94.8701 287.137 93.2295 287.137C91.2129 287.137 90.0371 285.899 90.0371 283.773V282.803C90.0371 280.677 91.2129 279.439 93.2295 279.439C94.8701 279.439 95.9912 280.369 96.1826 281.894ZM98.7051 287V276.671H99.8262V280.896H99.9219C100.312 279.973 101.166 279.453 102.301 279.453C103.914 279.453 104.789 280.424 104.789 282.194V287H103.627V282.488C103.627 281.155 103.08 280.52 101.918 280.52C100.694 280.52 99.8672 281.374 99.8672 282.639V287H98.7051ZM121.708 287L120.922 285.988C120.143 286.774 119.213 287.178 118.146 287.178C116.417 287.178 115.207 286.05 115.207 284.443C115.207 283.363 115.795 282.447 116.998 281.661L117.312 281.449C116.561 280.533 116.205 279.754 116.205 279.043C116.205 277.792 117.114 276.931 118.413 276.931C119.698 276.931 120.594 277.792 120.594 279.043C120.594 280.034 120.108 280.738 118.755 281.627L120.881 284.3C121.134 283.705 121.264 283.001 121.291 282.085V282.023H122.282V282.126C122.241 283.336 122.002 284.334 121.537 285.147L123.062 287H121.708ZM118.406 277.888C117.736 277.888 117.23 278.387 117.23 279.057C117.23 279.61 117.49 280.137 118.174 280.957C119.24 280.253 119.582 279.781 119.582 279.057C119.582 278.387 119.076 277.888 118.406 277.888ZM117.62 282.379C116.718 282.939 116.301 283.582 116.301 284.389C116.301 285.448 117.06 286.159 118.188 286.159C119.069 286.159 119.828 285.838 120.327 285.243L117.894 282.201L117.62 282.379ZM136.07 283.678V286.07H138.367V287H133.438V286.07H134.936V280.513H133.288V279.583H136.057V281.477H136.207C136.48 280.103 137.403 279.392 138.832 279.392C139.256 279.392 139.659 279.453 139.905 279.556V280.861C139.563 280.738 139.085 280.656 138.682 280.656C137.041 280.656 136.07 281.791 136.07 283.678ZM147.021 285.086H148.149C147.924 286.31 146.748 287.137 145.189 287.137C143.152 287.137 141.97 285.913 141.97 283.801V282.687C141.97 280.731 143.221 279.446 145.107 279.446C147.035 279.446 148.17 280.725 148.17 282.871V283.596H143.118V283.896C143.118 285.257 143.925 286.132 145.189 286.132C146.126 286.132 146.816 285.735 147.021 285.086ZM145.101 280.444C143.863 280.444 143.118 281.292 143.118 282.714H147.021C147.021 281.299 146.297 280.444 145.101 280.444ZM152.579 287V280.595H150.59V279.604H152.579V278.858C152.579 277.423 153.468 276.753 155.293 276.753C155.724 276.753 156.756 276.787 157.002 276.821V277.771C156.681 277.737 155.724 277.71 155.307 277.71C154.274 277.71 153.728 278.093 153.728 278.838V279.604H157.002V280.595H153.741V287H152.579ZM162.327 287.137C160.365 287.137 159.114 285.858 159.114 283.855V282.734C159.114 280.731 160.365 279.453 162.327 279.453C164.289 279.453 165.54 280.731 165.54 282.734V283.855C165.54 285.858 164.289 287.137 162.327 287.137ZM162.327 280.479C161.056 280.479 160.263 281.381 160.263 282.837V283.746C160.263 285.209 161.056 286.104 162.327 286.104C163.599 286.104 164.392 285.209 164.392 283.746V282.837C164.392 281.381 163.599 280.479 162.327 280.479ZM170.688 283.678V286.07H172.984V287H168.056V286.07H169.553V280.513H167.905V279.583H170.674V281.477H170.824C171.098 280.103 172.021 279.392 173.449 279.392C173.873 279.392 174.276 279.453 174.522 279.556V280.861C174.181 280.738 173.702 280.656 173.299 280.656C171.658 280.656 170.688 281.791 170.688 283.678ZM183.211 281.538V287H182.165V281.88C182.165 280.978 181.837 280.506 181.215 280.506C180.565 280.506 180.169 281.073 180.169 281.996V287H179.13V281.873C179.13 280.978 178.802 280.506 178.173 280.506C177.517 280.506 177.106 281.073 177.106 281.996V287H176.061V279.583H177.1V280.629H177.223C177.407 279.884 177.94 279.446 178.638 279.446C179.335 279.446 179.827 279.877 179.984 280.608H180.107C180.299 279.897 180.894 279.446 181.639 279.446C182.671 279.446 183.211 280.164 183.211 281.538ZM187.538 287.13C186.123 287.13 185.18 286.241 185.18 284.895C185.18 283.582 186.123 282.803 187.812 282.714L189.849 282.611V281.941C189.849 281.012 189.281 280.499 188.249 280.499C187.395 280.499 186.793 280.861 186.602 281.497H185.46C185.597 280.308 186.745 279.494 188.263 279.494C190.006 279.494 191.004 280.383 191.004 281.928V287.007H189.896V285.893H189.78C189.425 286.686 188.618 287.13 187.538 287.13ZM187.873 286.111C188.994 286.111 189.849 285.366 189.849 284.375V283.5L187.941 283.589C186.902 283.637 186.355 284.081 186.355 284.854C186.355 285.633 186.937 286.111 187.873 286.111ZM195.68 277.594H196.828V279.604H199.836V280.595H196.842V284.778C196.842 285.585 197.409 286.022 198.455 286.022C198.872 286.022 199.617 286.002 199.815 285.981V286.966C199.631 287 198.729 287.034 198.373 287.034C196.534 287.034 195.68 286.337 195.68 284.792V280.595H193.704V279.604H195.68V277.594ZM214.718 279.46C216.434 279.46 217.555 280.697 217.555 282.604V283.985C217.555 285.886 216.434 287.123 214.718 287.123C213.645 287.123 212.858 286.665 212.537 285.852H212.407V289.502H211.225V279.583H212.373V280.718H212.496C212.886 279.897 213.658 279.46 214.718 279.46ZM214.383 280.526C213.159 280.526 212.38 281.401 212.38 282.769V283.835C212.38 285.209 213.159 286.084 214.383 286.084C215.606 286.084 216.386 285.202 216.386 283.835V282.769C216.386 281.401 215.606 280.526 214.383 280.526ZM222.907 287.137C220.945 287.137 219.694 285.858 219.694 283.855V282.734C219.694 280.731 220.945 279.453 222.907 279.453C224.869 279.453 226.12 280.731 226.12 282.734V283.855C226.12 285.858 224.869 287.137 222.907 287.137ZM222.907 280.479C221.636 280.479 220.843 281.381 220.843 282.837V283.746C220.843 285.209 221.636 286.104 222.907 286.104C224.179 286.104 224.972 285.209 224.972 283.746V282.837C224.972 281.381 224.179 280.479 222.907 280.479ZM228.861 281.586C228.861 280.301 229.955 279.439 231.589 279.439C233.134 279.439 234.18 280.212 234.316 281.449H233.195C233.059 280.8 232.437 280.403 231.568 280.403C230.625 280.403 230.017 280.841 230.017 281.518C230.017 282.085 230.399 282.406 231.329 282.611L232.375 282.851C233.817 283.179 234.474 283.808 234.474 284.881C234.474 286.248 233.332 287.137 231.575 287.137C229.894 287.137 228.779 286.351 228.649 285.079H229.832C230.003 285.763 230.659 286.159 231.616 286.159C232.628 286.159 233.271 285.701 233.271 284.99C233.271 284.402 232.908 284.088 231.965 283.876L230.864 283.623C229.524 283.315 228.861 282.639 228.861 281.586ZM238.951 277.594H240.1V279.604H243.107V280.595H240.113V284.778C240.113 285.585 240.681 286.022 241.727 286.022C242.144 286.022 242.889 286.002 243.087 285.981V286.966C242.902 287 242 287.034 241.645 287.034C239.806 287.034 238.951 286.337 238.951 284.792V280.595H236.976V279.604H238.951V277.594ZM246.17 281.586C246.17 280.301 247.264 279.439 248.897 279.439C250.442 279.439 251.488 280.212 251.625 281.449H250.504C250.367 280.8 249.745 280.403 248.877 280.403C247.934 280.403 247.325 280.841 247.325 281.518C247.325 282.085 247.708 282.406 248.638 282.611L249.684 282.851C251.126 283.179 251.782 283.808 251.782 284.881C251.782 286.248 250.641 287.137 248.884 287.137C247.202 287.137 246.088 286.351 245.958 285.079H247.141C247.312 285.763 247.968 286.159 248.925 286.159C249.937 286.159 250.579 285.701 250.579 284.99C250.579 284.402 250.217 284.088 249.273 283.876L248.173 283.623C246.833 283.315 246.17 282.639 246.17 281.586Z" fill="#085041"></path>
<path d="M57.6797 303.631H55.7344V307H54.7148V298.545H57.5508C59.2266 298.545 60.2754 299.518 60.2754 301.088C60.2754 302.195 59.6602 303.104 58.6992 303.42L60.4219 307H59.2559L57.6797 303.631ZM55.7344 299.465V302.758H57.4102C58.5762 302.758 59.2324 302.166 59.2324 301.111C59.2324 300.062 58.5879 299.465 57.457 299.465H55.7344ZM66.4922 305.359H67.459C67.2656 306.408 66.2578 307.117 64.9219 307.117C63.1758 307.117 62.1621 306.068 62.1621 304.258V303.303C62.1621 301.627 63.2344 300.525 64.8516 300.525C66.5039 300.525 67.4766 301.621 67.4766 303.461V304.082H63.1465V304.34C63.1465 305.506 63.8379 306.256 64.9219 306.256C65.7246 306.256 66.3164 305.916 66.4922 305.359ZM64.8457 301.381C63.7852 301.381 63.1465 302.107 63.1465 303.326H66.4922C66.4922 302.113 65.8711 301.381 64.8457 301.381ZM75.627 300.643L74.2617 307H73.3066L72.2285 302.043H72.1582L71.0801 307H70.125L68.7598 300.643H69.7324L70.5938 305.74H70.6992L71.7246 300.648H72.6621L73.6875 305.74H73.793L74.6543 300.643H75.627ZM79.3594 304.152V306.203H81.3281V307H77.1035V306.203H78.3867V301.439H76.9746V300.643H79.3477V302.266H79.4766C79.7109 301.088 80.502 300.479 81.7266 300.479C82.0898 300.479 82.4355 300.531 82.6465 300.619V301.738C82.3535 301.633 81.9434 301.562 81.5977 301.562C80.1914 301.562 79.3594 302.535 79.3594 304.152ZM87.1406 299.084C86.6719 299.084 86.3145 298.732 86.3145 298.264C86.3145 297.801 86.6719 297.449 87.1406 297.449C87.6094 297.449 87.9668 297.801 87.9668 298.264C87.9668 298.732 87.6094 299.084 87.1406 299.084ZM89.8066 307H84.5391V306.174H86.7188V301.469H84.5566V300.643H87.7031V306.174H89.8066V307ZM93.3633 298.938H94.3477V300.66H96.9258V301.51H94.3594V305.096C94.3594 305.787 94.8457 306.162 95.7422 306.162C96.0996 306.162 96.7383 306.145 96.9082 306.127V306.971C96.75 307 95.9766 307.029 95.6719 307.029C94.0957 307.029 93.3633 306.432 93.3633 305.107V301.51H91.6699V300.66H93.3633V298.938ZM103.582 305.359H104.549C104.355 306.408 103.348 307.117 102.012 307.117C100.266 307.117 99.252 306.068 99.252 304.258V303.303C99.252 301.627 100.324 300.525 101.941 300.525C103.594 300.525 104.566 301.621 104.566 303.461V304.082H100.236V304.34C100.236 305.506 100.928 306.256 102.012 306.256C102.814 306.256 103.406 305.916 103.582 305.359ZM101.936 301.381C100.875 301.381 100.236 302.107 100.236 303.326H103.582C103.582 302.113 102.961 301.381 101.936 301.381ZM119.479 307H114.211V306.174H116.385V298.973H114.229V298.146H117.381V306.174H119.479V307ZM124.119 307.117C122.438 307.117 121.365 306.021 121.365 304.305V303.344C121.365 301.627 122.438 300.531 124.119 300.531C125.801 300.531 126.873 301.627 126.873 303.344V304.305C126.873 306.021 125.801 307.117 124.119 307.117ZM124.119 301.41C123.029 301.41 122.35 302.184 122.35 303.432V304.211C122.35 305.465 123.029 306.232 124.119 306.232C125.209 306.232 125.889 305.465 125.889 304.211V303.432C125.889 302.184 125.209 301.41 124.119 301.41ZM134.186 302.623H133.201C133.078 301.879 132.457 301.41 131.637 301.41C130.529 301.41 129.914 302.166 129.914 303.531V304.105C129.914 305.471 130.529 306.221 131.637 306.221C132.457 306.221 133.078 305.758 133.201 305.031H134.186C134.027 306.326 133.061 307.117 131.654 307.117C129.926 307.117 128.918 306.057 128.918 304.234V303.402C128.918 301.58 129.926 300.52 131.654 300.52C133.061 300.52 134.021 301.316 134.186 302.623ZM138.311 307.111C137.098 307.111 136.289 306.35 136.289 305.195C136.289 304.07 137.098 303.402 138.545 303.326L140.291 303.238V302.664C140.291 301.867 139.805 301.428 138.92 301.428C138.188 301.428 137.672 301.738 137.508 302.283H136.529C136.646 301.264 137.631 300.566 138.932 300.566C140.426 300.566 141.281 301.328 141.281 302.652V307.006H140.332V306.051H140.232C139.928 306.73 139.236 307.111 138.311 307.111ZM138.598 306.238C139.559 306.238 140.291 305.6 140.291 304.75V304L138.656 304.076C137.766 304.117 137.297 304.498 137.297 305.16C137.297 305.828 137.795 306.238 138.598 306.238ZM149.15 307H143.883V306.174H146.057V298.973H143.9V298.146H147.053V306.174H149.15V307ZM151.184 307V298.146H152.145V301.768H152.227C152.561 300.977 153.293 300.531 154.266 300.531C155.648 300.531 156.398 301.363 156.398 302.881V307H155.402V303.133C155.402 301.99 154.934 301.445 153.938 301.445C152.889 301.445 152.18 302.178 152.18 303.262V307H151.184ZM161.209 307.117C159.527 307.117 158.455 306.021 158.455 304.305V303.344C158.455 301.627 159.527 300.531 161.209 300.531C162.891 300.531 163.963 301.627 163.963 303.344V304.305C163.963 306.021 162.891 307.117 161.209 307.117ZM161.209 301.41C160.119 301.41 159.439 302.184 159.439 303.432V304.211C159.439 305.465 160.119 306.232 161.209 306.232C162.299 306.232 162.979 305.465 162.979 304.211V303.432C162.979 302.184 162.299 301.41 161.209 301.41ZM166.312 302.359C166.312 301.258 167.25 300.52 168.65 300.52C169.975 300.52 170.871 301.182 170.988 302.242H170.027C169.91 301.686 169.377 301.346 168.633 301.346C167.824 301.346 167.303 301.721 167.303 302.301C167.303 302.787 167.631 303.062 168.428 303.238L169.324 303.443C170.561 303.725 171.123 304.264 171.123 305.184C171.123 306.355 170.145 307.117 168.639 307.117C167.197 307.117 166.242 306.443 166.131 305.354H167.145C167.291 305.939 167.854 306.279 168.674 306.279C169.541 306.279 170.092 305.887 170.092 305.277C170.092 304.773 169.781 304.504 168.973 304.322L168.029 304.105C166.881 303.842 166.312 303.262 166.312 302.359ZM174.961 298.938H175.945V300.66H178.523V301.51H175.957V305.096C175.957 305.787 176.443 306.162 177.34 306.162C177.697 306.162 178.336 306.145 178.506 306.127V306.971C178.348 307 177.574 307.029 177.27 307.029C175.693 307.029 174.961 306.432 174.961 305.107V301.51H173.268V300.66H174.961V298.938ZM193.945 302.318V307H193.049V302.611C193.049 301.838 192.768 301.434 192.234 301.434C191.678 301.434 191.338 301.92 191.338 302.711V307H190.447V302.605C190.447 301.838 190.166 301.434 189.627 301.434C189.064 301.434 188.713 301.92 188.713 302.711V307H187.816V300.643H188.707V301.539H188.812C188.971 300.9 189.428 300.525 190.025 300.525C190.623 300.525 191.045 300.895 191.18 301.521H191.285C191.449 300.912 191.959 300.525 192.598 300.525C193.482 300.525 193.945 301.141 193.945 302.318ZM200.016 305.359H200.982C200.789 306.408 199.781 307.117 198.445 307.117C196.699 307.117 195.686 306.068 195.686 304.258V303.303C195.686 301.627 196.758 300.525 198.375 300.525C200.027 300.525 201 301.621 201 303.461V304.082H196.67V304.34C196.67 305.506 197.361 306.256 198.445 306.256C199.248 306.256 199.84 305.916 200.016 305.359ZM198.369 301.381C197.309 301.381 196.67 302.107 196.67 303.326H200.016C200.016 302.113 199.395 301.381 198.369 301.381ZM205.318 307.105C203.848 307.105 202.887 306.045 202.887 304.41V303.227C202.887 301.598 203.848 300.537 205.318 300.537C206.238 300.537 206.918 300.93 207.193 301.627H207.299V298.146H208.312V307H207.334V306.027H207.223C206.895 306.73 206.227 307.105 205.318 307.105ZM205.611 306.197C206.654 306.197 207.328 305.447 207.328 304.27V303.355C207.328 302.184 206.654 301.434 205.611 301.434C204.562 301.434 203.889 302.184 203.889 303.355V304.27C203.889 305.441 204.562 306.197 205.611 306.197ZM213.246 299.084C212.777 299.084 212.42 298.732 212.42 298.264C212.42 297.801 212.777 297.449 213.246 297.449C213.715 297.449 214.072 297.801 214.072 298.264C214.072 298.732 213.715 299.084 213.246 299.084ZM215.912 307H210.645V306.174H212.824V301.469H210.662V300.643H213.809V306.174H215.912V307ZM219.908 307.111C218.695 307.111 217.887 306.35 217.887 305.195C217.887 304.07 218.695 303.402 220.143 303.326L221.889 303.238V302.664C221.889 301.867 221.402 301.428 220.518 301.428C219.785 301.428 219.27 301.738 219.105 302.283H218.127C218.244 301.264 219.229 300.566 220.529 300.566C222.023 300.566 222.879 301.328 222.879 302.652V307.006H221.93V306.051H221.83C221.525 306.73 220.834 307.111 219.908 307.111ZM220.195 306.238C221.156 306.238 221.889 305.6 221.889 304.75V304L220.254 304.076C219.363 304.117 218.895 304.498 218.895 305.16C218.895 305.828 219.393 306.238 220.195 306.238ZM235.389 306.197C236.619 306.197 237.334 305.389 237.334 304V298.545H238.365V304.064C238.365 306.01 237.252 307.176 235.389 307.176C233.525 307.176 232.412 306.01 232.412 304.064V298.545H233.443V304C233.443 305.389 234.158 306.197 235.389 306.197ZM243.129 303.631H241.184V307H240.164V298.545H243C244.676 298.545 245.725 299.518 245.725 301.088C245.725 302.195 245.109 303.104 244.148 303.42L245.871 307H244.705L243.129 303.631ZM241.184 299.465V302.758H242.859C244.025 302.758 244.682 302.166 244.682 301.111C244.682 300.062 244.037 299.465 242.906 299.465H241.184ZM253.09 306.039V307H248.057V298.545H249.082V306.039H253.09ZM255.328 302.359C255.328 301.258 256.266 300.52 257.666 300.52C258.99 300.52 259.887 301.182 260.004 302.242H259.043C258.926 301.686 258.393 301.346 257.648 301.346C256.84 301.346 256.318 301.721 256.318 302.301C256.318 302.787 256.646 303.062 257.443 303.238L258.34 303.443C259.576 303.725 260.139 304.264 260.139 305.184C260.139 306.355 259.16 307.117 257.654 307.117C256.213 307.117 255.258 306.443 255.146 305.354H256.16C256.307 305.939 256.869 306.279 257.689 306.279C258.557 306.279 259.107 305.887 259.107 305.277C259.107 304.773 258.797 304.504 257.988 304.322L257.045 304.105C255.896 303.842 255.328 303.262 255.328 302.359Z" fill="#0F6E56"></path>
<path d="M561 266H327C322.582 266 319 269.582 319 274V314C319 318.418 322.582 322 327 322H561C565.418 322 569 318.418 569 314V274C569 269.582 565.418 266 561 266Z" fill="#E1F5EE" stroke="#0F6E56" stroke-width="0.5"></path>
<path d="M382.936 285.879V287H377.063V277.136H378.26V285.879H382.936ZM388.247 287.137C386.285 287.137 385.034 285.858 385.034 283.855V282.734C385.034 280.731 386.285 279.453 388.247 279.453C390.209 279.453 391.46 280.731 391.46 282.734V283.855C391.46 285.858 390.209 287.137 388.247 287.137ZM388.247 280.479C386.976 280.479 386.183 281.381 386.183 282.837V283.746C386.183 285.209 386.976 286.104 388.247 286.104C389.519 286.104 390.312 285.209 390.312 283.746V282.837C390.312 281.381 389.519 280.479 388.247 280.479ZM399.991 281.894H398.843C398.699 281.025 397.975 280.479 397.018 280.479C395.726 280.479 395.008 281.36 395.008 282.953V283.623C395.008 285.216 395.726 286.091 397.018 286.091C397.975 286.091 398.699 285.551 398.843 284.703H399.991C399.807 286.214 398.679 287.137 397.038 287.137C395.021 287.137 393.846 285.899 393.846 283.773V282.803C393.846 280.677 395.021 279.439 397.038 279.439C398.679 279.439 399.8 280.369 399.991 281.894ZM404.804 287.13C403.389 287.13 402.445 286.241 402.445 284.895C402.445 283.582 403.389 282.803 405.077 282.714L407.114 282.611V281.941C407.114 281.012 406.547 280.499 405.515 280.499C404.66 280.499 404.059 280.861 403.867 281.497H402.726C402.862 280.308 404.011 279.494 405.528 279.494C407.271 279.494 408.27 280.383 408.27 281.928V287.007H407.162V285.893H407.046C406.69 286.686 405.884 287.13 404.804 287.13ZM405.139 286.111C406.26 286.111 407.114 285.366 407.114 284.375V283.5L405.207 283.589C404.168 283.637 403.621 284.081 403.621 284.854C403.621 285.633 404.202 286.111 405.139 286.111ZM417.45 287H411.305V286.036H413.841V277.635H411.325V276.671H415.003V286.036H417.45V287ZM431.054 287.123C429.338 287.123 428.217 285.886 428.217 283.979V282.598C428.217 280.697 429.338 279.46 431.054 279.46C432.127 279.46 432.92 279.918 433.241 280.731H433.364V276.671H434.547V287H433.405V285.865H433.275C432.893 286.686 432.113 287.123 431.054 287.123ZM431.396 286.063C432.612 286.063 433.398 285.188 433.398 283.814V282.748C433.398 281.381 432.612 280.506 431.396 280.506C430.172 280.506 429.386 281.381 429.386 282.748V283.814C429.386 285.182 430.172 286.063 431.396 286.063ZM442.176 285.086H443.304C443.078 286.31 441.902 287.137 440.344 287.137C438.307 287.137 437.124 285.913 437.124 283.801V282.687C437.124 280.731 438.375 279.446 440.262 279.446C442.189 279.446 443.324 280.725 443.324 282.871V283.596H438.272V283.896C438.272 285.257 439.079 286.132 440.344 286.132C441.28 286.132 441.971 285.735 442.176 285.086ZM440.255 280.444C439.018 280.444 438.272 281.292 438.272 282.714H442.176C442.176 281.299 441.451 280.444 440.255 280.444ZM445.478 279.583H446.722L448.793 285.756H448.882L450.939 279.583H452.177L449.47 287H448.191L445.478 279.583ZM463.436 281.586C463.436 280.301 464.529 279.439 466.163 279.439C467.708 279.439 468.754 280.212 468.891 281.449H467.77C467.633 280.8 467.011 280.403 466.143 280.403C465.199 280.403 464.591 280.841 464.591 281.518C464.591 282.085 464.974 282.406 465.903 282.611L466.949 282.851C468.392 283.179 469.048 283.808 469.048 284.881C469.048 286.248 467.906 287.137 466.149 287.137C464.468 287.137 463.354 286.351 463.224 285.079H464.406C464.577 285.763 465.233 286.159 466.19 286.159C467.202 286.159 467.845 285.701 467.845 284.99C467.845 284.402 467.482 284.088 466.539 283.876L465.438 283.623C464.099 283.315 463.436 282.639 463.436 281.586ZM476.793 285.086H477.921C477.695 286.31 476.52 287.137 474.961 287.137C472.924 287.137 471.741 285.913 471.741 283.801V282.687C471.741 280.731 472.992 279.446 474.879 279.446C476.807 279.446 477.941 280.725 477.941 282.871V283.596H472.89V283.896C472.89 285.257 473.696 286.132 474.961 286.132C475.897 286.132 476.588 285.735 476.793 285.086ZM474.872 280.444C473.635 280.444 472.89 281.292 472.89 282.714H476.793C476.793 281.299 476.068 280.444 474.872 280.444ZM483.15 283.678V286.07H485.447V287H480.519V286.07H482.016V280.513H480.368V279.583H483.137V281.477H483.287C483.561 280.103 484.483 279.392 485.912 279.392C486.336 279.392 486.739 279.453 486.985 279.556V280.861C486.644 280.738 486.165 280.656 485.762 280.656C484.121 280.656 483.15 281.791 483.15 283.678ZM488.749 279.583H489.993L492.064 285.756H492.153L494.211 279.583H495.448L492.741 287H491.463L488.749 279.583ZM502.756 285.086H503.884C503.658 286.31 502.482 287.137 500.924 287.137C498.887 287.137 497.704 285.913 497.704 283.801V282.687C497.704 280.731 498.955 279.446 500.842 279.446C502.77 279.446 503.904 280.725 503.904 282.871V283.596H498.853V283.896C498.853 285.257 499.659 286.132 500.924 286.132C501.86 286.132 502.551 285.735 502.756 285.086ZM500.835 280.444C499.598 280.444 498.853 281.292 498.853 282.714H502.756C502.756 281.299 502.031 280.444 500.835 280.444ZM509.113 283.678V286.07H511.41V287H506.481V286.07H507.979V280.513H506.331V279.583H509.1V281.477H509.25C509.523 280.103 510.446 279.392 511.875 279.392C512.299 279.392 512.702 279.453 512.948 279.556V280.861C512.606 280.738 512.128 280.656 511.725 280.656C510.084 280.656 509.113 281.791 509.113 283.678Z" fill="#085041"></path>
<path d="M349.227 298.545H352.039C353.68 298.545 354.752 299.617 354.752 301.258C354.752 302.893 353.668 303.965 352.016 303.965H350.264V307H349.227V298.545ZM350.264 299.465V303.045H351.781C353.012 303.045 353.703 302.406 353.703 301.258C353.703 300.104 353.012 299.465 351.781 299.465H350.264ZM358.941 304.152V306.203H360.91V307H356.686V306.203H357.969V301.439H356.557V300.643H358.93V302.266H359.059C359.293 301.088 360.084 300.479 361.309 300.479C361.672 300.479 362.018 300.531 362.229 300.619V301.738C361.936 301.633 361.525 301.562 361.18 301.562C359.773 301.562 358.941 302.535 358.941 304.152ZM368.328 305.359H369.295C369.102 306.408 368.094 307.117 366.758 307.117C365.012 307.117 363.998 306.068 363.998 304.258V303.303C363.998 301.627 365.07 300.525 366.688 300.525C368.34 300.525 369.312 301.621 369.312 303.461V304.082H364.982V304.34C364.982 305.506 365.674 306.256 366.758 306.256C367.561 306.256 368.152 305.916 368.328 305.359ZM366.682 301.381C365.621 301.381 364.982 302.107 364.982 303.326H368.328C368.328 302.113 367.707 301.381 366.682 301.381ZM371.158 300.643H372.225L374 305.934H374.076L375.84 300.643H376.9L374.58 307H373.484L371.158 300.643ZM381.559 299.084C381.09 299.084 380.732 298.732 380.732 298.264C380.732 297.801 381.09 297.449 381.559 297.449C382.027 297.449 382.385 297.801 382.385 298.264C382.385 298.732 382.027 299.084 381.559 299.084ZM384.225 307H378.957V306.174H381.137V301.469H378.975V300.643H382.121V306.174H384.225V307ZM390.582 305.359H391.549C391.355 306.408 390.348 307.117 389.012 307.117C387.266 307.117 386.252 306.068 386.252 304.258V303.303C386.252 301.627 387.324 300.525 388.941 300.525C390.594 300.525 391.566 301.621 391.566 303.461V304.082H387.236V304.34C387.236 305.506 387.928 306.256 389.012 306.256C389.814 306.256 390.406 305.916 390.582 305.359ZM388.936 301.381C387.875 301.381 387.236 302.107 387.236 303.326H390.582C390.582 302.113 389.961 301.381 388.936 301.381ZM399.717 300.643L398.352 307H397.396L396.318 302.043H396.248L395.17 307H394.215L392.85 300.643H393.822L394.684 305.74H394.789L395.814 300.648H396.752L397.777 305.74H397.883L398.744 300.643H399.717ZM411.119 307.117C409.438 307.117 408.365 306.021 408.365 304.305V303.344C408.365 301.627 409.438 300.531 411.119 300.531C412.801 300.531 413.873 301.627 413.873 303.344V304.305C413.873 306.021 412.801 307.117 411.119 307.117ZM411.119 301.41C410.029 301.41 409.35 302.184 409.35 303.432V304.211C409.35 305.465 410.029 306.232 411.119 306.232C412.209 306.232 412.889 305.465 412.889 304.211V303.432C412.889 302.184 412.209 301.41 411.119 301.41ZM415.936 307V300.643H416.891V301.762H416.973C417.312 300.971 418.039 300.525 419.006 300.525C420.389 300.525 421.139 301.352 421.139 302.875V307H420.143V303.127C420.143 301.979 419.674 301.439 418.684 301.439C417.635 301.439 416.932 302.172 416.932 303.256V307H415.936ZM432.975 307.105C431.504 307.105 430.543 306.045 430.543 304.41V303.227C430.543 301.598 431.504 300.537 432.975 300.537C433.895 300.537 434.574 300.93 434.85 301.627H434.955V298.146H435.969V307H434.99V306.027H434.879C434.551 306.73 433.883 307.105 432.975 307.105ZM433.268 306.197C434.311 306.197 434.984 305.447 434.984 304.27V303.355C434.984 302.184 434.311 301.434 433.268 301.434C432.219 301.434 431.545 302.184 431.545 303.355V304.27C431.545 305.441 432.219 306.197 433.268 306.197ZM442.508 305.359H443.475C443.281 306.408 442.273 307.117 440.938 307.117C439.191 307.117 438.178 306.068 438.178 304.258V303.303C438.178 301.627 439.25 300.525 440.867 300.525C442.52 300.525 443.492 301.621 443.492 303.461V304.082H439.162V304.34C439.162 305.506 439.854 306.256 440.938 306.256C441.74 306.256 442.332 305.916 442.508 305.359ZM440.861 301.381C439.801 301.381 439.162 302.107 439.162 303.326H442.508C442.508 302.113 441.887 301.381 440.861 301.381ZM445.895 302.359C445.895 301.258 446.832 300.52 448.232 300.52C449.557 300.52 450.453 301.182 450.57 302.242H449.609C449.492 301.686 448.959 301.346 448.215 301.346C447.406 301.346 446.885 301.721 446.885 302.301C446.885 302.787 447.213 303.062 448.01 303.238L448.906 303.443C450.143 303.725 450.705 304.264 450.705 305.184C450.705 306.355 449.727 307.117 448.221 307.117C446.779 307.117 445.824 306.443 445.713 305.354H446.727C446.873 305.939 447.436 306.279 448.256 306.279C449.123 306.279 449.674 305.887 449.674 305.277C449.674 304.773 449.363 304.504 448.555 304.322L447.611 304.105C446.463 303.842 445.895 303.262 445.895 302.359ZM454.566 303.496L457.338 300.643H458.545L456.078 303.162L458.721 307H457.537L455.369 303.842L454.49 304.686V307H453.494V298.146H454.49V303.496H454.566ZM461.961 298.938H462.945V300.66H465.523V301.51H462.957V305.096C462.957 305.787 463.443 306.162 464.34 306.162C464.697 306.162 465.336 306.145 465.506 306.127V306.971C465.348 307 464.574 307.029 464.27 307.029C462.693 307.029 461.961 306.432 461.961 305.107V301.51H460.268V300.66H461.961V298.938ZM470.463 307.117C468.781 307.117 467.709 306.021 467.709 304.305V303.344C467.709 301.627 468.781 300.531 470.463 300.531C472.145 300.531 473.217 301.627 473.217 303.344V304.305C473.217 306.021 472.145 307.117 470.463 307.117ZM470.463 301.41C469.373 301.41 468.693 302.184 468.693 303.432V304.211C468.693 305.465 469.373 306.232 470.463 306.232C471.553 306.232 472.232 305.465 472.232 304.211V303.432C472.232 302.184 471.553 301.41 470.463 301.41ZM478.279 300.537C479.75 300.537 480.711 301.598 480.711 303.232V304.416C480.711 306.045 479.75 307.105 478.279 307.105C477.359 307.105 476.686 306.713 476.41 306.016H476.299V309.145H475.285V300.643H476.27V301.615H476.375C476.709 300.912 477.371 300.537 478.279 300.537ZM477.992 301.451C476.943 301.451 476.275 302.201 476.275 303.373V304.287C476.275 305.465 476.943 306.215 477.992 306.215C479.041 306.215 479.709 305.459 479.709 304.287V303.373C479.709 302.201 479.041 301.451 477.992 301.451ZM494.99 307L494.316 306.133C493.648 306.807 492.852 307.152 491.938 307.152C490.455 307.152 489.418 306.186 489.418 304.809C489.418 303.883 489.922 303.098 490.953 302.424L491.223 302.242C490.578 301.457 490.273 300.789 490.273 300.18C490.273 299.107 491.053 298.369 492.166 298.369C493.268 298.369 494.035 299.107 494.035 300.18C494.035 301.029 493.619 301.633 492.459 302.395L494.281 304.686C494.498 304.176 494.609 303.572 494.633 302.787V302.734H495.482V302.822C495.447 303.859 495.242 304.715 494.844 305.412L496.15 307H494.99ZM492.16 299.189C491.586 299.189 491.152 299.617 491.152 300.191C491.152 300.666 491.375 301.117 491.961 301.82C492.875 301.217 493.168 300.812 493.168 300.191C493.168 299.617 492.734 299.189 492.16 299.189ZM491.486 303.039C490.713 303.52 490.355 304.07 490.355 304.762C490.355 305.67 491.006 306.279 491.973 306.279C492.729 306.279 493.379 306.004 493.807 305.494L491.721 302.887L491.486 303.039ZM507.951 300.537C509.422 300.537 510.383 301.598 510.383 303.232V304.416C510.383 306.045 509.422 307.105 507.951 307.105C507.031 307.105 506.357 306.713 506.082 306.016H505.971V309.145H504.957V300.643H505.941V301.615H506.047C506.381 300.912 507.043 300.537 507.951 300.537ZM507.664 301.451C506.615 301.451 505.947 302.201 505.947 303.373V304.287C505.947 305.465 506.615 306.215 507.664 306.215C508.713 306.215 509.381 305.459 509.381 304.287V303.373C509.381 302.201 508.713 301.451 507.664 301.451ZM512.363 307V298.146H513.324V301.768H513.406C513.74 300.977 514.473 300.531 515.445 300.531C516.828 300.531 517.578 301.363 517.578 302.881V307H516.582V303.133C516.582 301.99 516.113 301.445 515.117 301.445C514.068 301.445 513.359 302.178 513.359 303.262V307H512.363ZM522.389 307.117C520.707 307.117 519.635 306.021 519.635 304.305V303.344C519.635 301.627 520.707 300.531 522.389 300.531C524.07 300.531 525.143 301.627 525.143 303.344V304.305C525.143 306.021 524.07 307.117 522.389 307.117ZM522.389 301.41C521.299 301.41 520.619 302.184 520.619 303.432V304.211C520.619 305.465 521.299 306.232 522.389 306.232C523.479 306.232 524.158 305.465 524.158 304.211V303.432C524.158 302.184 523.479 301.41 522.389 301.41ZM527.205 307V300.643H528.16V301.762H528.242C528.582 300.971 529.309 300.525 530.275 300.525C531.658 300.525 532.408 301.352 532.408 302.875V307H531.412V303.127C531.412 301.979 530.943 301.439 529.953 301.439C528.904 301.439 528.201 302.172 528.201 303.256V307H527.205ZM538.941 305.359H539.908C539.715 306.408 538.707 307.117 537.371 307.117C535.625 307.117 534.611 306.068 534.611 304.258V303.303C534.611 301.627 535.684 300.525 537.301 300.525C538.953 300.525 539.926 301.621 539.926 303.461V304.082H535.596V304.34C535.596 305.506 536.287 306.256 537.371 306.256C538.174 306.256 538.766 305.916 538.941 305.359ZM537.295 301.381C536.234 301.381 535.596 302.107 535.596 303.326H538.941C538.941 302.113 538.32 301.381 537.295 301.381Z" fill="#0F6E56"></path>
<path d="M158 331V357" stroke="#73726C" stroke-width="1.5"></path>
<path d="M275 366H41C36.5817 366 33 369.582 33 374V414C33 418.418 36.5817 422 41 422H275C279.418 422 283 418.418 283 414V374C283 369.582 279.418 366 275 366Z" fill="#E1F5EE" stroke="#0F6E56" stroke-width="0.5"></path>
<path d="M73.3018 385.979V385.015H71.0254V383.982H74.5186V386.081C74.5186 387.934 73.124 389.205 71.1348 389.205C68.8174 389.205 67.4775 387.646 67.4775 384.946V383.189C67.4775 380.489 68.8174 378.931 71.1348 378.931C73.1855 378.931 74.4707 380.182 74.5186 382.226H73.3018C73.2471 380.94 72.3721 380.072 71.1143 380.072C69.5215 380.072 68.6943 381.146 68.6943 383.189V384.946C68.6943 386.99 69.5283 388.063 71.1211 388.063C72.4678 388.063 73.3018 387.271 73.3018 385.979ZM81.6143 387.086H82.7422C82.5166 388.31 81.3408 389.137 79.7822 389.137C77.7451 389.137 76.5625 387.913 76.5625 385.801V384.687C76.5625 382.731 77.8135 381.446 79.7002 381.446C81.6279 381.446 82.7627 382.725 82.7627 384.871V385.596H77.7109V385.896C77.7109 387.257 78.5176 388.132 79.7822 388.132C80.7188 388.132 81.4092 387.735 81.6143 387.086ZM79.6934 382.444C78.4561 382.444 77.7109 383.292 77.7109 384.714H81.6143C81.6143 383.299 80.8896 382.444 79.6934 382.444ZM85.2305 389V381.583H86.3447V382.889H86.4404C86.8369 381.966 87.6846 381.446 88.8125 381.446C90.4258 381.446 91.3008 382.41 91.3008 384.188V389H90.1387V384.481C90.1387 383.142 89.5918 382.513 88.4365 382.513C87.2129 382.513 86.3926 383.367 86.3926 384.632V389H85.2305ZM98.9229 387.086H100.051C99.8252 388.31 98.6494 389.137 97.0908 389.137C95.0537 389.137 93.8711 387.913 93.8711 385.801V384.687C93.8711 382.731 95.1221 381.446 97.0088 381.446C98.9365 381.446 100.071 382.725 100.071 384.871V385.596H95.0195V385.896C95.0195 387.257 95.8262 388.132 97.0908 388.132C98.0273 388.132 98.7178 387.735 98.9229 387.086ZM97.002 382.444C95.7646 382.444 95.0195 383.292 95.0195 384.714H98.9229C98.9229 383.299 98.1982 382.444 97.002 382.444ZM105.28 385.678V388.07H107.577V389H102.648V388.07H104.146V382.513H102.498V381.583H105.267V383.477H105.417C105.69 382.103 106.613 381.392 108.042 381.392C108.466 381.392 108.869 381.453 109.115 381.556V382.861C108.773 382.738 108.295 382.656 107.892 382.656C106.251 382.656 105.28 383.791 105.28 385.678ZM113.477 389.13C112.062 389.13 111.118 388.241 111.118 386.895C111.118 385.582 112.062 384.803 113.75 384.714L115.787 384.611V383.941C115.787 383.012 115.22 382.499 114.188 382.499C113.333 382.499 112.731 382.861 112.54 383.497H111.398C111.535 382.308 112.684 381.494 114.201 381.494C115.944 381.494 116.942 382.383 116.942 383.928V389.007H115.835V387.893H115.719C115.363 388.686 114.557 389.13 113.477 389.13ZM113.812 388.111C114.933 388.111 115.787 387.366 115.787 386.375V385.5L113.88 385.589C112.841 385.637 112.294 386.081 112.294 386.854C112.294 387.633 112.875 388.111 113.812 388.111ZM121.618 379.594H122.767V381.604H125.774V382.595H122.78V386.778C122.78 387.585 123.348 388.022 124.394 388.022C124.811 388.022 125.556 388.002 125.754 387.981V388.966C125.569 389 124.667 389.034 124.312 389.034C122.473 389.034 121.618 388.337 121.618 386.792V382.595H119.643V381.604H121.618V379.594ZM133.54 387.086H134.668C134.442 388.31 133.267 389.137 131.708 389.137C129.671 389.137 128.488 387.913 128.488 385.801V384.687C128.488 382.731 129.739 381.446 131.626 381.446C133.554 381.446 134.688 382.725 134.688 384.871V385.596H129.637V385.896C129.637 387.257 130.443 388.132 131.708 388.132C132.645 388.132 133.335 387.735 133.54 387.086ZM131.619 382.444C130.382 382.444 129.637 383.292 129.637 384.714H133.54C133.54 383.299 132.815 382.444 131.619 382.444ZM146.146 383.586C146.146 382.301 147.239 381.439 148.873 381.439C150.418 381.439 151.464 382.212 151.601 383.449H150.479C150.343 382.8 149.721 382.403 148.853 382.403C147.909 382.403 147.301 382.841 147.301 383.518C147.301 384.085 147.684 384.406 148.613 384.611L149.659 384.851C151.102 385.179 151.758 385.808 151.758 386.881C151.758 388.248 150.616 389.137 148.859 389.137C147.178 389.137 146.063 388.351 145.934 387.079H147.116C147.287 387.763 147.943 388.159 148.9 388.159C149.912 388.159 150.555 387.701 150.555 386.99C150.555 386.402 150.192 386.088 149.249 385.876L148.148 385.623C146.809 385.315 146.146 384.639 146.146 383.586ZM156.235 379.594H157.384V381.604H160.392V382.595H157.397V386.778C157.397 387.585 157.965 388.022 159.011 388.022C159.428 388.022 160.173 388.002 160.371 387.981V388.966C160.187 389 159.284 389.034 158.929 389.034C157.09 389.034 156.235 388.337 156.235 386.792V382.595H154.26V381.604H156.235V379.594ZM165.402 389.13C163.987 389.13 163.044 388.241 163.044 386.895C163.044 385.582 163.987 384.803 165.676 384.714L167.713 384.611V383.941C167.713 383.012 167.146 382.499 166.113 382.499C165.259 382.499 164.657 382.861 164.466 383.497H163.324C163.461 382.308 164.609 381.494 166.127 381.494C167.87 381.494 168.868 382.383 168.868 383.928V389.007H167.761V387.893H167.645C167.289 388.686 166.482 389.13 165.402 389.13ZM165.737 388.111C166.858 388.111 167.713 387.366 167.713 386.375V385.5L165.806 385.589C164.767 385.637 164.22 386.081 164.22 386.854C164.22 387.633 164.801 388.111 165.737 388.111ZM173.544 379.594H174.692V381.604H177.7V382.595H174.706V386.778C174.706 387.585 175.273 388.022 176.319 388.022C176.736 388.022 177.481 388.002 177.68 387.981V388.966C177.495 389 176.593 389.034 176.237 389.034C174.398 389.034 173.544 388.337 173.544 386.792V382.595H171.568V381.604H173.544V379.594ZM183.593 379.765C183.046 379.765 182.629 379.354 182.629 378.808C182.629 378.268 183.046 377.857 183.593 377.857C184.14 377.857 184.557 378.268 184.557 378.808C184.557 379.354 184.14 379.765 183.593 379.765ZM186.703 389H180.558V388.036H183.101V382.547H180.578V381.583H184.249V388.036H186.703V389ZM195.207 383.894H194.059C193.915 383.025 193.19 382.479 192.233 382.479C190.941 382.479 190.224 383.36 190.224 384.953V385.623C190.224 387.216 190.941 388.091 192.233 388.091C193.19 388.091 193.915 387.551 194.059 386.703H195.207C195.022 388.214 193.895 389.137 192.254 389.137C190.237 389.137 189.062 387.899 189.062 385.773V384.803C189.062 382.677 190.237 381.439 192.254 381.439C193.895 381.439 195.016 382.369 195.207 383.894ZM208.332 389V382.595H206.343V381.604H208.332V380.858C208.332 379.423 209.221 378.753 211.046 378.753C211.477 378.753 212.509 378.787 212.755 378.821V379.771C212.434 379.737 211.477 379.71 211.06 379.71C210.027 379.71 209.48 380.093 209.48 380.838V381.604H212.755V382.595H209.494V389H208.332ZM218.21 379.765C217.663 379.765 217.246 379.354 217.246 378.808C217.246 378.268 217.663 377.857 218.21 377.857C218.757 377.857 219.174 378.268 219.174 378.808C219.174 379.354 218.757 379.765 218.21 379.765ZM221.32 389H215.175V388.036H217.718V382.547H215.195V381.583H218.866V388.036H221.32V389ZM229.975 389H223.829V388.036H226.365V379.635H223.85V378.671H227.527V388.036H229.975V389ZM237.392 387.086H238.52C238.294 388.31 237.118 389.137 235.56 389.137C233.522 389.137 232.34 387.913 232.34 385.801V384.687C232.34 382.731 233.591 381.446 235.478 381.446C237.405 381.446 238.54 382.725 238.54 384.871V385.596H233.488V385.896C233.488 387.257 234.295 388.132 235.56 388.132C236.496 388.132 237.187 387.735 237.392 387.086ZM235.471 382.444C234.233 382.444 233.488 383.292 233.488 384.714H237.392C237.392 383.299 236.667 382.444 235.471 382.444ZM241.343 383.586C241.343 382.301 242.437 381.439 244.07 381.439C245.615 381.439 246.661 382.212 246.798 383.449H245.677C245.54 382.8 244.918 382.403 244.05 382.403C243.106 382.403 242.498 382.841 242.498 383.518C242.498 384.085 242.881 384.406 243.811 384.611L244.856 384.851C246.299 385.179 246.955 385.808 246.955 386.881C246.955 388.248 245.813 389.137 244.057 389.137C242.375 389.137 241.261 388.351 241.131 387.079H242.313C242.484 387.763 243.141 388.159 244.098 388.159C245.109 388.159 245.752 387.701 245.752 386.99C245.752 386.402 245.39 386.088 244.446 385.876L243.346 385.623C242.006 385.315 241.343 384.639 241.343 383.586Z" fill="#085041"></path>
<path d="M75.7188 409H74.6816V400.545H79.668V401.494H75.7188V404.395H79.3281V405.314H75.7188V409ZM86.9219 402.643V409H85.9668V407.881H85.8848C85.5449 408.672 84.8184 409.117 83.8516 409.117C82.4688 409.117 81.7188 408.291 81.7188 406.768V402.643H82.7148V406.516C82.7148 407.664 83.1836 408.203 84.1738 408.203C85.2227 408.203 85.9258 407.471 85.9258 406.387V402.643H86.9219ZM94.5156 409H89.248V408.174H91.4219V400.973H89.2656V400.146H92.418V408.174H94.5156V409ZM101.934 409H96.666V408.174H98.8398V400.973H96.6836V400.146H99.8359V408.174H101.934V409ZM111.678 404.359C111.678 403.258 112.615 402.52 114.016 402.52C115.34 402.52 116.236 403.182 116.354 404.242H115.393C115.275 403.686 114.742 403.346 113.998 403.346C113.189 403.346 112.668 403.721 112.668 404.301C112.668 404.787 112.996 405.062 113.793 405.238L114.689 405.443C115.926 405.725 116.488 406.264 116.488 407.184C116.488 408.355 115.51 409.117 114.004 409.117C112.562 409.117 111.607 408.443 111.496 407.354H112.51C112.656 407.939 113.219 408.279 114.039 408.279C114.906 408.279 115.457 407.887 115.457 407.277C115.457 406.773 115.146 406.504 114.338 406.322L113.395 406.105C112.246 405.842 111.678 405.262 111.678 404.359ZM120.326 400.938H121.311V402.66H123.889V403.51H121.322V407.096C121.322 407.787 121.809 408.162 122.705 408.162C123.062 408.162 123.701 408.145 123.871 408.127V408.971C123.713 409 122.939 409.029 122.635 409.029C121.059 409.029 120.326 408.432 120.326 407.107V403.51H118.633V402.66H120.326V400.938ZM128.184 409.111C126.971 409.111 126.162 408.35 126.162 407.195C126.162 406.07 126.971 405.402 128.418 405.326L130.164 405.238V404.664C130.164 403.867 129.678 403.428 128.793 403.428C128.061 403.428 127.545 403.738 127.381 404.283H126.402C126.52 403.264 127.504 402.566 128.805 402.566C130.299 402.566 131.154 403.328 131.154 404.652V409.006H130.205V408.051H130.105C129.801 408.73 129.109 409.111 128.184 409.111ZM128.471 408.238C129.432 408.238 130.164 407.6 130.164 406.75V406L128.529 406.076C127.639 406.117 127.17 406.498 127.17 407.16C127.17 407.828 127.668 408.238 128.471 408.238ZM135.162 400.938H136.146V402.66H138.725V403.51H136.158V407.096C136.158 407.787 136.645 408.162 137.541 408.162C137.898 408.162 138.537 408.145 138.707 408.127V408.971C138.549 409 137.775 409.029 137.471 409.029C135.895 409.029 135.162 408.432 135.162 407.107V403.51H133.469V402.66H135.162V400.938ZM143.775 401.084C143.307 401.084 142.949 400.732 142.949 400.264C142.949 399.801 143.307 399.449 143.775 399.449C144.244 399.449 144.602 399.801 144.602 400.264C144.602 400.732 144.244 401.084 143.775 401.084ZM146.441 409H141.174V408.174H143.354V403.469H141.191V402.643H144.338V408.174H146.441V409ZM153.73 404.623H152.746C152.623 403.879 152.002 403.41 151.182 403.41C150.074 403.41 149.459 404.166 149.459 405.531V406.105C149.459 407.471 150.074 408.221 151.182 408.221C152.002 408.221 152.623 407.758 152.746 407.031H153.73C153.572 408.326 152.605 409.117 151.199 409.117C149.471 409.117 148.463 408.057 148.463 406.234V405.402C148.463 403.58 149.471 402.52 151.199 402.52C152.605 402.52 153.566 403.316 153.73 404.623ZM168.73 409H167.705V405.156H164.131V409H163.105V400.545H164.131V404.207H167.705V400.545H168.73V409ZM173.852 409H172.82V401.494H170.266V400.545H176.406V401.494H173.852V409ZM178.627 405.754V409H177.707V400.545H178.861L180.719 405.795H180.795L182.641 400.545H183.801V409H182.881V405.754L182.934 402.332H182.857L181.158 407.014H180.35L178.65 402.332H178.574L178.627 405.754ZM191.037 408.039V409H186.004V400.545H187.029V408.039H191.037ZM203.008 409.117C201.326 409.117 200.254 408.021 200.254 406.305V405.344C200.254 403.627 201.326 402.531 203.008 402.531C204.689 402.531 205.762 403.627 205.762 405.344V406.305C205.762 408.021 204.689 409.117 203.008 409.117ZM203.008 403.41C201.918 403.41 201.238 404.184 201.238 405.432V406.211C201.238 407.465 201.918 408.232 203.008 408.232C204.098 408.232 204.777 407.465 204.777 406.211V405.432C204.777 404.184 204.098 403.41 203.008 403.41ZM213.027 402.643V409H212.072V407.881H211.99C211.65 408.672 210.924 409.117 209.957 409.117C208.574 409.117 207.824 408.291 207.824 406.768V402.643H208.82V406.516C208.82 407.664 209.289 408.203 210.279 408.203C211.328 408.203 212.031 407.471 212.031 406.387V402.643H213.027ZM216.76 400.938H217.744V402.66H220.322V403.51H217.756V407.096C217.756 407.787 218.242 408.162 219.139 408.162C219.496 408.162 220.135 408.145 220.305 408.127V408.971C220.146 409 219.373 409.029 219.068 409.029C217.492 409.029 216.76 408.432 216.76 407.107V403.51H215.066V402.66H216.76V400.938ZM225.66 402.537C227.131 402.537 228.092 403.598 228.092 405.232V406.416C228.092 408.045 227.131 409.105 225.66 409.105C224.74 409.105 224.066 408.713 223.791 408.016H223.68V411.145H222.666V402.643H223.65V403.615H223.756C224.09 402.912 224.752 402.537 225.66 402.537ZM225.373 403.451C224.324 403.451 223.656 404.201 223.656 405.373V406.287C223.656 407.465 224.324 408.215 225.373 408.215C226.422 408.215 227.09 407.459 227.09 406.287V405.373C227.09 404.201 226.422 403.451 225.373 403.451ZM235.281 402.643V409H234.326V407.881H234.244C233.904 408.672 233.178 409.117 232.211 409.117C230.828 409.117 230.078 408.291 230.078 406.768V402.643H231.074V406.516C231.074 407.664 231.543 408.203 232.533 408.203C233.582 408.203 234.285 407.471 234.285 406.387V402.643H235.281ZM239.014 400.938H239.998V402.66H242.576V403.51H240.01V407.096C240.01 407.787 240.496 408.162 241.393 408.162C241.75 408.162 242.389 408.145 242.559 408.127V408.971C242.4 409 241.627 409.029 241.322 409.029C239.746 409.029 239.014 408.432 239.014 407.107V403.51H237.32V402.66H239.014V400.938Z" fill="#0F6E56"></path>
<path d="M301 481V521" stroke="#73726C" stroke-width="1.5"></path>
<path d="M1.9375 512.545H4.30469C6.70117 512.545 7.9082 513.957 7.9082 516.758C7.9082 519.582 6.70117 521 4.30469 521H1.9375V512.545ZM2.97461 513.494V520.051H4.21094C6.00391 520.051 6.85352 519.002 6.85352 516.764C6.85352 514.549 5.99805 513.494 4.21094 513.494H2.97461ZM14.7578 520.051V521H9.76562V512.545H14.7578V513.494H10.8027V516.236H14.541V517.145H10.8027V520.051H14.7578ZM16.9961 512.545H19.8086C21.4492 512.545 22.5215 513.617 22.5215 515.258C22.5215 516.893 21.4375 517.965 19.7852 517.965H18.0332V521H16.9961V512.545ZM18.0332 513.465V517.045H19.5508C20.7812 517.045 21.4727 516.406 21.4727 515.258C21.4727 514.104 20.7812 513.465 19.5508 513.465H18.0332ZM29.8281 520.039V521H24.7949V512.545H25.8203V520.039H29.8281ZM37.4805 517.455C37.4805 519.793 36.3027 521.176 34.3809 521.176C32.459 521.176 31.2812 519.793 31.2812 517.455V516.09C31.2812 513.752 32.459 512.369 34.3809 512.369C36.3027 512.369 37.4805 513.752 37.4805 516.09V517.455ZM34.3809 520.197C35.6641 520.197 36.4375 519.213 36.4375 517.449V516.096C36.4375 514.332 35.6641 513.348 34.3809 513.348C33.0977 513.348 32.3242 514.332 32.3242 516.096V517.449C32.3242 519.213 33.0977 520.197 34.3809 520.197ZM42.3145 521H41.2832V517.514L38.4648 512.545H39.6191L41.7578 516.412H41.8398L43.9785 512.545H45.1328L42.3145 517.514V521Z" fill="#3D3D3A"></path>
<path d="M585 536H17C8.16344 536 1 543.163 1 552V640C1 648.837 8.16344 656 17 656H585C593.837 656 601 648.837 601 640V552C601 543.163 593.837 536 585 536Z" fill="#FAECE7" stroke="#993C1D" stroke-width="0.5"></path>
<path d="M275 568H41C36.5817 568 33 571.582 33 576V616C33 620.418 36.5817 624 41 624H275C279.418 624 283 620.418 283 616V576C283 571.582 279.418 568 275 568Z" fill="#FAECE7" stroke="#993C1D" stroke-width="0.5"></path>
<path d="M103.341 581.136H106.103C108.898 581.136 110.307 582.783 110.307 586.051C110.307 589.346 108.898 591 106.103 591H103.341V581.136ZM104.551 582.243V589.893H105.993C108.085 589.893 109.076 588.669 109.076 586.058C109.076 583.474 108.078 582.243 105.993 582.243H104.551ZM117.231 589.086H118.359C118.134 590.31 116.958 591.137 115.399 591.137C113.362 591.137 112.18 589.913 112.18 587.801V586.687C112.18 584.731 113.431 583.446 115.317 583.446C117.245 583.446 118.38 584.725 118.38 586.871V587.596H113.328V587.896C113.328 589.257 114.135 590.132 115.399 590.132C116.336 590.132 117.026 589.735 117.231 589.086ZM115.311 584.444C114.073 584.444 113.328 585.292 113.328 586.714H117.231C117.231 585.299 116.507 584.444 115.311 584.444ZM124.348 583.46C126.063 583.46 127.185 584.697 127.185 586.604V587.985C127.185 589.886 126.063 591.123 124.348 591.123C123.274 591.123 122.488 590.665 122.167 589.852H122.037V593.502H120.854V583.583H122.003V584.718H122.126C122.516 583.897 123.288 583.46 124.348 583.46ZM124.013 584.526C122.789 584.526 122.01 585.401 122.01 586.769V587.835C122.01 589.209 122.789 590.084 124.013 590.084C125.236 590.084 126.016 589.202 126.016 587.835V586.769C126.016 585.401 125.236 584.526 124.013 584.526ZM135.777 591H129.632V590.036H132.168V581.635H129.652V580.671H133.33V590.036H135.777V591ZM141.191 591.137C139.229 591.137 137.979 589.858 137.979 587.855V586.734C137.979 584.731 139.229 583.453 141.191 583.453C143.153 583.453 144.404 584.731 144.404 586.734V587.855C144.404 589.858 143.153 591.137 141.191 591.137ZM141.191 584.479C139.92 584.479 139.127 585.381 139.127 586.837V587.746C139.127 589.209 139.92 590.104 141.191 590.104C142.463 590.104 143.256 589.209 143.256 587.746V586.837C143.256 585.381 142.463 584.479 141.191 584.479ZM147.768 593.639C147.597 593.639 147.371 593.632 147.269 593.618V592.6C147.357 592.62 147.569 592.627 147.679 592.627C148.376 592.627 148.759 592.312 149.066 591.451L149.196 591.048L146.469 583.583H147.733L149.812 589.79H149.9L151.972 583.583H153.209L150.413 591.273C149.764 593.099 149.142 593.639 147.768 593.639ZM164.454 585.586C164.454 584.301 165.548 583.439 167.182 583.439C168.727 583.439 169.772 584.212 169.909 585.449H168.788C168.651 584.8 168.029 584.403 167.161 584.403C166.218 584.403 165.609 584.841 165.609 585.518C165.609 586.085 165.992 586.406 166.922 586.611L167.968 586.851C169.41 587.179 170.066 587.808 170.066 588.881C170.066 590.248 168.925 591.137 167.168 591.137C165.486 591.137 164.372 590.351 164.242 589.079H165.425C165.596 589.763 166.252 590.159 167.209 590.159C168.221 590.159 168.863 589.701 168.863 588.99C168.863 588.402 168.501 588.088 167.558 587.876L166.457 587.623C165.117 587.315 164.454 586.639 164.454 585.586ZM178.898 585.894H177.75C177.606 585.025 176.882 584.479 175.925 584.479C174.633 584.479 173.915 585.36 173.915 586.953V587.623C173.915 589.216 174.633 590.091 175.925 590.091C176.882 590.091 177.606 589.551 177.75 588.703H178.898C178.714 590.214 177.586 591.137 175.945 591.137C173.929 591.137 172.753 589.899 172.753 587.773V586.803C172.753 584.677 173.929 583.439 175.945 583.439C177.586 583.439 178.707 584.369 178.898 585.894ZM184.169 587.678V590.07H186.466V591H181.537V590.07H183.034V584.513H181.387V583.583H184.155V585.477H184.306C184.579 584.103 185.502 583.392 186.931 583.392C187.354 583.392 187.758 583.453 188.004 583.556V584.861C187.662 584.738 187.184 584.656 186.78 584.656C185.14 584.656 184.169 585.791 184.169 587.678ZM193.247 581.765C192.7 581.765 192.283 581.354 192.283 580.808C192.283 580.268 192.7 579.857 193.247 579.857C193.794 579.857 194.211 580.268 194.211 580.808C194.211 581.354 193.794 581.765 193.247 581.765ZM196.357 591H190.212V590.036H192.755V584.547H190.232V583.583H193.903V590.036H196.357V591ZM202.236 583.46C203.952 583.46 205.073 584.697 205.073 586.604V587.985C205.073 589.886 203.952 591.123 202.236 591.123C201.163 591.123 200.377 590.665 200.056 589.852H199.926V593.502H198.743V583.583H199.892V584.718H200.015C200.404 583.897 201.177 583.46 202.236 583.46ZM201.901 584.526C200.678 584.526 199.898 585.401 199.898 586.769V587.835C199.898 589.209 200.678 590.084 201.901 590.084C203.125 590.084 203.904 589.202 203.904 587.835V586.769C203.904 585.401 203.125 584.526 201.901 584.526ZM209.161 581.594H210.31V583.604H213.317V584.595H210.323V588.778C210.323 589.585 210.891 590.022 211.937 590.022C212.354 590.022 213.099 590.002 213.297 589.981V590.966C213.112 591 212.21 591.034 211.854 591.034C210.016 591.034 209.161 590.337 209.161 588.792V584.595H207.186V583.604H209.161V581.594Z" fill="#712B13"></path>
<path d="M63.0039 602.545H65.3711C67.7676 602.545 68.9746 603.957 68.9746 606.758C68.9746 609.582 67.7676 611 65.3711 611H63.0039V602.545ZM64.041 603.494V610.051H65.2773C67.0703 610.051 67.9199 609.002 67.9199 606.764C67.9199 604.549 67.0645 603.494 65.2773 603.494H64.041ZM73.3047 603.084C72.8359 603.084 72.4785 602.732 72.4785 602.264C72.4785 601.801 72.8359 601.449 73.3047 601.449C73.7734 601.449 74.1309 601.801 74.1309 602.264C74.1309 602.732 73.7734 603.084 73.3047 603.084ZM75.9707 611H70.7031V610.174H72.8828V605.469H70.7207V604.643H73.8672V610.174H75.9707V611ZM78.2969 606.359C78.2969 605.258 79.2344 604.52 80.6348 604.52C81.959 604.52 82.8555 605.182 82.9727 606.242H82.0117C81.8945 605.686 81.3613 605.346 80.6172 605.346C79.8086 605.346 79.2871 605.721 79.2871 606.301C79.2871 606.787 79.6152 607.062 80.4121 607.238L81.3086 607.443C82.5449 607.725 83.1074 608.264 83.1074 609.184C83.1074 610.355 82.1289 611.117 80.623 611.117C79.1816 611.117 78.2266 610.443 78.1152 609.354H79.1289C79.2754 609.939 79.8379 610.279 80.6582 610.279C81.5254 610.279 82.0762 609.887 82.0762 609.277C82.0762 608.773 81.7656 608.504 80.957 608.322L80.0137 608.105C78.8652 607.842 78.2969 607.262 78.2969 606.359ZM88.4277 604.537C89.8984 604.537 90.8594 605.598 90.8594 607.232V608.416C90.8594 610.045 89.8984 611.105 88.4277 611.105C87.5078 611.105 86.834 610.713 86.5586 610.016H86.4473V613.145H85.4336V604.643H86.418V605.615H86.5234C86.8574 604.912 87.5195 604.537 88.4277 604.537ZM88.1406 605.451C87.0918 605.451 86.4238 606.201 86.4238 607.373V608.287C86.4238 609.465 87.0918 610.215 88.1406 610.215C89.1895 610.215 89.8574 609.459 89.8574 608.287V607.373C89.8574 606.201 89.1895 605.451 88.1406 605.451ZM95.4473 611.117C93.7656 611.117 92.6934 610.021 92.6934 608.305V607.344C92.6934 605.627 93.7656 604.531 95.4473 604.531C97.1289 604.531 98.2012 605.627 98.2012 607.344V608.305C98.2012 610.021 97.1289 611.117 95.4473 611.117ZM95.4473 605.41C94.3574 605.41 93.6777 606.184 93.6777 607.432V608.211C93.6777 609.465 94.3574 610.232 95.4473 610.232C96.5371 610.232 97.2168 609.465 97.2168 608.211V607.432C97.2168 606.184 96.5371 605.41 95.4473 605.41ZM100.551 606.359C100.551 605.258 101.488 604.52 102.889 604.52C104.213 604.52 105.109 605.182 105.227 606.242H104.266C104.148 605.686 103.615 605.346 102.871 605.346C102.062 605.346 101.541 605.721 101.541 606.301C101.541 606.787 101.869 607.062 102.666 607.238L103.562 607.443C104.799 607.725 105.361 608.264 105.361 609.184C105.361 610.355 104.383 611.117 102.877 611.117C101.436 611.117 100.48 610.443 100.369 609.354H101.383C101.529 609.939 102.092 610.279 102.912 610.279C103.779 610.279 104.33 609.887 104.33 609.277C104.33 608.773 104.02 608.504 103.211 608.322L102.268 608.105C101.119 607.842 100.551 607.262 100.551 606.359ZM109.639 611.111C108.426 611.111 107.617 610.35 107.617 609.195C107.617 608.07 108.426 607.402 109.873 607.326L111.619 607.238V606.664C111.619 605.867 111.133 605.428 110.248 605.428C109.516 605.428 109 605.738 108.836 606.283H107.857C107.975 605.264 108.959 604.566 110.26 604.566C111.754 604.566 112.609 605.328 112.609 606.652V611.006H111.66V610.051H111.561C111.256 610.73 110.564 611.111 109.639 611.111ZM109.926 610.238C110.887 610.238 111.619 609.6 111.619 608.75V608L109.984 608.076C109.094 608.117 108.625 608.498 108.625 609.16C108.625 609.828 109.123 610.238 109.926 610.238ZM118.1 611.105C117.191 611.105 116.523 610.73 116.195 610.027H116.084V611H115.105V602.146H116.119V605.627H116.225C116.506 604.93 117.18 604.537 118.1 604.537C119.57 604.537 120.531 605.598 120.531 607.227V608.41C120.531 610.045 119.57 611.105 118.1 611.105ZM117.807 610.197C118.861 610.197 119.529 609.441 119.529 608.27V607.355C119.529 606.184 118.861 605.434 117.807 605.434C116.764 605.434 116.096 606.184 116.096 607.355V608.27C116.096 609.447 116.764 610.197 117.807 610.197ZM127.896 611H122.629V610.174H124.803V602.973H122.646V602.146H125.799V610.174H127.896V611ZM134.254 609.359H135.221C135.027 610.408 134.02 611.117 132.684 611.117C130.938 611.117 129.924 610.068 129.924 608.258V607.303C129.924 605.627 130.996 604.525 132.613 604.525C134.266 604.525 135.238 605.621 135.238 607.461V608.082H130.908V608.34C130.908 609.506 131.6 610.256 132.684 610.256C133.486 610.256 134.078 609.916 134.254 609.359ZM132.607 605.381C131.547 605.381 130.908 606.107 130.908 607.326H134.254C134.254 606.113 133.633 605.381 132.607 605.381ZM147.186 613.385C145.715 613.385 144.73 612.74 144.602 611.686H145.586C145.715 612.213 146.354 612.559 147.203 612.559C148.316 612.559 148.932 611.996 148.932 610.977V609.986H148.826C148.545 610.654 147.842 611.059 146.916 611.059C145.445 611.059 144.479 609.998 144.479 608.369V607.227C144.479 605.592 145.451 604.537 146.939 604.537C147.859 604.537 148.557 604.941 148.832 605.627H148.943V604.643H149.928V611C149.928 612.494 148.908 613.385 147.186 613.385ZM145.48 608.229C145.48 609.395 146.16 610.156 147.215 610.156C148.264 610.156 148.938 609.4 148.938 608.229V607.355C148.938 606.184 148.264 605.434 147.215 605.434C146.16 605.434 145.48 606.189 145.48 607.355V608.229ZM152.184 611V602.146H153.145V605.768H153.227C153.561 604.977 154.293 604.531 155.266 604.531C156.648 604.531 157.398 605.363 157.398 606.881V611H156.402V607.133C156.402 605.99 155.934 605.445 154.938 605.445C153.889 605.445 153.18 606.178 153.18 607.262V611H152.184ZM165.309 607.713H159.109V606.787H165.309V607.713ZM170.025 604.537C171.496 604.537 172.457 605.598 172.457 607.232V608.416C172.457 610.045 171.496 611.105 170.025 611.105C169.105 611.105 168.432 610.713 168.156 610.016H168.045V613.145H167.031V604.643H168.016V605.615H168.121C168.455 604.912 169.117 604.537 170.025 604.537ZM169.738 605.451C168.689 605.451 168.021 606.201 168.021 607.373V608.287C168.021 609.465 168.689 610.215 169.738 610.215C170.787 610.215 171.455 609.459 171.455 608.287V607.373C171.455 606.201 170.787 605.451 169.738 605.451ZM176.4 611.111C175.188 611.111 174.379 610.35 174.379 609.195C174.379 608.07 175.188 607.402 176.635 607.326L178.381 607.238V606.664C178.381 605.867 177.895 605.428 177.01 605.428C176.277 605.428 175.762 605.738 175.598 606.283H174.619C174.736 605.264 175.721 604.566 177.021 604.566C178.516 604.566 179.371 605.328 179.371 606.652V611.006H178.422V610.051H178.322C178.018 610.73 177.326 611.111 176.4 611.111ZM176.688 610.238C177.648 610.238 178.381 609.6 178.381 608.75V608L176.746 608.076C175.855 608.117 175.387 608.498 175.387 609.16C175.387 609.828 175.885 610.238 176.688 610.238ZM184.275 613.385C182.805 613.385 181.82 612.74 181.691 611.686H182.676C182.805 612.213 183.443 612.559 184.293 612.559C185.406 612.559 186.021 611.996 186.021 610.977V609.986H185.916C185.635 610.654 184.932 611.059 184.006 611.059C182.535 611.059 181.568 609.998 181.568 608.369V607.227C181.568 605.592 182.541 604.537 184.029 604.537C184.949 604.537 185.646 604.941 185.922 605.627H186.033V604.643H187.018V611C187.018 612.494 185.998 613.385 184.275 613.385ZM182.57 608.229C182.57 609.395 183.25 610.156 184.305 610.156C185.354 610.156 186.027 609.4 186.027 608.229V607.355C186.027 606.184 185.354 605.434 184.305 605.434C183.25 605.434 182.57 606.189 182.57 607.355V608.229ZM193.598 609.359H194.564C194.371 610.408 193.363 611.117 192.027 611.117C190.281 611.117 189.268 610.068 189.268 608.258V607.303C189.268 605.627 190.34 604.525 191.957 604.525C193.609 604.525 194.582 605.621 194.582 607.461V608.082H190.252V608.34C190.252 609.506 190.943 610.256 192.027 610.256C192.83 610.256 193.422 609.916 193.598 609.359ZM191.951 605.381C190.891 605.381 190.252 606.107 190.252 607.326H193.598C193.598 606.113 192.977 605.381 191.951 605.381ZM196.984 606.359C196.984 605.258 197.922 604.52 199.322 604.52C200.646 604.52 201.543 605.182 201.66 606.242H200.699C200.582 605.686 200.049 605.346 199.305 605.346C198.496 605.346 197.975 605.721 197.975 606.301C197.975 606.787 198.303 607.062 199.1 607.238L199.996 607.443C201.232 607.725 201.795 608.264 201.795 609.184C201.795 610.355 200.816 611.117 199.311 611.117C197.869 611.117 196.914 610.443 196.803 609.354H197.816C197.963 609.939 198.525 610.279 199.346 610.279C200.213 610.279 200.764 609.887 200.764 609.277C200.764 608.773 200.453 608.504 199.645 608.322L198.701 608.105C197.553 607.842 196.984 607.262 196.984 606.359ZM214.533 611.105C213.625 611.105 212.957 610.73 212.629 610.027H212.518V611H211.539V602.146H212.553V605.627H212.658C212.939 604.93 213.613 604.537 214.533 604.537C216.004 604.537 216.965 605.598 216.965 607.227V608.41C216.965 610.045 216.004 611.105 214.533 611.105ZM214.24 610.197C215.295 610.197 215.963 609.441 215.963 608.27V607.355C215.963 606.184 215.295 605.434 214.24 605.434C213.197 605.434 212.529 606.184 212.529 607.355V608.27C212.529 609.447 213.197 610.197 214.24 610.197ZM221.301 608.152V610.203H223.27V611H219.045V610.203H220.328V605.439H218.916V604.643H221.289V606.266H221.418C221.652 605.088 222.443 604.479 223.668 604.479C224.031 604.479 224.377 604.531 224.588 604.619V605.738C224.295 605.633 223.885 605.562 223.539 605.562C222.133 605.562 221.301 606.535 221.301 608.152ZM228.326 611.111C227.113 611.111 226.305 610.35 226.305 609.195C226.305 608.07 227.113 607.402 228.561 607.326L230.307 607.238V606.664C230.307 605.867 229.82 605.428 228.936 605.428C228.203 605.428 227.688 605.738 227.523 606.283H226.545C226.662 605.264 227.646 604.566 228.947 604.566C230.441 604.566 231.297 605.328 231.297 606.652V611.006H230.348V610.051H230.248C229.943 610.73 229.252 611.111 228.326 611.111ZM228.613 610.238C229.574 610.238 230.307 609.6 230.307 608.75V608L228.672 608.076C227.781 608.117 227.312 608.498 227.312 609.16C227.312 609.828 227.811 610.238 228.613 610.238ZM233.787 611V604.643H234.742V605.762H234.824C235.164 604.971 235.891 604.525 236.857 604.525C238.24 604.525 238.99 605.352 238.99 606.875V611H237.994V607.127C237.994 605.979 237.525 605.439 236.535 605.439C235.486 605.439 234.783 606.172 234.783 607.256V611H233.787ZM246.455 606.623H245.471C245.348 605.879 244.727 605.41 243.906 605.41C242.799 605.41 242.184 606.166 242.184 607.531V608.105C242.184 609.471 242.799 610.221 243.906 610.221C244.727 610.221 245.348 609.758 245.471 609.031H246.455C246.297 610.326 245.33 611.117 243.924 611.117C242.195 611.117 241.188 610.057 241.188 608.234V607.402C241.188 605.58 242.195 604.52 243.924 604.52C245.33 604.52 246.291 605.316 246.455 606.623ZM248.617 611V602.146H249.578V605.768H249.66C249.994 604.977 250.727 604.531 251.699 604.531C253.082 604.531 253.832 605.363 253.832 606.881V611H252.836V607.133C252.836 605.99 252.367 605.445 251.371 605.445C250.322 605.445 249.613 606.178 249.613 607.262V611H248.617Z" fill="#993C1D"></path>
<path d="M561 568H327C322.582 568 319 571.582 319 576V616C319 620.418 322.582 624 327 624H561C565.418 624 569 620.418 569 616V576C569 571.582 565.418 568 561 568Z" fill="#FAECE7" stroke="#993C1D" stroke-width="0.5"></path>
<path d="M398.746 587.979V587.015H396.47V585.982H399.963V588.081C399.963 589.934 398.568 591.205 396.579 591.205C394.262 591.205 392.922 589.646 392.922 586.946V585.189C392.922 582.489 394.262 580.931 396.579 580.931C398.63 580.931 399.915 582.182 399.963 584.226H398.746C398.691 582.94 397.816 582.072 396.559 582.072C394.966 582.072 394.139 583.146 394.139 585.189V586.946C394.139 588.99 394.973 590.063 396.565 590.063C397.912 590.063 398.746 589.271 398.746 587.979ZM405.186 581.765C404.639 581.765 404.222 581.354 404.222 580.808C404.222 580.268 404.639 579.857 405.186 579.857C405.732 579.857 406.149 580.268 406.149 580.808C406.149 581.354 405.732 581.765 405.186 581.765ZM408.296 591H402.15V590.036H404.693V584.547H402.171V583.583H405.842V590.036H408.296V591ZM412.445 581.594H413.594V583.604H416.602V584.595H413.607V588.778C413.607 589.585 414.175 590.022 415.221 590.022C415.638 590.022 416.383 590.002 416.581 589.981V590.966C416.396 591 415.494 591.034 415.139 591.034C413.3 591.034 412.445 590.337 412.445 588.792V584.595H410.47V583.604H412.445V581.594ZM425.646 591H424.449V586.516H420.279V591H419.083V581.136H420.279V585.408H424.449V581.136H425.646V591ZM434.054 583.583V591H432.939V589.694H432.844C432.447 590.617 431.6 591.137 430.472 591.137C428.858 591.137 427.983 590.173 427.983 588.396V583.583H429.146V588.102C429.146 589.441 429.692 590.07 430.848 590.07C432.071 590.07 432.892 589.216 432.892 587.951V583.583H434.054ZM440.138 591.123C439.078 591.123 438.299 590.686 437.916 589.865H437.786V591H436.645V580.671H437.827V584.731H437.95C438.278 583.918 439.064 583.46 440.138 583.46C441.854 583.46 442.975 584.697 442.975 586.598V587.979C442.975 589.886 441.854 591.123 440.138 591.123ZM439.796 590.063C441.026 590.063 441.806 589.182 441.806 587.814V586.748C441.806 585.381 441.026 584.506 439.796 584.506C438.579 584.506 437.8 585.381 437.8 586.748V587.814C437.8 589.188 438.579 590.063 439.796 590.063ZM454.008 581.136H457.289C459.203 581.136 460.454 582.387 460.454 584.301C460.454 586.208 459.189 587.459 457.262 587.459H455.218V591H454.008V581.136ZM455.218 582.209V586.386H456.988C458.424 586.386 459.23 585.641 459.23 584.301C459.23 582.954 458.424 582.209 456.988 582.209H455.218ZM464.884 591.13C463.469 591.13 462.525 590.241 462.525 588.895C462.525 587.582 463.469 586.803 465.157 586.714L467.194 586.611V585.941C467.194 585.012 466.627 584.499 465.595 584.499C464.74 584.499 464.139 584.861 463.947 585.497H462.806C462.942 584.308 464.091 583.494 465.608 583.494C467.352 583.494 468.35 584.383 468.35 585.928V591.007H467.242V589.893H467.126C466.771 590.686 465.964 591.13 464.884 591.13ZM465.219 590.111C466.34 590.111 467.194 589.366 467.194 588.375V587.5L465.287 587.589C464.248 587.637 463.701 588.081 463.701 588.854C463.701 589.633 464.282 590.111 465.219 590.111ZM474.071 593.782C472.355 593.782 471.207 593.03 471.057 591.8H472.205C472.355 592.415 473.101 592.818 474.092 592.818C475.391 592.818 476.108 592.162 476.108 590.973V589.817H475.985C475.657 590.597 474.837 591.068 473.757 591.068C472.041 591.068 470.913 589.831 470.913 587.931V586.598C470.913 584.69 472.048 583.46 473.784 583.46C474.857 583.46 475.671 583.932 475.992 584.731H476.122V583.583H477.271V591C477.271 592.743 476.081 593.782 474.071 593.782ZM472.082 587.767C472.082 589.127 472.875 590.016 474.105 590.016C475.329 590.016 476.115 589.134 476.115 587.767V586.748C476.115 585.381 475.329 584.506 474.105 584.506C472.875 584.506 472.082 585.388 472.082 586.748V587.767ZM484.947 589.086H486.075C485.85 590.31 484.674 591.137 483.115 591.137C481.078 591.137 479.896 589.913 479.896 587.801V586.687C479.896 584.731 481.146 583.446 483.033 583.446C484.961 583.446 486.096 584.725 486.096 586.871V587.596H481.044V587.896C481.044 589.257 481.851 590.132 483.115 590.132C484.052 590.132 484.742 589.735 484.947 589.086ZM483.026 584.444C481.789 584.444 481.044 585.292 481.044 586.714H484.947C484.947 585.299 484.223 584.444 483.026 584.444ZM488.898 585.586C488.898 584.301 489.992 583.439 491.626 583.439C493.171 583.439 494.217 584.212 494.354 585.449H493.232C493.096 584.8 492.474 584.403 491.605 584.403C490.662 584.403 490.054 584.841 490.054 585.518C490.054 586.085 490.437 586.406 491.366 586.611L492.412 586.851C493.854 587.179 494.511 587.808 494.511 588.881C494.511 590.248 493.369 591.137 491.612 591.137C489.931 591.137 488.816 590.351 488.687 589.079H489.869C490.04 589.763 490.696 590.159 491.653 590.159C492.665 590.159 493.308 589.701 493.308 588.99C493.308 588.402 492.945 588.088 492.002 587.876L490.901 587.623C489.562 587.315 488.898 586.639 488.898 585.586Z" fill="#712B13"></path>
<path d="M378.053 608.75H379.061C379.166 609.676 379.91 610.238 381.035 610.238C382.16 610.238 382.898 609.652 382.898 608.744C382.898 608.012 382.406 607.572 381.264 607.291L380.537 607.109C378.967 606.711 378.258 605.967 378.258 604.742C378.258 603.301 379.342 602.369 381.029 602.369C382.623 602.369 383.719 603.289 383.789 604.695H382.781C382.676 603.822 382.031 603.307 381.035 603.307C379.951 603.307 379.301 603.822 379.301 604.684C379.301 605.416 379.77 605.838 380.871 606.113L381.609 606.301C383.25 606.705 383.941 607.42 383.941 608.691C383.941 610.209 382.799 611.176 381.029 611.176C379.283 611.176 378.141 610.25 378.053 608.75ZM390.082 609.359H391.049C390.855 610.408 389.848 611.117 388.512 611.117C386.766 611.117 385.752 610.068 385.752 608.258V607.303C385.752 605.627 386.824 604.525 388.441 604.525C390.094 604.525 391.066 605.621 391.066 607.461V608.082H386.736V608.34C386.736 609.506 387.428 610.256 388.512 610.256C389.314 610.256 389.906 609.916 390.082 609.359ZM388.436 605.381C387.375 605.381 386.736 606.107 386.736 607.326H390.082C390.082 606.113 389.461 605.381 388.436 605.381ZM395.531 608.152V610.203H397.5V611H393.275V610.203H394.559V605.439H393.146V604.643H395.52V606.266H395.648C395.883 605.088 396.674 604.479 397.898 604.479C398.262 604.479 398.607 604.531 398.818 604.619V605.738C398.525 605.633 398.115 605.562 397.77 605.562C396.363 605.562 395.531 606.535 395.531 608.152ZM400.33 604.643H401.396L403.172 609.934H403.248L405.012 604.643H406.072L403.752 611H402.656L400.33 604.643ZM412.336 609.359H413.303C413.109 610.408 412.102 611.117 410.766 611.117C409.02 611.117 408.006 610.068 408.006 608.258V607.303C408.006 605.627 409.078 604.525 410.695 604.525C412.348 604.525 413.32 605.621 413.32 607.461V608.082H408.99V608.34C408.99 609.506 409.682 610.256 410.766 610.256C411.568 610.256 412.16 609.916 412.336 609.359ZM410.689 605.381C409.629 605.381 408.99 606.107 408.99 607.326H412.336C412.336 606.113 411.715 605.381 410.689 605.381ZM415.723 606.359C415.723 605.258 416.66 604.52 418.061 604.52C419.385 604.52 420.281 605.182 420.398 606.242H419.438C419.32 605.686 418.787 605.346 418.043 605.346C417.234 605.346 416.713 605.721 416.713 606.301C416.713 606.787 417.041 607.062 417.838 607.238L418.734 607.443C419.971 607.725 420.533 608.264 420.533 609.184C420.533 610.355 419.555 611.117 418.049 611.117C416.607 611.117 415.652 610.443 415.541 609.354H416.555C416.701 609.939 417.264 610.279 418.084 610.279C418.951 610.279 419.502 609.887 419.502 609.277C419.502 608.773 419.191 608.504 418.383 608.322L417.439 608.105C416.291 607.842 415.723 607.262 415.723 606.359ZM430.559 606.359C430.559 605.258 431.496 604.52 432.896 604.52C434.221 604.52 435.117 605.182 435.234 606.242H434.273C434.156 605.686 433.623 605.346 432.879 605.346C432.07 605.346 431.549 605.721 431.549 606.301C431.549 606.787 431.877 607.062 432.674 607.238L433.57 607.443C434.807 607.725 435.369 608.264 435.369 609.184C435.369 610.355 434.391 611.117 432.885 611.117C431.443 611.117 430.488 610.443 430.377 609.354H431.391C431.537 609.939 432.1 610.279 432.92 610.279C433.787 610.279 434.338 609.887 434.338 609.277C434.338 608.773 434.027 608.504 433.219 608.322L432.275 608.105C431.127 607.842 430.559 607.262 430.559 606.359ZM439.207 602.938H440.191V604.66H442.77V605.51H440.203V609.096C440.203 609.787 440.689 610.162 441.586 610.162C441.943 610.162 442.582 610.145 442.752 610.127V610.971C442.594 611 441.82 611.029 441.516 611.029C439.939 611.029 439.207 610.432 439.207 609.107V605.51H437.514V604.66H439.207V602.938ZM447.064 611.111C445.852 611.111 445.043 610.35 445.043 609.195C445.043 608.07 445.852 607.402 447.299 607.326L449.045 607.238V606.664C449.045 605.867 448.559 605.428 447.674 605.428C446.941 605.428 446.426 605.738 446.262 606.283H445.283C445.4 605.264 446.385 604.566 447.686 604.566C449.18 604.566 450.035 605.328 450.035 606.652V611.006H449.086V610.051H448.986C448.682 610.73 447.99 611.111 447.064 611.111ZM447.352 610.238C448.312 610.238 449.045 609.6 449.045 608.75V608L447.41 608.076C446.52 608.117 446.051 608.498 446.051 609.16C446.051 609.828 446.549 610.238 447.352 610.238ZM454.043 602.938H455.027V604.66H457.605V605.51H455.039V609.096C455.039 609.787 455.525 610.162 456.422 610.162C456.779 610.162 457.418 610.145 457.588 610.127V610.971C457.43 611 456.656 611.029 456.352 611.029C454.775 611.029 454.043 610.432 454.043 609.107V605.51H452.35V604.66H454.043V602.938ZM462.656 603.084C462.188 603.084 461.83 602.732 461.83 602.264C461.83 601.801 462.188 601.449 462.656 601.449C463.125 601.449 463.482 601.801 463.482 602.264C463.482 602.732 463.125 603.084 462.656 603.084ZM465.322 611H460.055V610.174H462.234V605.469H460.072V604.643H463.219V610.174H465.322V611ZM472.611 606.623H471.627C471.504 605.879 470.883 605.41 470.062 605.41C468.955 605.41 468.34 606.166 468.34 607.531V608.105C468.34 609.471 468.955 610.221 470.062 610.221C470.883 610.221 471.504 609.758 471.627 609.031H472.611C472.453 610.326 471.486 611.117 470.08 611.117C468.352 611.117 467.344 610.057 467.344 608.234V607.402C467.344 605.58 468.352 604.52 470.08 604.52C471.486 604.52 472.447 605.316 472.611 606.623ZM482.484 606.359C482.484 605.258 483.422 604.52 484.822 604.52C486.146 604.52 487.043 605.182 487.16 606.242H486.199C486.082 605.686 485.549 605.346 484.805 605.346C483.996 605.346 483.475 605.721 483.475 606.301C483.475 606.787 483.803 607.062 484.6 607.238L485.496 607.443C486.732 607.725 487.295 608.264 487.295 609.184C487.295 610.355 486.316 611.117 484.811 611.117C483.369 611.117 482.414 610.443 482.303 609.354H483.316C483.463 609.939 484.025 610.279 484.846 610.279C485.713 610.279 486.264 609.887 486.264 609.277C486.264 608.773 485.953 608.504 485.145 608.322L484.201 608.105C483.053 607.842 482.484 607.262 482.484 606.359ZM492.328 603.084C491.859 603.084 491.502 602.732 491.502 602.264C491.502 601.801 491.859 601.449 492.328 601.449C492.797 601.449 493.154 601.801 493.154 602.264C493.154 602.732 492.797 603.084 492.328 603.084ZM494.994 611H489.727V610.174H491.906V605.469H489.744V604.643H492.891V610.174H494.994V611ZM498.551 602.938H499.535V604.66H502.113V605.51H499.547V609.096C499.547 609.787 500.033 610.162 500.93 610.162C501.287 610.162 501.926 610.145 502.096 610.127V610.971C501.938 611 501.164 611.029 500.859 611.029C499.283 611.029 498.551 610.432 498.551 609.107V605.51H496.857V604.66H498.551V602.938ZM508.77 609.359H509.736C509.543 610.408 508.535 611.117 507.199 611.117C505.453 611.117 504.439 610.068 504.439 608.258V607.303C504.439 605.627 505.512 604.525 507.129 604.525C508.781 604.525 509.754 605.621 509.754 607.461V608.082H505.424V608.34C505.424 609.506 506.115 610.256 507.199 610.256C508.002 610.256 508.594 609.916 508.77 609.359ZM507.123 605.381C506.062 605.381 505.424 606.107 505.424 607.326H508.77C508.77 606.113 508.148 605.381 507.123 605.381Z" fill="#993C1D"></path>
</g>
<defs>
<clipPath id="clip0_63_205">
<rect width="602" height="657" fill="white"></rect>
</clipPath>
</defs>
</svg>
