<svg width="813" height="511" viewBox="0 0 813 511" fill="none" xmlns="http://www.w3.org/2000/svg">
<path d="M184.868 16.1548C219.942 -1.71209 259.78 -4.86032 297.152 7.21631C334.524 19.2929 364.998 45.2677 382.865 80.3413L549.562 406.912C561.314 429.903 581.352 446.932 605.89 454.919C630.427 462.907 656.729 460.812 679.72 449.06L789.729 392.726L812.707 437.689L702.697 494.023C667.623 511.89 627.785 515.038 590.413 502.961C579.846 499.51 569.879 494.972 560.62 489.552C536.823 475.498 517.559 454.968 504.7 429.835L338.005 103.266C326.253 80.275 306.214 63.245 281.677 55.2573C257.139 47.2697 230.837 49.3656 207.846 61.1177L65.666 133.688L42.6885 88.7251L184.868 16.1548ZM50.3662 114.081L48.9463 142.329L23.7119 155.24L0 139.85L1.41992 111.602L26.707 98.7925L50.3662 114.081Z" fill="white"/>
</svg>
