<svg width="90" height="36" viewBox="0 0 90 36" fill="none" xmlns="http://www.w3.org/2000/svg">
<path d="M90 36H0V0H90V36ZM45 2.09277C19.8842 2.09278 1.75781 9.30436 1.75781 18C1.7579 26.6956 19.8843 33.9072 45 33.9072C70.1157 33.9072 88.2421 26.6969 88.2422 18C88.2422 9.30308 70.1158 2.09277 45 2.09277Z" fill="#0058A3"/>
<path d="M42.4486 23.0988C42.7117 23.487 43.0212 23.8499 43.403 24.2254H33.6699C33.6699 23.8499 33.3023 23.0734 32.8844 22.4619C32.4665 21.8504 30.235 18.5201 30.235 18.5201V23.1001C30.235 23.4756 30.235 23.8512 30.4259 24.2267H22.3102C22.5011 23.8461 22.5011 23.4756 22.5011 23.1001V12.2121C22.5011 11.8366 22.5011 11.4611 22.3102 11.0855H30.4259C30.235 11.4611 30.235 11.8366 30.235 12.2121V16.9647C30.235 16.9647 32.8315 13.6483 33.4222 12.8719C33.8724 12.2819 34.4335 11.4623 34.4335 11.0855H42.891C42.3092 11.4611 41.6605 12.1563 41.1381 12.7869C40.6763 13.3438 38.0373 16.5003 38.0373 16.5003C38.0373 16.5003 41.9404 22.3478 42.4486 23.1001V23.0988ZM44.9999 12.2109V23.0988C44.9999 23.4744 44.9999 23.8499 44.809 24.2254H60.4689V20.5792C60.0871 20.767 59.7053 20.767 59.3235 20.767H52.735V19.0377H59.063V16.2707H52.735V14.5415H59.3235C59.7053 14.5415 60.0871 14.5415 60.4689 14.7242V11.083H44.809C44.9999 11.4585 44.9999 11.8341 44.9999 12.2096V12.2109ZM82.1718 23.095C82.3188 23.4744 82.4659 23.8499 82.8 24.2254H74.3128C74.3567 23.8499 74.2057 23.4744 74.0561 23.0988C74.0561 23.0988 73.9259 22.7943 73.7504 22.3465C73.7388 22.3173 73.6743 22.1498 73.6743 22.1498H68.7845L68.7123 22.3465C68.7123 22.3465 68.5743 22.7195 68.4376 23.0988C68.3021 23.4744 68.1615 23.8499 68.2196 24.2254H61.5227C61.8516 23.8499 61.9897 23.4782 62.129 23.1001C62.3495 22.5013 65.8321 13.0584 66.1455 12.2109C66.2835 11.8353 66.4228 11.4598 66.37 11.0843H77.6832C77.5838 11.4598 77.7863 11.8328 77.9334 12.2109C78.2597 13.0507 81.8855 22.3604 82.1718 23.095ZM72.5999 19.3841C71.9872 17.8046 71.4726 16.4788 71.4197 16.343C71.2739 15.9662 71.1566 15.4778 71.1566 15.4778C71.1566 15.4778 71.0624 15.9662 70.9257 16.3417C70.8818 16.4623 70.3878 17.8033 69.8048 19.3841H72.5999ZM18.4717 11.0843H9.65303C9.84393 11.4598 9.84393 11.8353 9.84393 12.2109V23.0988C9.84393 23.4744 9.84393 23.8499 9.65303 24.2254H18.4717C18.2808 23.8499 18.2808 23.4744 18.2808 23.0988V12.2109C18.2808 11.8353 18.2808 11.4598 18.4717 11.0843ZM79.4528 12.1221C79.4528 11.1185 80.1906 10.3928 81.2109 10.3928C82.2311 10.3928 82.9689 11.1185 82.9689 12.1221C82.9689 13.1256 82.2311 13.8513 81.2109 13.8513C80.1906 13.8513 79.4528 13.1256 79.4528 12.1221ZM79.8024 12.1221C79.8024 12.8845 80.3918 13.5049 81.2109 13.5049C81.9848 13.5049 82.6155 12.9277 82.6155 12.1221C82.6155 11.3596 82.0312 10.7392 81.2109 10.7392C80.3905 10.7392 79.8024 11.3164 79.8024 12.1221ZM80.8588 13.1586H80.5466V11.0843H81.3373C81.701 11.0843 81.9964 11.3989 81.9964 11.7567C81.9964 12.0129 81.8455 12.2565 81.6249 12.3631L82.0815 13.1599H81.7294L81.3128 12.4304H80.8575V13.1599L80.8588 13.1586ZM80.8588 12.1221H81.2883C81.5062 12.1221 81.6842 11.9723 81.6842 11.7567C81.6842 11.541 81.5075 11.3913 81.2883 11.3913H80.8588V12.1208V12.1221Z" fill="#0058A3"/>
</svg>
