<svg width="101" height="38" viewBox="0 0 101 38" fill="none" xmlns="http://www.w3.org/2000/svg">
<path d="M19.0348 8.32023C16.0722 8.32023 13.5515 9.37023 11.4727 11.4602C9.35372 13.5402 8.31933 16.0602 8.31933 19.0102C8.31933 21.9302 9.35372 24.4502 11.4727 26.5102C13.5415 28.5902 16.0722 29.6502 19.0348 29.6502C21.9672 29.6502 24.498 28.5902 26.5969 26.5102C28.6958 24.4502 29.7201 21.9302 29.7201 19.0102C29.7201 16.0602 28.6857 13.5402 26.5969 11.4602C24.498 9.38023 21.9773 8.32023 19.0348 8.32023ZM25.8738 25.7902C23.9758 27.6602 21.686 28.5902 19.0348 28.5902C16.3635 28.5902 14.0737 27.6602 12.2259 25.7902C10.3279 23.9202 9.38385 21.6402 9.38385 19.0102C9.38385 16.3302 10.3279 14.0702 12.2259 12.2002C14.0838 10.3102 16.3635 9.37023 19.0348 9.37023C21.686 9.37023 23.9657 10.3002 25.8738 12.2002C27.7518 14.0702 28.6657 16.3202 28.6657 19.0102C28.6657 21.6502 27.7518 23.9202 25.8738 25.7902ZM19.0348 10.4502C16.6748 10.4502 14.6261 11.2702 12.949 12.9402C11.2618 14.6202 10.4484 16.6302 10.4484 19.0002C10.4484 21.3502 11.2618 23.3602 12.949 25.0402C14.6361 26.7202 16.6748 27.5602 19.0348 27.5602C21.4149 27.5602 23.4134 26.7202 25.1005 25.0502C26.7877 23.3702 27.6313 21.3602 27.6313 19.0102C27.6313 16.6402 26.7877 14.6202 25.1005 12.9502C23.4134 11.2702 21.4249 10.4502 19.0348 10.4502ZM26.5467 19.3702C26.4764 21.4502 25.6328 23.1802 24.0963 24.5702C22.5296 25.9602 20.722 26.6102 18.6532 26.4902C16.5643 26.3702 14.8269 25.5602 13.431 24.0502C12.0552 22.4902 11.4125 20.7002 11.5028 18.6102C11.6234 16.5502 12.4368 14.8202 14.0034 13.4402C15.5199 12.0502 17.3476 11.4302 19.4465 11.5202C21.4952 11.6202 23.2226 12.4602 24.6185 13.9902C26.0144 15.5102 26.6672 17.3102 26.5467 19.3702ZM30.8349 14.0502C30.2122 12.4902 29.2682 11.1502 28.1133 9.98023C26.9082 8.81023 25.5625 7.89023 24.026 7.25023C22.4593 6.58023 20.7722 6.24023 19.0448 6.24023C17.2874 6.24023 15.6504 6.57023 14.0436 7.25023C12.5171 7.89023 11.1413 8.80023 9.96632 9.98023C8.79133 11.1502 7.89754 12.5002 7.24477 14.0502C6.54179 15.6102 6.23047 17.2602 6.23047 19.0102C6.23047 20.7402 6.54179 22.3902 7.24477 23.9702C7.89754 25.4802 8.78129 26.8402 9.96632 28.0202C11.1413 29.2002 12.5171 30.1102 14.0336 30.7502C15.6504 31.4202 17.2874 31.7602 19.0348 31.7602C20.7621 31.7602 22.4493 31.4202 24.0159 30.7502C25.5525 30.1002 26.8982 29.1902 28.1033 28.0202C29.2582 26.8502 30.2022 25.4802 30.8248 23.9702C31.5178 22.3902 31.8592 20.7302 31.8592 19.0102C31.8693 17.2602 31.5278 15.6102 30.8349 14.0502ZM29.8708 23.5602C29.2682 24.9502 28.4246 26.2002 27.34 27.2802C26.2554 28.3602 25.0302 29.2002 23.6142 29.8002C22.1681 30.4002 20.6517 30.7102 19.0448 30.7102C17.4581 30.7102 15.9216 30.4002 14.4755 29.8002C13.0494 29.2002 11.8242 28.3602 10.7195 27.2802C9.655 26.2002 8.79133 24.9502 8.21891 23.5602C7.59626 22.1002 7.30503 20.5902 7.30503 19.0102C7.30503 17.4002 7.59626 15.8902 8.21891 14.4302C8.80138 13.0402 9.66504 11.7902 10.7195 10.7202C11.8142 9.64023 13.0494 8.80023 14.4654 8.20023C15.9115 7.58023 17.4481 7.29023 19.0348 7.29023C20.6416 7.29023 22.158 7.58023 23.6042 8.20023C25.0302 8.80023 26.2554 9.64023 27.33 10.7202C28.4146 11.8002 29.2582 13.0402 29.8607 14.4302C30.4834 15.8902 30.8047 17.4002 30.8047 19.0102C30.8047 20.5902 30.4934 22.1002 29.8708 23.5602Z" fill="#AAAAAA"/>
<path d="M13.5322 21.9407C13.713 22.2807 13.9138 22.5907 14.1549 22.8907V15.1007C13.251 16.2207 12.7891 17.5207 12.7891 18.9907C12.7891 20.0807 13.0301 21.0807 13.5322 21.9407ZM15.5508 24.1707C15.5608 24.1807 15.5709 24.1807 15.5809 24.1907C16.0027 24.4707 16.4747 24.7107 16.9467 24.8707V13.1107C16.4546 13.2807 15.9826 13.5207 15.5508 13.8107V24.1707ZM18.3627 12.8007V25.1907C18.3627 25.1907 18.3627 25.1907 18.3727 25.1907C18.5836 25.2407 18.8247 25.2407 19.0657 25.2407C19.3067 25.2407 19.5477 25.2407 19.7586 25.1907C19.7586 25.1907 19.7586 25.1907 19.7687 25.1907V12.8007C19.5377 12.7807 19.3067 12.7607 19.0657 12.7607C18.8247 12.7607 18.5937 12.7807 18.3627 12.8007ZM21.1847 24.8807C21.6768 24.7107 22.1287 24.4807 22.5505 24.2007C22.5605 24.1907 22.5706 24.1807 22.5806 24.1807V13.8307C22.1387 13.5307 21.6768 13.2907 21.1847 13.1207V24.8807ZM23.9765 15.1207V22.8807C24.2175 22.5907 24.4184 22.2707 24.5992 21.9607C25.0812 21.0807 25.3122 20.0807 25.3122 19.0107C25.3122 17.5307 24.8804 16.2307 23.9765 15.1207Z" fill="#AAAAAA"/>
<path d="M16.2045 1.21957C15.5819 1.31957 14.9592 1.44957 14.3667 1.60957L15.371 5.30957C15.853 5.17957 16.3351 5.07957 16.8372 4.99957L16.2045 1.21957ZM7.11595 11.2796L3.88223 9.20957C3.54078 9.73957 3.21942 10.2796 2.92818 10.8496L6.35271 12.5896C6.59373 12.1296 6.8448 11.6996 7.11595 11.2796ZM12.5791 2.18957C11.9866 2.41957 11.4142 2.66957 10.8518 2.95957L12.6093 6.36957C13.0511 6.14957 13.503 5.94957 13.955 5.76957L12.5791 2.18957ZM11.3037 7.10957L9.20481 3.89957C8.67255 4.23957 8.16038 4.60957 7.66829 5.00957L10.0886 7.97957C10.4802 7.67957 10.8819 7.37957 11.3037 7.10957ZM8.99391 8.97957L6.25228 6.28957C5.81041 6.72957 5.39866 7.18957 5.007 7.66957L8.00974 10.0696C8.31102 9.68957 8.64242 9.32957 8.99391 8.97957ZM28.0046 7.98957L30.4449 5.02957C29.9428 4.62957 29.4206 4.24957 28.8783 3.89957L26.7995 7.11957C27.2212 7.38957 27.6229 7.67957 28.0046 7.98957ZM27.2614 2.95957C26.7091 2.67957 26.1366 2.41957 25.5441 2.19957L24.1582 5.76957C24.6302 5.94957 25.0922 6.14957 25.5341 6.37957L27.2614 2.95957ZM30.1236 10.0996L33.1062 7.66957C32.7145 7.17957 32.2827 6.71957 31.8408 6.27957L29.1093 8.96957C29.4607 9.32957 29.8022 9.69957 30.1236 10.0996ZM31.7304 12.5696L35.1549 10.8196C34.8737 10.2596 34.5523 9.71957 34.2109 9.19957L30.9872 11.2896C31.2684 11.6996 31.5094 12.1296 31.7304 12.5696ZM32.7949 15.3196L36.5107 14.3396C36.35 13.7196 36.1491 13.1196 35.9282 12.5296L32.3329 13.9196C32.5137 14.3696 32.6643 14.8396 32.7949 15.3196ZM23.7264 1.60957C23.1138 1.44957 22.5012 1.31957 21.8685 1.21957L21.2861 4.99957C21.7882 5.07957 22.2803 5.17957 22.7523 5.30957L23.7264 1.60957ZM19.9906 1.01957C19.3679 0.98957 18.7352 0.98957 18.1026 1.01957L18.3034 4.83957C18.8055 4.80957 19.2976 4.81957 19.7897 4.83957L19.9906 1.01957ZM5.30828 22.6896L1.59251 23.6696C1.7532 24.2796 1.944 24.8696 2.16494 25.4496L5.76019 24.0996C5.58947 23.6296 5.43883 23.1596 5.30828 22.6896ZM33.1062 21.2296L36.9124 21.8196C37.0128 21.1996 37.073 20.5696 37.1132 19.9296L33.2769 19.7296C33.2368 20.2396 33.1866 20.7396 33.1062 21.2296ZM32.343 24.0796L35.9382 25.4496C36.1592 24.8596 36.36 24.2596 36.5307 23.6396L32.8049 22.6696C32.6744 23.1496 32.5137 23.6196 32.343 24.0796ZM36.9023 16.1796L33.1062 16.7796C33.1765 17.2696 33.2368 17.7596 33.2669 18.2596V18.2696L37.1032 18.0696V18.0596C37.073 17.4196 37.0027 16.7996 36.9023 16.1796ZM30.9872 26.7196L34.2109 28.8096C34.5523 28.2796 34.8737 27.7296 35.1649 27.1696L31.7304 25.4396C31.5094 25.8796 31.2584 26.3096 30.9872 26.7196ZM29.1093 29.0196L31.8208 31.7296C32.2727 31.2796 32.6945 30.8096 33.0962 30.3196L30.0934 27.9196C29.7921 28.3096 29.4607 28.6796 29.1093 29.0196ZM26.8195 30.8796L28.8984 34.0996C29.4306 33.7496 29.9428 33.3796 30.4349 32.9896L27.9945 30.0196C27.6229 30.3296 27.2313 30.6096 26.8195 30.8796ZM5.76019 13.9196L2.16494 12.5596C1.944 13.1396 1.74315 13.7296 1.58247 14.3396L5.29823 15.3296C5.42879 14.8496 5.58947 14.3796 5.76019 13.9196ZM7.97961 27.8996L4.99696 30.3196C5.39866 30.8096 5.82045 31.2796 6.26233 31.7196L8.99391 29.0196C8.64242 28.6696 8.30097 28.2996 7.97961 27.8996ZM6.36275 25.4296L2.93822 27.1796C3.21942 27.7296 3.53074 28.2696 3.87218 28.7896L7.1059 26.7196C6.8448 26.3096 6.59373 25.8796 6.36275 25.4296ZM4.84632 19.7496L1.01004 19.9496C1.04017 20.5796 1.11047 21.1896 1.20085 21.7896L4.99696 21.1896C4.91662 20.7296 4.8664 20.2496 4.84632 19.7496ZM10.0986 30.0196L7.66829 32.9896C8.16038 33.3896 8.67255 33.7596 9.20481 34.0996L11.3138 30.8996C10.892 30.6196 10.4903 30.3296 10.0986 30.0196ZM4.99696 16.7696L1.19081 16.1796C1.10043 16.7996 1.03013 17.4196 1 18.0496L4.83628 18.2496C4.8664 17.7496 4.91662 17.2596 4.99696 16.7696ZM24.1683 32.2196L25.524 35.8096C26.1266 35.5796 26.699 35.3196 27.2715 35.0396L25.524 31.6296C25.0822 31.8496 24.6302 32.0496 24.1683 32.2196ZM10.8418 35.0396C11.4041 35.3196 11.9866 35.5796 12.5791 35.8096L13.9349 32.2296C13.4729 32.0496 13.021 31.8496 12.5892 31.6296L10.8418 35.0396ZM18.0925 36.9696C18.7252 36.9996 19.3579 36.9996 20.0006 36.9696L19.7998 33.1496C19.2976 33.1796 18.8055 33.1796 18.3134 33.1496L18.0925 36.9696ZM21.276 32.9996L21.8786 36.7796C22.5012 36.6796 23.1239 36.5496 23.7264 36.3896L22.7422 32.6896C22.2602 32.8196 21.7681 32.9196 21.276 32.9996ZM14.3767 36.3896C14.9793 36.5496 15.5919 36.6796 16.2145 36.7796L16.8271 32.9996C16.3351 32.9196 15.853 32.8196 15.381 32.6896L14.3767 36.3896Z" fill="#AAAAAA"/>
<path d="M44.3438 28.161V10.251H51.6246C54.9487 10.251 57.3489 13.281 57.3489 16.201C57.3489 19.251 55.0894 22.151 51.7452 22.151H47.8284V28.151H44.3438V28.161ZM47.8386 19.101H51.5443C52.8398 19.101 53.8039 17.961 53.8039 16.201C53.8039 14.361 52.639 13.301 51.3937 13.301H47.8386V19.101Z" fill="#AAAAAA"/>
<path d="M67.2395 17.6605C65.1908 17.6905 63.4434 18.8505 62.7303 20.3405V28.1705H59.3359V14.9405H62.4492V17.7705C63.3831 15.9805 65.1305 14.7705 66.5566 14.7705C66.9081 14.7705 67.0888 14.7705 67.2395 14.8005V17.6605Z" fill="#AAAAAA"/>
<path d="M68.1562 21.6209C68.1562 17.8609 70.8377 14.7109 75.1762 14.7109C79.5045 14.7109 81.7742 17.8409 81.7742 21.4309C81.7742 21.8609 81.7139 22.3609 81.6637 22.6309H71.7617C71.9424 24.7009 73.5091 25.9409 75.2866 25.9409C76.8935 25.9409 78.1588 24.9609 78.5907 23.8809L81.4528 24.9609C80.4887 26.9809 78.209 28.4209 75.2665 28.4209C70.7072 28.4109 68.1562 25.2809 68.1562 21.6209ZM78.6007 20.4409C78.4199 18.4709 76.9838 17.1609 75.1259 17.1609C73.2982 17.1609 71.8621 18.4709 71.7014 20.4409H78.6007Z" fill="#AAAAAA"/>
<path d="M96.2422 11.4308C96.2422 10.4508 97.1259 9.59082 98.1202 9.59082C99.0843 9.59082 99.9981 10.4508 99.9981 11.4308C99.9981 12.4408 99.0843 13.3008 98.1202 13.3008C97.1259 13.3008 96.2422 12.4108 96.2422 11.4308ZM96.423 28.1608V14.9408H99.8174V28.1608H96.423Z" fill="#AAAAAA"/>
<path d="M82.2346 28.1607L89.1037 17.6507H82.9677V14.9307H94.125L87.2458 25.4307H94.1752V28.1607H82.2346Z" fill="#AAAAAA"/>
</svg>
