<svg xmlns="http://www.w3.org/2000/svg" viewBox="0 0 21 23" fill="none"><path fill="url(#a)" d="M20.36 9.75c-.04-.353-.079-.784-.235-1.254a7.553 7.553 0 0 0-.588-1.527 9.685 9.685 0 0 0-1.057-1.644 4.304 4.304 0 0 0-.587-.627c.313-1.253-.392-2.31-.392-2.31-1.174-.078-1.957.353-2.231.588-.04 0-.079-.04-.157-.079a10.823 10.823 0 0 0-.626-.235c-.235-.078-.431-.117-.666-.195-.235-.04-.47-.079-.666-.118h-.117C12.528.705 11.04 0 11.04 0 9.397 1.057 9.083 2.506 9.083 2.506v.078c-.078.04-.195.04-.274.078a4.53 4.53 0 0 1-.391.118 2.702 2.702 0 0 0-.392.156c-.235.118-.509.235-.744.353a6.81 6.81 0 0 0-.704.43c-.04 0-.04-.039-.04-.039-2.31-.861-4.345.196-4.345.196-.196 2.428.9 3.994 1.135 4.268-.04.156-.117.313-.157.47-.156.548-.313 1.135-.391 1.722 0 .079-.04.157-.04.235C.627 11.628 0 13.781 0 13.781c1.762 2.037 3.837 2.154 3.837 2.154.274.47.548.9.9 1.331.157.157.314.353.431.51-.626 1.84.078 3.367.078 3.367 1.958.078 3.25-.862 3.524-1.097.196.079.392.118.588.196a9.48 9.48 0 0 0 1.84.274h.744c.94 1.331 2.545 1.527 2.545 1.527 1.174-1.214 1.213-2.427 1.213-2.701v-.079c.235-.156.47-.352.705-.548.47-.43.861-.9 1.214-1.41.039-.039.078-.078.078-.156 1.331.078 2.232-.822 2.232-.822-.235-1.37-1.018-2.036-1.175-2.154h-.039V12.53c-.04-.157-.04-.313-.078-.43-.157-.588-.353-1.136-.666-1.645a6.026 6.026 0 0 0-1.096-1.331c-.43-.392-.9-.666-1.41-.9-.509-.236-1.018-.353-1.566-.432-.274-.039-.509-.039-.783-.039h-.391c-.118 0-.274.04-.392.04a3.833 3.833 0 0 0-1.449.548c-.43.274-.822.587-1.135.94a3.79 3.79 0 0 0-.705 1.213c-.156.43-.235.861-.274 1.292v.626c.04.196.079.431.118.627.117.391.313.744.509 1.057.235.313.509.548.783.744.274.196.587.352.9.43.313.079.588.118.9.118h.51c.039 0 .078 0 .117-.04.079 0 .118-.038.196-.038.117-.04.235-.079.352-.157.118-.039.196-.117.314-.196.039 0 .039-.039.078-.078a.207.207 0 0 0 .04-.313c-.08-.078-.197-.118-.275-.04-.04 0-.04.04-.078.04-.079.039-.157.078-.274.117-.079.04-.196.04-.275.079h-.626a2.149 2.149 0 0 1-.665-.196c-.235-.078-.431-.235-.627-.392-.196-.156-.352-.391-.47-.587a2.101 2.101 0 0 1-.274-.744c-.039-.117-.039-.274-.039-.391v-.197c0-.077 0-.156.04-.234a3.09 3.09 0 0 1 .86-1.605c.118-.118.235-.196.353-.314.117-.078.274-.156.391-.234.157-.079.314-.118.431-.157.157-.04.313-.078.47-.078h.47c.156 0 .352.039.509.078.352.078.665.196.979.391.626.353 1.135.901 1.487 1.527.157.314.274.666.353 1.018 0 .079.039.196.039.274v.627c0 .117 0 .196-.04.313 0 .078-.038.196-.038.274 0 .079-.04.196-.079.274a2.256 2.256 0 0 1-.195.548 7.117 7.117 0 0 1-.588 1.058c-.47.626-1.096 1.174-1.84 1.487a5.463 5.463 0 0 1-1.135.353c-.196.039-.392.039-.588.078h-.587a6.444 6.444 0 0 1-1.253-.235 6.131 6.131 0 0 1-1.174-.47 6.421 6.421 0 0 1-1.958-1.605 3.712 3.712 0 0 1-.666-1.057 7.349 7.349 0 0 1-.47-1.175 4.366 4.366 0 0 1-.195-1.213v-.744c0-.196.039-.431.039-.627.039-.196.078-.43.117-.626.04-.196.079-.43.157-.627.117-.391.274-.783.43-1.174.353-.744.784-1.41 1.332-1.919a4.29 4.29 0 0 1 .43-.391c.157-.118.314-.235.47-.314a2.92 2.92 0 0 1 .47-.274l.235-.117c.04 0 .078-.04.118-.04.039 0 .078-.038.117-.038.157-.079.352-.118.509-.196.04 0 .078-.04.117-.04.04 0 .079-.038.118-.038.078-.04.196-.04.274-.079.04 0 .078-.039.157-.039.039 0 .078 0 .156-.039.04 0 .079 0 .157-.04h.156c.04 0 .079 0 .157-.038.04 0 .117 0 .157-.04h1.37c.352 0 .705.04 1.057.118.666.117 1.292.352 1.88.626A6.111 6.111 0 0 1 17.265 6.5l.079.079.078.078c.04.04.118.078.157.157.039.078.117.078.156.156.04.079.118.118.157.157.196.196.352.391.509.626.313.392.587.822.783 1.214 0 .04.04.04.04.078 0 .04.038.04.038.079.04.039.04.078.078.156.04.04.04.079.079.157.039.039.039.078.078.156.078.196.157.353.196.51.078.274.157.508.196.704.039.079.117.157.195.118a.169.169 0 0 0 .157-.157c.157-.47.157-.744.117-1.018Z"/><defs><linearGradient id="a" x1="10.254" x2="10.254" y1="28" y2="2.5" gradientUnits="userSpaceOnUse"><stop stop-color="#FFF100"/><stop offset="1" stop-color="#F05A28"/></linearGradient></defs></svg>