<svg width="340" height="340" viewBox="0 0 340 340" fill="none" xmlns="http://www.w3.org/2000/svg">
<path fill-rule="evenodd" clip-rule="evenodd" d="M47.2941 52.2819C89.2802 8.53333 151.453 -9.57513 210.369 4.90395C269.366 19.3692 316.088 64.161 333.032 122.469C349.963 180.697 334.511 243.598 292.539 287.427C250.553 331.176 188.38 349.284 129.464 334.805C70.467 320.34 23.7452 275.548 6.80091 217.24C-10.2239 158.945 5.24124 96.125 47.2941 52.2819ZM141.644 113.811L154.423 160.964L107.276 173.743L113.863 198.048L161.01 185.27L173.789 232.421L198.095 225.833L185.316 178.682L232.473 165.902L225.885 141.596L178.729 154.377L165.949 107.224L141.644 113.811Z" fill="white"/>
</svg>
